  0
SECTION
  2
HEADER
  9
$ACADVER
  1
AC1015
  9
$ACADMAINTVER
 70
     6
  9
$DWGCODEPAGE
  3
ANSI_1252
  9
$INSBASE
 10
0.0
 20
0.0
 30
0.0
  9
$EXTMIN
 10
0.0
 20
0.0
 30
0.0
  9
$EXTMAX
 10
841.0
 20
594.0
 30
0.0
  9
$LIMMIN
 10
0.0
 20
0.0
  9
$LIMMAX
 10
841.0
 20
594.0
  9
$ORTHOMODE
 70
     0
  9
$REGENMODE
 70
     1
  9
$FILLMODE
 70
     1
  9
$QTEXTMODE
 70
     0
  9
$MIRRTEXT
 70
     1
  9
$LTSCALE
 40
1.0
  9
$ATTMODE
 70
     1
  9
$TEXTSIZE
 40
3.175
  9
$TRACEWID
 40
1.0
  9
$TEXTSTYLE
  7
Standard
  9
$CLAYER
  8
0
  9
$CELTYPE
  6
ByLayer
  9
$CECOLOR
 62
   256
  9
$CELTSCALE
 40
1.0
  9
$DISPSILH
 70
     0
  9
$DIMSCALE
 40
1.0
  9
$DIMASZ
 40
3.302
  9
$DIMEXO
 40
1.27
  9
$DIMDLI
 40
3.75
  9
$DIMRND
 40
0.0
  9
$DIMDLE
 40
0.0
  9
$DIMEXE
 40
3.175
  9
$DIMTP
 40
0.0
  9
$DIMTM
 40
0.0
  9
$DIMTXT
 40
3.175
  9
$DIMCEN
 40
2.5
  9
$DIMTSZ
 40
0.0
  9
$DIMTOL
 70
     0
  9
$DIMLIM
 70
     0
  9
$DIMTIH
 70
     1
  9
$DIMTOH
 70
     1
  9
$DIMSE1
 70
     0
  9
$DIMSE2
 70
     0
  9
$DIMTAD
 70
     0
  9
$DIMZIN
 70
     0
  9
$DIMBLK
  1

  9
$DIMASO
 70
     1
  9
$DIMSHO
 70
     1
  9
$DIMPOST
  1

  9
$DIMAPOST
  1

  9
$DIMALT
 70
     0
  9
$DIMALTD
 70
     3
  9
$DIMALTF
 40
0.0393700787
  9
$DIMLFAC
 40
2.0
  9
$DIMTOFL
 70
     1
  9
$DIMTVP
 40
0.0
  9
$DIMTIX
 70
     0
  9
$DIMSOXD
 70
     0
  9
$DIMSAH
 70
     0
  9
$DIMBLK1
  1

  9
$DIMBLK2
  1

  9
$DIMSTYLE
  2
ISO-25
  9
$DIMCLRD
 70
     0
  9
$DIMCLRE
 70
     0
  9
$DIMCLRT
 70
     0
  9
$DIMTFAC
 40
1.0
  9
$DIMGAP
 40
1.524
  9
$DIMJUST
 70
     0
  9
$DIMSD1
 70
     0
  9
$DIMSD2
 70
     0
  9
$DIMTOLJ
 70
     0
  9
$DIMTZIN
 70
     0
  9
$DIMALTZ
 70
     0
  9
$DIMALTTZ
 70
     0
  9
$DIMUPT
 70
     0
  9
$DIMDEC
 70
     2
  9
$DIMTDEC
 70
     2
  9
$DIMALTU
 70
     2
  9
$DIMALTTD
 70
     3
  9
$DIMTXSTY
  7
Standard
  9
$DIMAUNIT
 70
     0
  9
$DIMADEC
 70
     2
  9
$DIMALTRND
 40
0.0
  9
$DIMAZIN
 70
     0
  9
$DIMDSEP
 70
    44
  9
$DIMATFIT
 70
     3
  9
$DIMFRAC
 70
     0
  9
$DIMLDRBLK
  1

  9
$DIMLUNIT
 70
     2
  9
$DIMLWD
 70
    -2
  9
$DIMLWE
 70
    -2
  9
$DIMTMOVE
 70
     0
  9
$LUNITS
 70
     2
  9
$LUPREC
 70
     3
  9
$SKETCHINC
 40
1.0
  9
$FILLETRAD
 40
10.0
  9
$AUNITS
 70
     0
  9
$AUPREC
 70
     2
  9
$MENU
  1
.
  9
$ELEVATION
 40
0.0
  9
$PELEVATION
 40
0.0
  9
$THICKNESS
 40
0.0
  9
$LIMCHECK
 70
     0
  9
$CHAMFERA
 40
0.0
  9
$CHAMFERB
 40
0.0
  9
$CHAMFERC
 40
0.0
  9
$CHAMFERD
 40
0.0
  9
$SKPOLY
 70
     0
  9
$TDCREATE
 40
2457336.568331968
  9
$TDUCREATE
 40
2457336.776665301
  9
$TDUPDATE
 40
2457336.568339236
  9
$TDUUPDATE
 40
2457336.77667257
  9
$TDINDWG
 40
0.0000000116
  9
$TDUSRTIMER
 40
0.0000000116
  9
$USRTIMER
 70
     1
  9
$ANGBASE
 50
0.0
  9
$ANGDIR
 70
     0
  9
$PDMODE
 70
     0
  9
$PDSIZE
 40
-1.0
  9
$PLINEWID
 40
0.0
  9
$SPLFRAME
 70
     0
  9
$SPLINETYPE
 70
     6
  9
$SPLINESEGS
 70
     8
  9
$HANDSEED
  5
35C
  9
$SURFTAB1
 70
     6
  9
$SURFTAB2
 70
     6
  9
$SURFTYPE
 70
     6
  9
$SURFU
 70
     6
  9
$SURFV
 70
     6
  9
$UCSBASE
  2

  9
$UCSNAME
  2

  9
$UCSORG
 10
0.0
 20
0.0
 30
0.0
  9
$UCSXDIR
 10
1.0
 20
0.0
 30
0.0
  9
$UCSYDIR
 10
0.0
 20
1.0
 30
0.0
  9
$UCSORTHOREF
  2

  9
$UCSORTHOVIEW
 70
     0
  9
$UCSORGTOP
 10
0.0
 20
0.0
 30
0.0
  9
$UCSORGBOTTOM
 10
0.0
 20
0.0
 30
0.0
  9
$UCSORGLEFT
 10
0.0
 20
0.0
 30
0.0
  9
$UCSORGRIGHT
 10
0.0
 20
0.0
 30
0.0
  9
$UCSORGFRONT
 10
0.0
 20
0.0
 30
0.0
  9
$UCSORGBACK
 10
0.0
 20
0.0
 30
0.0
  9
$PUCSBASE
  2

  9
$PUCSNAME
  2

  9
$PUCSORG
 10
0.0
 20
0.0
 30
0.0
  9
$PUCSXDIR
 10
1.0
 20
0.0
 30
0.0
  9
$PUCSYDIR
 10
0.0
 20
1.0
 30
0.0
  9
$PUCSORTHOREF
  2

  9
$PUCSORTHOVIEW
 70
     0
  9
$PUCSORGTOP
 10
0.0
 20
0.0
 30
0.0
  9
$PUCSORGBOTTOM
 10
0.0
 20
0.0
 30
0.0
  9
$PUCSORGLEFT
 10
0.0
 20
0.0
 30
0.0
  9
$PUCSORGRIGHT
 10
0.0
 20
0.0
 30
0.0
  9
$PUCSORGFRONT
 10
0.0
 20
0.0
 30
0.0
  9
$PUCSORGBACK
 10
0.0
 20
0.0
 30
0.0
  9
$USERI1
 70
     0
  9
$USERI2
 70
     0
  9
$USERI3
 70
     0
  9
$USERI4
 70
     0
  9
$USERI5
 70
     0
  9
$USERR1
 40
0.0
  9
$USERR2
 40
0.0
  9
$USERR3
 40
0.0
  9
$USERR4
 40
0.0
  9
$USERR5
 40
0.0
  9
$WORLDVIEW
 70
     1
  9
$SHADEDGE
 70
     3
  9
$SHADEDIF
 70
    70
  9
$TILEMODE
 70
     0
  9
$MAXACTVP
 70
    64
  9
$PINSBASE
 10
0.0
 20
0.0
 30
0.0
  9
$PLIMCHECK
 70
     0
  9
$PEXTMIN
 10
0.0
 20
0.0
 30
0.0
  9
$PEXTMAX
 10
841.0
 20
594.0
 30
0.0
  9
$PLIMMIN
 10
0.0
 20
0.0
  9
$PLIMMAX
 10
841.0
 20
594.0
  9
$UNITMODE
 70
     0
  9
$VISRETAIN
 70
     1
  9
$PLINEGEN
 70
     0
  9
$PSLTSCALE
 70
     1
  9
$TREEDEPTH
 70
  3020
  9
$CMLSTYLE
  2
Standard
  9
$CMLJUST
 70
     0
  9
$CMLSCALE
 40
20.0
  9
$PROXYGRAPHICS
 70
     1
  9
$MEASUREMENT
 70
     1
  9
$CELWEIGHT
370
    -1
  9
$ENDCAPS
280
     0
  9
$JOINSTYLE
280
     0
  9
$LWDISPLAY
290
     1
  9
$INSUNITS
 70
     4
  9
$HYPERLINKBASE
  1

  9
$STYLESHEET
  1

  9
$XEDIT
290
     1
  9
$CEPSNTYPE
380
     0
  9
$PSTYLEMODE
290
     1
  9
$FINGERPRINTGUID
  2
{15E2C379-03B6-41AD-8855-BB5EFF641822}
  9
$VERSIONGUID
  2
{FAEB1C32-E019-11D5-929B-00C0DF256EC4}
  9
$EXTNAMES
290
     1
  9
$PSVPSCALE
 40
0.0
  9
$OLESTARTUP
290
     0
  0
ENDSEC
  0
SECTION
  2
CLASSES
  0
CLASS
  1
ACDBDICTIONARYWDFLT
  2
AcDbDictionaryWithDefault
  3
ObjectDBX Classes
 90
        0
280
     0
281
     0
  0
CLASS
  1
VISUALSTYLE
  2
AcDbVisualStyle
  3
ObjectDBX Classes
 90
     4095
280
     0
281
     0
  0
CLASS
  1
MATERIAL
  2
AcDbMaterial
  3
ObjectDBX Classes
 90
     1153
280
     0
281
     0
  0
CLASS
  1
SCALE
  2
AcDbScale
  3
ObjectDBX Classes
 90
     1153
280
     0
281
     0
  0
CLASS
  1
TABLESTYLE
  2
AcDbTableStyle
  3
ObjectDBX Classes
 90
     4095
280
     0
281
     0
  0
CLASS
  1
MLEADERSTYLE
  2
AcDbMLeaderStyle
  3
ACDB_MLEADERSTYLE_CLASS
 90
     4095
280
     0
281
     0
  0
CLASS
  1
SUN
  2
AcDbSun
  3
SCENEOE
 90
     1153
280
     0
281
     0
  0
CLASS
  1
ACDBPLACEHOLDER
  2
AcDbPlaceHolder
  3
ObjectDBX Classes
 90
        0
280
     0
281
     0
  0
CLASS
  1
LAYOUT
  2
AcDbLayout
  3
ObjectDBX Classes
 90
        0
280
     0
281
     0
  0
ENDSEC
  0
SECTION
  2
TABLES
  0
TABLE
  2
VPORT
  5
8
330
0
100
AcDbSymbolTable
 70
     1
  0
VPORT
  5
29
330
8
100
AcDbSymbolTableRecord
100
AcDbViewportTableRecord
  2
*Active
 70
     0
 10
0.0
 20
0.0
 11
1.0
 21
1.0
 12
420.5
 22
297.0
 13
0.0
 23
0.0
 14
10.0
 24
10.0
 15
10.0
 25
10.0
 16
0.0
 26
0.0
 36
1.0
 17
0.0
 27
0.0
 37
0.0
 40
594.0
 41
1.4158249158
 42
50.0
 43
0.0
 44
0.0
 50
0.0
 51
0.0
 71
     0
 72
  2000
 73
     1
 74
     3
 75
     0
 76
     0
 77
     0
 78
     0
281
     0
 65
     1
110
0.0
120
0.0
130
0.0
111
1.0
121
0.0
131
0.0
112
0.0
122
1.0
132
0.0
 79
     0
146
0.0
  0
ENDTAB
  0
TABLE
  2
LTYPE
  5
5
330
0
100
AcDbSymbolTable
 70
     6
  0
LTYPE
  5
14
330
5
100
AcDbSymbolTableRecord
100
AcDbLinetypeTableRecord
  2
ByBlock
 70
     0
  3

 72
    65
 73
     0
 40
0.0
  0
LTYPE
  5
15
330
5
100
AcDbSymbolTableRecord
100
AcDbLinetypeTableRecord
  2
ByLayer
 70
     0
  3

 72
    65
 73
     0
 40
0.0
  0
LTYPE
  5
16
330
5
100
AcDbSymbolTableRecord
100
AcDbLinetypeTableRecord
  2
Continuous
 70
     0
  3
Solid line
 72
    65
 73
     0
 40
0.0
  0
LTYPE
  5
6E
330
5
100
AcDbSymbolTableRecord
100
AcDbLinetypeTableRecord
  2
HIDDEN
 70
     0
  3
Hidden __ __ __ __ __ __ __ __ __ __ __ __ __ __
 72
    65
 73
     2
 40
1.905
 49
1.27
 74
     0
 49
-0.635
 74
     0
  0
LTYPE
  5
6F
330
5
100
AcDbSymbolTableRecord
100
AcDbLinetypeTableRecord
  2
PHANTOM
 70
     0
  3
Phantom ______  __  __  ______  __  __  ______
 72
    65
 73
     6
 40
12.7
 49
6.35
 74
     0
 49
-1.27
 74
     0
 49
1.27
 74
     0
 49
-1.27
 74
     0
 49
1.27
 74
     0
 49
-1.27
 74
     0
  0
LTYPE
  5
70
330
5
100
AcDbSymbolTableRecord
100
AcDbLinetypeTableRecord
  2
CENTER
 70
     0
  3
Center ____ _ ____ _ ____ _ ____ _ ____ _ ____
 72
    65
 73
     4
 40
10.16
 49
6.35
 74
     0
 49
-1.27
 74
     0
 49
1.27
 74
     0
 49
-1.27
 74
     0
  0
LTYPE
  5
71
330
5
100
AcDbSymbolTableRecord
100
AcDbLinetypeTableRecord
  2
CENTERX2
 70
     0
  3
Center (2x) ________  __  ________  __  _____
 72
    65
 73
     4
 40
20.32
 49
12.7
 74
     0
 49
-2.54
 74
     0
 49
2.54
 74
     0
 49
-2.54
 74
     0
  0
LTYPE
  5
72
330
5
100
AcDbSymbolTableRecord
100
AcDbLinetypeTableRecord
  2
DOT2
 70
     0
  3
Dot (.5x) ........................................
 72
    65
 73
     2
 40
0.635
 49
0.0
 74
     0
 49
-0.635
 74
     0
  0
ENDTAB
  0
TABLE
  2
LAYER
  5
2
330
0
100
AcDbSymbolTable
 70
     2
  0
LAYER
  5
10
330
2
100
AcDbSymbolTableRecord
100
AcDbLayerTableRecord
  2
0
 70
     0
 62
     7
  6
Continuous
370
    -3
390
F
  0
LAYER
  5
73
330
2
100
AcDbSymbolTableRecord
100
AcDbLayerTableRecord
  2
FORMAT
 70
     0
 62
     7
  6
Continuous
370
    -3
390
F
  0
ENDTAB
  0
TABLE
  2
STYLE
  5
3
330
0
100
AcDbSymbolTable
 70
     5
  0
STYLE
  5
11
330
3
100
AcDbSymbolTableRecord
100
AcDbTextStyleTableRecord
  2
Standard
 70
     0
 40
0.0
 41
1.0
 50
0.0
 71
     0
 42
3.175
  3
txt
  4

  0
STYLE
  5
C9
330
3
100
AcDbSymbolTableRecord
100
AcDbTextStyleTableRecord
  2
SLDTEXTSTYLE0
 70
     0
 40
0.0
 41
0.75
 50
0.0
 71
     0
 42
3.175
  3
TXT
  4

  0
STYLE
  5
102
330
3
100
AcDbSymbolTableRecord
100
AcDbTextStyleTableRecord
  2
SLDTEXTSTYLE1
 70
     0
 40
0.0
 41
0.6864493306
 50
0.0
 71
     0
 42
3.175
  3
TXT
  4

  0
STYLE
  5
123
330
3
100
AcDbSymbolTableRecord
100
AcDbTextStyleTableRecord
  2
SLDTEXTSTYLE2
 70
     0
 40
0.0
 41
0.6875
 50
0.0
 71
     0
 42
3.175
  3
TXT
  4

  0
STYLE
  5
19A
330
3
100
AcDbSymbolTableRecord
100
AcDbTextStyleTableRecord
  2
SLDTEXTSTYLE3
 70
     0
 40
0.0
 41
0.6973684211
 50
0.0
 71
     0
 42
3.175
  3
TXT
  4

  0
ENDTAB
  0
TABLE
  2
VIEW
  5
6
330
0
100
AcDbSymbolTable
 70
     0
  0
ENDTAB
  0
TABLE
  2
UCS
  5
7
330
0
100
AcDbSymbolTable
 70
     0
  0
ENDTAB
  0
TABLE
  2
APPID
  5
9
330
0
100
AcDbSymbolTable
 70
     1
  0
APPID
  5
12
330
9
100
AcDbSymbolTableRecord
100
AcDbRegAppTableRecord
  2
ACAD
 70
     0
  0
ENDTAB
  0
TABLE
  2
DIMSTYLE
  5
A
330
0
100
AcDbSymbolTable
 70
     6
100
AcDbDimStyleTable
  0
DIMSTYLE
105
27
330
A
100
AcDbSymbolTableRecord
100
AcDbDimStyleTableRecord
  2
ISO-25
 70
     0
 41
2.5
 42
0.625
 43
3.75
 44
1.25
 73
     0
 74
     0
 77
     1
 78
     8
140
2.5
141
2.5
143
0.0393700787
147
0.625
171
     3
172
     1
178
     0
271
     2
272
     2
274
     3
278
    44
283
     0
284
     8
340
11
  0
DIMSTYLE
105
13A
102
{ACAD_REACTORS
330
139
330
145
330
150
330
15B
330
1EA
330
2B9
330
2C4
330
2CF
330
2DA
330
350
102
}
330
A
100
AcDbSymbolTableRecord
100
AcDbDimStyleTableRecord
  2
SLDDIMSTYLE0
 70
     0
 41
3.302
 44
0.0
 45
0.000000001
 78
    12
 79
     3
140
3.175
144
2.0
147
0.79375
173
     1
178
     0
271
     2
272
     2
276
     2
284
    12
340
C9
  0
DIMSTYLE
105
167
102
{ACAD_REACTORS
330
166
330
170
330
179
330
2E5
330
2EE
330
2F7
102
}
330
A
100
AcDbSymbolTableRecord
100
AcDbDimStyleTableRecord
  2
SLDDIMSTYLE1
 70
     0
 41
3.302
 44
0.0
 45
0.000000001
 78
    12
 79
     3
140
3.175
141
0.0
144
2.0
147
0.79375
173
     1
178
     0
271
     2
272
     2
276
     2
284
    12
340
C9
  0
DIMSTYLE
105
183
102
{ACAD_REACTORS
330
182
330
1C3
330
1CE
330
329
330
334
102
}
330
A
100
AcDbSymbolTableRecord
100
AcDbDimStyleTableRecord
  2
SLDDIMSTYLE2
 70
     0
 41
3.302
 44
0.0
 45
0.000000001
 78
    12
 79
     3
140
3.175
144
2.0
147
0.79375
172
     1
173
     1
178
     0
271
     2
272
     2
276
     2
284
    12
289
     0
340
C9
  0
DIMSTYLE
105
194
330
A
100
AcDbSymbolTableRecord
100
AcDbDimStyleTableRecord
  2
SLDDIMSTYLE3
 70
     0
 41
3.302
 44
0.0
 45
0.000000001
146
3.302
147
0.0
173
     1
178
     0
271
     0
272
     0
276
     2
340
11
  0
DIMSTYLE
105
19D
330
A
100
AcDbSymbolTableRecord
100
AcDbDimStyleTableRecord
  2
SLDDIMSTYLE4
 70
     0
 41
1.016
 44
0.0
 45
0.000000001
146
1.016
147
0.0
173
     1
178
     0
271
     0
272
     0
276
     2
340
11
341
19E
343
19E
344
19E
  0
ENDTAB
  0
TABLE
  2
BLOCK_RECORD
  5
1
330
0
100
AcDbSymbolTable
 70
    35
  0
BLOCK_RECORD
  5
1F
330
1
100
AcDbSymbolTableRecord
100
AcDbBlockTableRecord
  2
*Model_Space
340
22
  0
BLOCK_RECORD
  5
1B
330
1
100
AcDbSymbolTableRecord
100
AcDbBlockTableRecord
  2
*Paper_Space
340
1E
  0
BLOCK_RECORD
  5
108
330
1
100
AcDbSymbolTableRecord
100
AcDbBlockTableRecord
  2
SW_NOTE_0
340
0
102
{BLKREFS
331
111
102
}
  0
BLOCK_RECORD
  5
113
330
1
100
AcDbSymbolTableRecord
100
AcDbBlockTableRecord
  2
SW_NOTE_1
340
0
102
{BLKREFS
331
119
102
}
  0
BLOCK_RECORD
  5
13B
330
1
100
AcDbSymbolTableRecord
100
AcDbBlockTableRecord
  2
_D
340
0
  0
BLOCK_RECORD
  5
146
330
1
100
AcDbSymbolTableRecord
100
AcDbBlockTableRecord
  2
_D_1
340
0
  0
BLOCK_RECORD
  5
151
330
1
100
AcDbSymbolTableRecord
100
AcDbBlockTableRecord
  2
_D_2
340
0
  0
BLOCK_RECORD
  5
15C
330
1
100
AcDbSymbolTableRecord
100
AcDbBlockTableRecord
  2
_D_3
340
0
  0
BLOCK_RECORD
  5
168
330
1
100
AcDbSymbolTableRecord
100
AcDbBlockTableRecord
  2
_D_4
340
0
  0
BLOCK_RECORD
  5
171
330
1
100
AcDbSymbolTableRecord
100
AcDbBlockTableRecord
  2
_D_5
340
0
  0
BLOCK_RECORD
  5
17A
330
1
100
AcDbSymbolTableRecord
100
AcDbBlockTableRecord
  2
_D_6
340
0
  0
BLOCK_RECORD
  5
184
330
1
100
AcDbSymbolTableRecord
100
AcDbBlockTableRecord
  2
_D_7
340
0
  0
BLOCK_RECORD
  5
18F
330
1
100
AcDbSymbolTableRecord
100
AcDbBlockTableRecord
  2
SW_NOTE_2
340
0
102
{BLKREFS
331
193
102
}
  0
BLOCK_RECORD
  5
196
330
1
100
AcDbSymbolTableRecord
100
AcDbBlockTableRecord
  2
SW_NOTE_3
340
0
102
{BLKREFS
331
19C
102
}
  0
BLOCK_RECORD
  5
19E
330
1
100
AcDbSymbolTableRecord
100
AcDbBlockTableRecord
  2
_DOT
340
0
  0
BLOCK_RECORD
  5
1A7
330
1
100
AcDbSymbolTableRecord
100
AcDbBlockTableRecord
  2
SW_NOTE_4
340
0
102
{BLKREFS
331
1AB
102
}
  0
BLOCK_RECORD
  5
1AD
330
1
100
AcDbSymbolTableRecord
100
AcDbBlockTableRecord
  2
SW_NOTE_5
340
0
102
{BLKREFS
331
1B4
102
}
  0
BLOCK_RECORD
  5
1C4
330
1
100
AcDbSymbolTableRecord
100
AcDbBlockTableRecord
  2
_D_8
340
0
  0
BLOCK_RECORD
  5
1CF
330
1
100
AcDbSymbolTableRecord
100
AcDbBlockTableRecord
  2
_D_9
340
0
  0
BLOCK_RECORD
  5
1EB
330
1
100
AcDbSymbolTableRecord
100
AcDbBlockTableRecord
  2
_D_10
340
0
  0
BLOCK_RECORD
  5
28A
330
1
100
AcDbSymbolTableRecord
100
AcDbBlockTableRecord
  2
SW_NOTE_6
340
0
102
{BLKREFS
331
293
102
}
  0
BLOCK_RECORD
  5
295
330
1
100
AcDbSymbolTableRecord
100
AcDbBlockTableRecord
  2
SW_NOTE_7
340
0
102
{BLKREFS
331
29B
102
}
  0
BLOCK_RECORD
  5
2BA
330
1
100
AcDbSymbolTableRecord
100
AcDbBlockTableRecord
  2
_D_11
340
0
  0
BLOCK_RECORD
  5
2C5
330
1
100
AcDbSymbolTableRecord
100
AcDbBlockTableRecord
  2
_D_12
340
0
  0
BLOCK_RECORD
  5
2D0
330
1
100
AcDbSymbolTableRecord
100
AcDbBlockTableRecord
  2
_D_13
340
0
  0
BLOCK_RECORD
  5
2DB
330
1
100
AcDbSymbolTableRecord
100
AcDbBlockTableRecord
  2
_D_14
340
0
  0
BLOCK_RECORD
  5
2E6
330
1
100
AcDbSymbolTableRecord
100
AcDbBlockTableRecord
  2
_D_15
340
0
  0
BLOCK_RECORD
  5
2EF
330
1
100
AcDbSymbolTableRecord
100
AcDbBlockTableRecord
  2
_D_16
340
0
  0
BLOCK_RECORD
  5
2F8
330
1
100
AcDbSymbolTableRecord
100
AcDbBlockTableRecord
  2
_D_17
340
0
  0
BLOCK_RECORD
  5
300
330
1
100
AcDbSymbolTableRecord
100
AcDbBlockTableRecord
  2
SW_NOTE_8
340
0
102
{BLKREFS
331
304
102
}
  0
BLOCK_RECORD
  5
306
330
1
100
AcDbSymbolTableRecord
100
AcDbBlockTableRecord
  2
SW_NOTE_9
340
0
102
{BLKREFS
331
30B
102
}
  0
BLOCK_RECORD
  5
30D
330
1
100
AcDbSymbolTableRecord
100
AcDbBlockTableRecord
  2
SW_NOTE_10
340
0
102
{BLKREFS
331
311
102
}
  0
BLOCK_RECORD
  5
313
330
1
100
AcDbSymbolTableRecord
100
AcDbBlockTableRecord
  2
SW_NOTE_11
340
0
102
{BLKREFS
331
31A
102
}
  0
BLOCK_RECORD
  5
32A
330
1
100
AcDbSymbolTableRecord
100
AcDbBlockTableRecord
  2
_D_18
340
0
  0
BLOCK_RECORD
  5
335
330
1
100
AcDbSymbolTableRecord
100
AcDbBlockTableRecord
  2
_D_19
340
0
  0
BLOCK_RECORD
  5
351
330
1
100
AcDbSymbolTableRecord
100
AcDbBlockTableRecord
  2
_D_20
340
0
  0
ENDTAB
  0
ENDSEC
  0
SECTION
  2
BLOCKS
  0
BLOCK
  5
20
330
1F
100
AcDbEntity
  8
0
100
AcDbBlockBegin
  2
*Model_Space
 70
     0
 10
0.0
 20
0.0
 30
0.0
  3
*Model_Space
  1

  0
ENDBLK
  5
21
330
1F
100
AcDbEntity
  8
0
100
AcDbBlockEnd
  0
BLOCK
  5
1C
330
1B
100
AcDbEntity
 67
     1
  8
0
100
AcDbBlockBegin
  2
*Paper_Space
 70
     0
 10
0.0
 20
0.0
 30
0.0
  3
*Paper_Space
  1

  0
ENDBLK
  5
1D
330
1B
100
AcDbEntity
 67
     1
  8
0
100
AcDbBlockEnd
  0
BLOCK
  5
109
330
108
100
AcDbEntity
  8
0
100
AcDbBlockBegin
  2
SW_NOTE_0
 70
     0
 10
0.0
 20
0.0
 30
0.0
  3
SW_NOTE_0
  1

  0
MTEXT
  5
10B
330
108
100
AcDbEntity
  8
0
  6
Continuous
 62
     0
370
     0
100
AcDbMText
 10
0.0
 20
1.9336016097
 30
0.0
 40
1.5
 41
0.0
 71
     1
 72
     1
  1
UNLESS OTHERWISE SPECIFIED:
  7
SLDTEXTSTYLE0
 73
     1
 44
1.0
  0
MTEXT
  5
10C
330
108
100
AcDbEntity
  8
0
  6
Continuous
 62
     0
370
     0
100
AcDbMText
 10
0.0
 20
-0.5663983345
 30
0.0
 40
1.5
 41
0.0
 71
     1
 72
     1
  1
DIMENSIONS ARE IN MILLIMETERS
  7
SLDTEXTSTYLE0
 73
     1
 44
1.0
  0
MTEXT
  5
10D
330
108
100
AcDbEntity
  8
0
  6
Continuous
 62
     0
370
     0
100
AcDbMText
 10
0.0
 20
-3.0663982786
 30
0.0
 40
1.5
 41
0.0
 71
     1
 72
     1
  1
SURFACE FINISH:
  7
SLDTEXTSTYLE0
 73
     1
 44
1.0
  0
MTEXT
  5
10E
330
108
100
AcDbEntity
  8
0
  6
Continuous
 62
     0
370
     0
100
AcDbMText
 10
0.0
 20
-5.5663982227
 30
0.0
 40
1.5
 41
0.0
 71
     1
 72
     1
  1
TOLERANCES:
  7
SLDTEXTSTYLE0
 73
     1
 44
1.0
  0
MTEXT
  5
10F
330
108
100
AcDbEntity
  8
0
  6
Continuous
 62
     0
370
     0
100
AcDbMText
 10
1.6875
 20
-8.0663981668
 30
0.0
 40
1.5
 41
0.0
 71
     1
 72
     1
  1
LINEAR:
  7
SLDTEXTSTYLE0
 73
     1
 44
1.0
  0
MTEXT
  5
110
330
108
100
AcDbEntity
  8
0
  6
Continuous
 62
     0
370
     0
100
AcDbMText
 10
1.6875
 20
-10.5663981109
 30
0.0
 40
1.5
 41
0.0
 71
     1
 72
     1
  1
ANGULAR:
  7
SLDTEXTSTYLE0
 73
     1
 44
1.0
  0
ENDBLK
  5
10A
330
108
100
AcDbEntity
  8
0
100
AcDbBlockEnd
  0
BLOCK
  5
114
330
113
100
AcDbEntity
  8
0
100
AcDbBlockBegin
  2
SW_NOTE_1
 70
     0
 10
0.0
 20
0.0
 30
0.0
  3
SW_NOTE_1
  1

  0
MTEXT
  5
116
330
113
100
AcDbEntity
  8
0
  6
Continuous
 62
     0
370
     0
100
AcDbMText
 10
0.0
 20
1.9336016097
 30
0.0
 40
1.5
 41
0.0
 71
     1
 72
     1
  1
DEBURR AND
  7
SLDTEXTSTYLE0
 73
     1
 44
1.0
  0
MTEXT
  5
117
330
113
100
AcDbEntity
  8
0
  6
Continuous
 62
     0
370
     0
100
AcDbMText
 10
0.0
 20
-0.5663983345
 30
0.0
 40
1.5
 41
0.0
 71
     1
 72
     1
  1
BREAK SHARP
  7
SLDTEXTSTYLE0
 73
     1
 44
1.0
  0
MTEXT
  5
118
330
113
100
AcDbEntity
  8
0
  6
Continuous
 62
     0
370
     0
100
AcDbMText
 10
0.0
 20
-3.0663982786
 30
0.0
 40
1.5
 41
0.0
 71
     1
 72
     1
  1
EDGES
  7
SLDTEXTSTYLE0
 73
     1
 44
1.0
  0
ENDBLK
  5
115
330
113
100
AcDbEntity
  8
0
100
AcDbBlockEnd
  0
BLOCK
  5
13C
330
13B
100
AcDbEntity
  8
0
100
AcDbBlockBegin
  2
_D
 70
     0
 10
0.0
 20
0.0
 30
0.0
  3
_D
  1

  0
SOLID
  5
13E
330
13B
100
AcDbEntity
  8
0
  6
Continuous
 62
     7
370
     0
100
AcDbTrace
 10
117.225
 20
123.9566666667
 30
0.0
 11
117.733
 21
127.2586666667
 31
0.0
 12
116.717
 22
127.2586666667
 32
0.0
 13
116.717
 23
127.2586666667
 33
0.0
  0
SOLID
  5
13F
330
13B
100
AcDbEntity
  8
0
  6
Continuous
 62
     7
370
     0
100
AcDbTrace
 10
117.225
 20
253.9566666667
 30
0.0
 11
116.717
 21
250.6546666667
 31
0.0
 12
117.733
 22
250.6546666667
 32
0.0
 13
117.733
 23
250.6546666667
 33
0.0
  0
LINE
  5
140
330
13B
100
AcDbEntity
  8
0
  6
Continuous
 62
     7
370
     0
100
AcDbLine
 10
137.955
 20
123.9566666667
 30
0.0
 11
114.05
 21
123.9566666667
 31
0.0
  0
LINE
  5
141
330
13B
100
AcDbEntity
  8
0
  6
Continuous
 62
     7
370
     0
100
AcDbLine
 10
137.955
 20
253.9566666667
 30
0.0
 11
114.05
 21
253.9566666667
 31
0.0
  0
LINE
  5
142
330
13B
100
AcDbEntity
  8
0
  6
Continuous
 62
     7
370
     0
100
AcDbLine
 10
117.225
 20
123.9566666667
 30
0.0
 11
117.225
 21
186.9831543967
 31
0.0
  0
LINE
  5
143
330
13B
100
AcDbEntity
  8
0
  6
Continuous
 62
     7
370
     0
100
AcDbLine
 10
117.225
 20
253.9566666667
 30
0.0
 11
117.225
 21
190.9301789366
 31
0.0
  0
MTEXT
  5
144
330
13B
100
AcDbEntity
  8
0
  6
Continuous
 62
     7
370
     0
100
AcDbMText
 10
113.9358128834
 20
191.0759448197
 30
0.0
 40
3.175
 41
0.0
 71
     1
 72
     1
  1
260
  7
SLDTEXTSTYLE0
 73
     1
 44
1.0
  0
ENDBLK
  5
13D
330
13B
100
AcDbEntity
  8
0
100
AcDbBlockEnd
  0
BLOCK
  5
147
330
146
100
AcDbEntity
  8
0
100
AcDbBlockBegin
  2
_D_1
 70
     0
 10
0.0
 20
0.0
 30
0.0
  3
_D_1
  1

  0
SOLID
  5
149
330
146
100
AcDbEntity
  8
0
  6
Continuous
 62
     7
370
     0
100
AcDbTrace
 10
249.225
 20
123.9566666667
 30
0.0
 11
249.733
 21
127.2586666667
 31
0.0
 12
248.717
 22
127.2586666667
 32
0.0
 13
248.717
 23
127.2586666667
 33
0.0
  0
SOLID
  5
14A
330
146
100
AcDbEntity
  8
0
  6
Continuous
 62
     7
370
     0
100
AcDbTrace
 10
249.225
 20
223.9566666667
 30
0.0
 11
248.717
 21
220.6546666667
 31
0.0
 12
249.733
 22
220.6546666667
 32
0.0
 13
249.733
 23
220.6546666667
 33
0.0
  0
LINE
  5
14B
330
146
100
AcDbEntity
  8
0
  6
Continuous
 62
     7
370
     0
100
AcDbLine
 10
240.495
 20
123.9566666667
 30
0.0
 11
252.4
 21
123.9566666667
 31
0.0
  0
LINE
  5
14C
330
146
100
AcDbEntity
  8
0
  6
Continuous
 62
     7
370
     0
100
AcDbLine
 10
240.495
 20
223.9566666667
 30
0.0
 11
252.4
 21
223.9566666667
 31
0.0
  0
LINE
  5
14D
330
146
100
AcDbEntity
  8
0
  6
Continuous
 62
     7
370
     0
100
AcDbLine
 10
249.225
 20
123.9566666667
 30
0.0
 11
249.225
 21
171.9831543967
 31
0.0
  0
LINE
  5
14E
330
146
100
AcDbEntity
  8
0
  6
Continuous
 62
     7
370
     0
100
AcDbLine
 10
249.225
 20
223.9566666667
 30
0.0
 11
249.225
 21
175.9301789366
 31
0.0
  0
MTEXT
  5
14F
330
146
100
AcDbEntity
  8
0
  6
Continuous
 62
     7
370
     0
100
AcDbMText
 10
245.9358128834
 20
176.0759448197
 30
0.0
 40
3.175
 41
0.0
 71
     1
 72
     1
  1
200
  7
SLDTEXTSTYLE0
 73
     1
 44
1.0
  0
ENDBLK
  5
148
330
146
100
AcDbEntity
  8
0
100
AcDbBlockEnd
  0
BLOCK
  5
152
330
151
100
AcDbEntity
  8
0
100
AcDbBlockBegin
  2
_D_2
 70
     0
 10
0.0
 20
0.0
 30
0.0
  3
_D_2
  1

  0
SOLID
  5
154
330
151
100
AcDbEntity
  8
0
  6
Continuous
 62
     7
370
     0
100
AcDbTrace
 10
139.225
 20
107.9566666667
 30
0.0
 11
142.527
 21
107.4486666667
 31
0.0
 12
142.527
 22
108.4646666667
 32
0.0
 13
142.527
 23
108.4646666667
 33
0.0
  0
SOLID
  5
155
330
151
100
AcDbEntity
  8
0
  6
Continuous
 62
     7
370
     0
100
AcDbTrace
 10
239.225
 20
107.9566666667
 30
0.0
 11
235.923
 21
108.4646666667
 31
0.0
 12
235.923
 22
107.4486666667
 32
0.0
 13
235.923
 23
107.4486666667
 33
0.0
  0
LINE
  5
156
330
151
100
AcDbEntity
  8
0
  6
Continuous
 62
     7
370
     0
100
AcDbLine
 10
139.225
 20
122.6866666667
 30
0.0
 11
139.225
 21
104.7816666667
 31
0.0
  0
LINE
  5
157
330
151
100
AcDbEntity
  8
0
  6
Continuous
 62
     7
370
     0
100
AcDbLine
 10
239.225
 20
122.6866666667
 30
0.0
 11
239.225
 21
104.7816666667
 31
0.0
  0
LINE
  5
158
330
151
100
AcDbEntity
  8
0
  6
Continuous
 62
     7
370
     0
100
AcDbLine
 10
139.225
 20
107.9566666667
 30
0.0
 11
184.3483128834
 21
107.9566666667
 31
0.0
  0
LINE
  5
159
330
151
100
AcDbEntity
  8
0
  6
Continuous
 62
     7
370
     0
100
AcDbLine
 10
239.225
 20
107.9566666667
 30
0.0
 11
194.1016871166
 21
107.9566666667
 31
0.0
  0
MTEXT
  5
15A
330
151
100
AcDbEntity
  8
0
  6
Continuous
 62
     7
370
     0
100
AcDbMText
 10
185.9358128834
 20
110.0759448197
 30
0.0
 40
3.175
 41
0.0
 71
     1
 72
     1
  1
200
  7
SLDTEXTSTYLE0
 73
     1
 44
1.0
  0
ENDBLK
  5
153
330
151
100
AcDbEntity
  8
0
100
AcDbBlockEnd
  0
BLOCK
  5
15D
330
15C
100
AcDbEntity
  8
0
100
AcDbBlockBegin
  2
_D_3
 70
     0
 10
0.0
 20
0.0
 30
0.0
  3
_D_3
  1

  0
SOLID
  5
15F
330
15C
100
AcDbEntity
  8
0
  6
Continuous
 62
     7
370
     0
100
AcDbTrace
 10
211.725
 20
113.9566666667
 30
0.0
 11
215.027
 21
113.4486666667
 31
0.0
 12
215.027
 22
114.4646666667
 32
0.0
 13
215.027
 23
114.4646666667
 33
0.0
  0
SOLID
  5
160
330
15C
100
AcDbEntity
  8
0
  6
Continuous
 62
     7
370
     0
100
AcDbTrace
 10
239.225
 20
113.9566666667
 30
0.0
 11
235.923
 21
114.4646666667
 31
0.0
 12
235.923
 22
113.4486666667
 32
0.0
 13
235.923
 23
113.4486666667
 33
0.0
  0
LINE
  5
161
330
15C
100
AcDbEntity
  8
0
  6
Continuous
 62
     7
370
     0
100
AcDbLine
 10
211.725
 20
185.4386993214
 30
0.0
 11
211.725
 21
110.7816666667
 31
0.0
  0
LINE
  5
162
330
15C
100
AcDbEntity
  8
0
  6
Continuous
 62
     7
370
     0
100
AcDbLine
 10
239.225
 20
185.4386993214
 30
0.0
 11
239.225
 21
110.7816666667
 31
0.0
  0
LINE
  5
163
330
15C
100
AcDbEntity
  8
0
  6
Continuous
 62
     7
370
     0
100
AcDbLine
 10
211.725
 20
113.9566666667
 30
0.0
 11
221.9139877301
 21
113.9566666667
 31
0.0
  0
LINE
  5
164
330
15C
100
AcDbEntity
  8
0
  6
Continuous
 62
     7
370
     0
100
AcDbLine
 10
239.225
 20
113.9566666667
 30
0.0
 11
229.0360122699
 21
113.9566666667
 31
0.0
  0
MTEXT
  5
165
330
15C
100
AcDbEntity
  8
0
  6
Continuous
 62
     7
370
     0
100
AcDbMText
 10
223.5014877301
 20
116.0759448197
 30
0.0
 40
3.175
 41
0.0
 71
     1
 72
     1
  1
55
  7
SLDTEXTSTYLE0
 73
     1
 44
1.0
  0
ENDBLK
  5
15E
330
15C
100
AcDbEntity
  8
0
100
AcDbBlockEnd
  0
BLOCK
  5
169
330
168
100
AcDbEntity
  8
0
100
AcDbBlockBegin
  2
_D_4
 70
     0
 10
0.0
 20
0.0
 30
0.0
  3
_D_4
  1

  0
SOLID
  5
16B
330
168
100
AcDbEntity
  8
0
  6
Continuous
 62
     7
370
     0
100
AcDbTrace
 10
210.2992714699
 20
152.9602994864
 30
0.0
 11
212.3044894432
 21
150.2881526192
 31
0.0
 12
213.0149512542
 22
151.0144445819
 32
0.0
 13
213.0149512542
 23
151.0144445819
 33
0.0
  0
LINE
  5
16C
330
168
100
AcDbEntity
  8
0
  6
Continuous
 62
     7
370
     0
100
AcDbLine
 10
210.2992714699
 20
152.9602994864
 30
0.0
 11
250.1719635598
 21
113.9566666667
 31
0.0
  0
LINE
  5
16D
330
168
100
AcDbEntity
  8
0
  6
Continuous
 62
     7
370
     0
100
AcDbLine
 10
250.1719635598
 20
113.9566666667
 30
0.0
 11
256.5219635598
 21
113.9566666667
 31
0.0
  0
MTEXT
  5
16E
330
168
100
AcDbEntity
  8
0
  6
Continuous
 62
     7
370
     0
100
AcDbMText
 10
258.1094635598
 20
116.0759448197
 30
0.0
 40
3.175
 41
0.0
 71
     1
 72
     1
  1
R
  7
SLDTEXTSTYLE0
 73
     1
 44
1.0
  0
MTEXT
  5
16F
330
168
100
AcDbEntity
  8
0
  6
Continuous
 62
     7
370
     0
100
AcDbMText
 10
259.4251384064
 20
116.0759448197
 30
0.0
 40
3.175
 41
0.0
 71
     1
 72
     1
  1
10
  7
SLDTEXTSTYLE0
 73
     1
 44
1.0
  0
ENDBLK
  5
16A
330
168
100
AcDbEntity
  8
0
100
AcDbBlockEnd
  0
BLOCK
  5
172
330
171
100
AcDbEntity
  8
0
100
AcDbBlockBegin
  2
_D_5
 70
     0
 10
0.0
 20
0.0
 30
0.0
  3
_D_5
  1

  0
SOLID
  5
174
330
171
100
AcDbEntity
  8
0
  6
Continuous
 62
     7
370
     0
100
AcDbTrace
 10
208.1463576022
 20
222.9908412828
 30
0.0
 11
210.8588483349
 21
224.9411392152
 31
0.0
 12
210.1471985178
 22
225.6662671611
 32
0.0
 13
210.1471985178
 23
225.6662671611
 33
0.0
  0
LINE
  5
175
330
171
100
AcDbEntity
  8
0
  6
Continuous
 62
     7
370
     0
100
AcDbLine
 10
208.1463576022
 20
222.9908412828
 30
0.0
 11
250.1719635598
 21
264.2353071167
 31
0.0
  0
LINE
  5
176
330
171
100
AcDbEntity
  8
0
  6
Continuous
 62
     7
370
     0
100
AcDbLine
 10
250.1719635598
 20
264.2353071167
 30
0.0
 11
256.5219635598
 21
264.2353071167
 31
0.0
  0
MTEXT
  5
177
330
171
100
AcDbEntity
  8
0
  6
Continuous
 62
     7
370
     0
100
AcDbMText
 10
258.1094635598
 20
266.3545852698
 30
0.0
 40
3.175
 41
0.0
 71
     1
 72
     1
  1
R
  7
SLDTEXTSTYLE0
 73
     1
 44
1.0
  0
MTEXT
  5
178
330
171
100
AcDbEntity
  8
0
  6
Continuous
 62
     7
370
     0
100
AcDbMText
 10
259.4251384064
 20
266.3545852698
 30
0.0
 40
3.175
 41
0.0
 71
     1
 72
     1
  1
25
  7
SLDTEXTSTYLE0
 73
     1
 44
1.0
  0
ENDBLK
  5
173
330
171
100
AcDbEntity
  8
0
100
AcDbBlockEnd
  0
BLOCK
  5
17B
330
17A
100
AcDbEntity
  8
0
100
AcDbBlockBegin
  2
_D_6
 70
     0
 10
0.0
 20
0.0
 30
0.0
  3
_D_6
  1

  0
SOLID
  5
17D
330
17A
100
AcDbEntity
  8
0
  6
Continuous
 62
     7
370
     0
100
AcDbTrace
 10
179.9529730736
 20
235.9082203567
 30
0.0
 11
177.9497080085
 21
238.5818315998
 31
0.0
 12
177.2387157304
 22
237.8560589216
 32
0.0
 13
177.2387157304
 23
237.8560589216
 33
0.0
  0
LINE
  5
17E
330
17A
100
AcDbEntity
  8
0
  6
Continuous
 62
     7
370
     0
100
AcDbLine
 10
179.9529730736
 20
235.9082203567
 30
0.0
 11
129.2043618696
 21
285.6233333333
 31
0.0
  0
LINE
  5
17F
330
17A
100
AcDbEntity
  8
0
  6
Continuous
 62
     7
370
     0
100
AcDbLine
 10
129.2043618696
 20
285.6233333333
 30
0.0
 11
122.8543618696
 21
285.6233333333
 31
0.0
  0
MTEXT
  5
180
330
17A
100
AcDbEntity
  8
0
  6
Continuous
 62
     7
370
     0
100
AcDbMText
 10
118.6355121764
 20
287.7426114864
 30
0.0
 40
3.175
 41
0.0
 71
     1
 72
     1
  1
R
  7
SLDTEXTSTYLE0
 73
     1
 44
1.0
  0
MTEXT
  5
181
330
17A
100
AcDbEntity
  8
0
  6
Continuous
 62
     7
370
     0
100
AcDbMText
 10
119.951187023
 20
287.7426114864
 30
0.0
 40
3.175
 41
0.0
 71
     1
 72
     1
  1
5
  7
SLDTEXTSTYLE0
 73
     1
 44
1.0
  0
ENDBLK
  5
17C
330
17A
100
AcDbEntity
  8
0
100
AcDbBlockEnd
  0
BLOCK
  5
185
330
184
100
AcDbEntity
  8
0
100
AcDbBlockBegin
  2
_D_7
 70
     0
 10
0.0
 20
0.0
 30
0.0
  3
_D_7
  1

  0
SOLID
  5
187
330
184
100
AcDbEntity
  8
0
  6
Continuous
 62
     7
370
     0
100
AcDbTrace
 10
129.225
 20
246.9566666667
 30
0.0
 11
128.717
 21
243.6546666667
 31
0.0
 12
129.733
 22
243.6546666667
 32
0.0
 13
129.733
 23
243.6546666667
 33
0.0
  0
SOLID
  5
188
330
184
100
AcDbEntity
  8
0
  6
Continuous
 62
     7
370
     0
100
AcDbTrace
 10
129.225
 20
260.9566666667
 30
0.0
 11
129.733
 21
264.2586666667
 31
0.0
 12
128.717
 22
264.2586666667
 32
0.0
 13
128.717
 23
264.2586666667
 33
0.0
  0
LINE
  5
189
330
184
100
AcDbEntity
  8
0
  6
Continuous
 62
     7
370
     0
100
AcDbLine
 10
159.6216666667
 20
246.9566666667
 30
0.0
 11
126.05
 21
246.9566666667
 31
0.0
  0
LINE
  5
18A
330
184
100
AcDbEntity
  8
0
  6
Continuous
 62
     7
370
     0
100
AcDbLine
 10
159.6216666667
 20
260.9566666667
 30
0.0
 11
126.05
 21
260.9566666667
 31
0.0
  0
LINE
  5
18B
330
184
100
AcDbEntity
  8
0
  6
Continuous
 62
     7
370
     0
100
AcDbLine
 10
129.225
 20
246.9566666667
 30
0.0
 11
129.225
 21
240.6066666667
 31
0.0
  0
LINE
  5
18C
330
184
100
AcDbEntity
  8
0
  6
Continuous
 62
     7
370
     0
100
AcDbLine
 10
129.225
 20
260.9566666667
 30
0.0
 11
129.225
 21
267.3066666667
 31
0.0
  0
MTEXT
  5
18D
330
184
100
AcDbEntity
  8
0
  6
Continuous
 62
     7
370
     0
100
AcDbMText
 10
125.2779754601
 20
256.0759444123
 30
0.0
 40
3.175
 41
0.0
 71
     1
 72
     1
  1
%%c
  7
SLDTEXTSTYLE0
 73
     1
 44
1.0
  0
MTEXT
  5
18E
330
184
100
AcDbEntity
  8
0
  6
Continuous
 62
     7
370
     0
100
AcDbMText
 10
129.225
 20
256.0759448197
 30
0.0
 40
3.175
 41
0.0
 71
     1
 72
     1
  1
28
  7
SLDTEXTSTYLE0
 73
     1
 44
1.0
  0
ENDBLK
  5
186
330
184
100
AcDbEntity
  8
0
100
AcDbBlockEnd
  0
BLOCK
  5
190
330
18F
100
AcDbEntity
  8
0
100
AcDbBlockBegin
  2
SW_NOTE_2
 70
     0
 10
0.0
 20
0.0
 30
0.0
  3
SW_NOTE_2
  1

  0
MTEXT
  5
192
330
18F
100
AcDbEntity
  8
0
  6
Continuous
 62
     0
370
     0
100
AcDbMText
 10
-19.6108867432
 20
1.7388173757
 30
0.0
 40
3.175
 41
0.0
 71
     1
 72
     1
  1
use scrap
  7
SLDTEXTSTYLE0
 73
     1
 44
1.0
  0
ENDBLK
  5
191
330
18F
100
AcDbEntity
  8
0
100
AcDbBlockEnd
  0
BLOCK
  5
197
330
196
100
AcDbEntity
  8
0
100
AcDbBlockBegin
  2
SW_NOTE_3
 70
     0
 10
0.0
 20
0.0
 30
0.0
  3
SW_NOTE_3
  1

  0
MTEXT
  5
199
330
196
100
AcDbEntity
  8
0
  6
Continuous
 62
     0
370
     0
100
AcDbMText
 10
0.5384515373
 20
3.2514615016
 30
0.0
 40
6.35
 41
0.0
 71
     1
 72
     1
  1
does not have to
  7
SLDTEXTSTYLE0
 73
     1
 44
1.0
  0
MTEXT
  5
19B
330
196
100
AcDbEntity
  8
0
  6
Continuous
 62
     0
370
     0
100
AcDbMText
 10
0.5384515373
 20
-4.8624275221
 30
0.0
 40
6.35
 41
0.0
 71
     1
 72
     1
  1
be flat - use scrap
  7
SLDTEXTSTYLE3
 73
     1
 44
1.0
  0
ENDBLK
  5
198
330
196
100
AcDbEntity
  8
0
100
AcDbBlockEnd
  0
BLOCK
  5
19F
330
19E
100
AcDbEntity
  8
0
100
AcDbBlockBegin
  2
_DOT
 70
     0
 10
0.0
 20
0.0
 30
0.0
  3
_DOT
  1

  0
POLYLINE
  5
1A1
330
19E
100
AcDbEntity
  8
0
  6
ByBlock
 62
     0
100
AcDb2dPolyline
 66
     1
 10
0.0
 20
0.0
 30
0.0
 70
     1
 40
0.5
 41
0.5
  0
VERTEX
  5
1A3
330
1A1
100
AcDbEntity
  8
0
  6
ByBlock
 62
     0
100
AcDbVertex
100
AcDb2dVertex
 10
-0.25
 20
0.0
 30
0.0
 42
1.0
  0
VERTEX
  5
1A4
330
1A1
100
AcDbEntity
  8
0
  6
ByBlock
 62
     0
100
AcDbVertex
100
AcDb2dVertex
 10
0.25
 20
0.0
 30
0.0
 42
1.0
  0
SEQEND
  5
1A5
330
1A1
100
AcDbEntity
  8
0
  6
ByBlock
 62
     0
  0
LINE
  5
1A2
330
19E
100
AcDbEntity
  8
0
  6
ByBlock
 62
     0
370
    -2
100
AcDbLine
 10
-0.5
 20
0.0
 30
0.0
 11
-1.0
 21
0.0
 31
0.0
  0
ENDBLK
  5
1A0
330
19E
100
AcDbEntity
  8
0
100
AcDbBlockEnd
  0
BLOCK
  5
1A8
330
1A7
100
AcDbEntity
  8
0
100
AcDbBlockBegin
  2
SW_NOTE_4
 70
     0
 10
0.0
 20
0.0
 30
0.0
  3
SW_NOTE_4
  1

  0
MTEXT
  5
1AA
330
1A7
100
AcDbEntity
  8
0
  6
Continuous
 62
     0
370
     0
100
AcDbMText
 10
0.5425910952
 20
1.7096706067
 30
0.0
 40
3.175
 41
0.0
 71
     1
 72
     1
  1
flame cut outside
  7
SLDTEXTSTYLE0
 73
     1
 44
1.0
  0
ENDBLK
  5
1A9
330
1A7
100
AcDbEntity
  8
0
100
AcDbBlockEnd
  0
BLOCK
  5
1AE
330
1AD
100
AcDbEntity
  8
0
100
AcDbBlockBegin
  2
SW_NOTE_5
 70
     0
 10
0.0
 20
0.0
 30
0.0
  3
SW_NOTE_5
  1

  0
MTEXT
  5
1B0
330
1AD
100
AcDbEntity
  8
0
  6
Continuous
 62
     0
370
     0
100
AcDbMText
 10
0.5108269713
 20
1.5655131678
 30
0.0
 40
3.175
 41
0.0
 71
     1
 72
     1
  1
flame cut
  7
SLDTEXTSTYLE0
 73
     1
 44
1.0
  0
MTEXT
  5
1B1
330
1AD
100
AcDbEntity
  8
0
  6
Continuous
 62
     0
370
     0
100
AcDbMText
 10
0.5108269713
 20
-2.6094867249
 30
0.0
 40
3.175
 41
0.0
 71
     1
 72
     1
  1
outside
  7
SLDTEXTSTYLE0
 73
     1
 44
1.0
  0
MTEXT
  5
1B2
330
1AD
100
AcDbEntity
  8
0
  6
Continuous
 62
     0
370
     0
100
AcDbMText
 10
0.5108269713
 20
-6.7844866176
 30
0.0
 40
3.175
 41
0.0
 71
     1
 72
     1
  1
nominal
  7
SLDTEXTSTYLE0
 73
     1
 44
1.0
  0
MTEXT
  5
1B3
330
1AD
100
AcDbEntity
  8
0
  6
Continuous
 62
     0
370
     0
100
AcDbMText
 10
0.5108269713
 20
-10.9594865103
 30
0.0
 40
3.175
 41
0.0
 71
     1
 72
     1
  1
dimensions
  7
SLDTEXTSTYLE0
 73
     1
 44
1.0
  0
ENDBLK
  5
1AF
330
1AD
100
AcDbEntity
  8
0
100
AcDbBlockEnd
  0
BLOCK
  5
1C5
330
1C4
100
AcDbEntity
  8
0
100
AcDbBlockBegin
  2
_D_8
 70
     0
 10
0.0
 20
0.0
 30
0.0
  3
_D_8
  1

  0
SOLID
  5
1C7
330
1C4
100
AcDbEntity
  8
0
  6
Continuous
 62
     7
370
     0
100
AcDbTrace
 10
129.225
 20
450.64
 30
0.0
 11
129.733
 21
453.942
 31
0.0
 12
128.717
 22
453.942
 32
0.0
 13
128.717
 23
453.942
 33
0.0
  0
SOLID
  5
1C8
330
1C4
100
AcDbEntity
  8
0
  6
Continuous
 62
     7
370
     0
100
AcDbTrace
 10
129.225
 20
434.14
 30
0.0
 11
128.717
 21
430.838
 31
0.0
 12
129.733
 22
430.838
 32
0.0
 13
129.733
 23
430.838
 33
0.0
  0
LINE
  5
1C9
330
1C4
100
AcDbEntity
  8
0
  6
Continuous
 62
     7
370
     0
100
AcDbLine
 10
175.8716666667
 20
450.64
 30
0.0
 11
126.05
 21
450.64
 31
0.0
  0
LINE
  5
1CA
330
1C4
100
AcDbEntity
  8
0
  6
Continuous
 62
     7
370
     0
100
AcDbLine
 10
175.8716666667
 20
434.14
 30
0.0
 11
126.05
 21
434.14
 31
0.0
  0
LINE
  5
1CB
330
1C4
100
AcDbEntity
  8
0
  6
Continuous
 62
     7
370
     0
100
AcDbLine
 10
129.225
 20
450.64
 30
0.0
 11
129.225
 21
456.99
 31
0.0
  0
LINE
  5
1CC
330
1C4
100
AcDbEntity
  8
0
  6
Continuous
 62
     7
370
     0
100
AcDbLine
 10
129.225
 20
434.14
 30
0.0
 11
129.225
 21
427.79
 31
0.0
  0
MTEXT
  5
1CD
330
1C4
100
AcDbEntity
  8
0
  6
Continuous
 62
     7
370
     0
100
AcDbMText
 10
127.2514877301
 20
444.5092781531
 30
0.0
 40
3.175
 41
0.0
 71
     1
 72
     1
  1
33
  7
SLDTEXTSTYLE0
 73
     1
 44
1.0
  0
ENDBLK
  5
1C6
330
1C4
100
AcDbEntity
  8
0
100
AcDbBlockEnd
  0
BLOCK
  5
1D0
330
1CF
100
AcDbEntity
  8
0
100
AcDbBlockBegin
  2
_D_9
 70
     0
 10
0.0
 20
0.0
 30
0.0
  3
_D_9
  1

  0
SOLID
  5
1D2
330
1CF
100
AcDbEntity
  8
0
  6
Continuous
 62
     7
370
     0
100
AcDbTrace
 10
249.225
 20
434.14
 30
0.0
 11
249.733
 21
437.442
 31
0.0
 12
248.717
 22
437.442
 32
0.0
 13
248.717
 23
437.442
 33
0.0
  0
SOLID
  5
1D3
330
1CF
100
AcDbEntity
  8
0
  6
Continuous
 62
     7
370
     0
100
AcDbTrace
 10
249.225
 20
424.14
 30
0.0
 11
248.717
 21
420.838
 31
0.0
 12
249.733
 22
420.838
 32
0.0
 13
249.733
 23
420.838
 33
0.0
  0
LINE
  5
1D4
330
1CF
100
AcDbEntity
  8
0
  6
Continuous
 62
     7
370
     0
100
AcDbLine
 10
240.495
 20
434.14
 30
0.0
 11
252.4
 21
434.14
 31
0.0
  0
LINE
  5
1D5
330
1CF
100
AcDbEntity
  8
0
  6
Continuous
 62
     7
370
     0
100
AcDbLine
 10
240.495
 20
424.14
 30
0.0
 11
252.4
 21
424.14
 31
0.0
  0
LINE
  5
1D6
330
1CF
100
AcDbEntity
  8
0
  6
Continuous
 62
     7
370
     0
100
AcDbLine
 10
249.225
 20
434.14
 30
0.0
 11
249.225
 21
440.49
 31
0.0
  0
LINE
  5
1D7
330
1CF
100
AcDbEntity
  8
0
  6
Continuous
 62
     7
370
     0
100
AcDbLine
 10
249.225
 20
424.14
 30
0.0
 11
249.225
 21
417.79
 31
0.0
  0
MTEXT
  5
1D8
330
1CF
100
AcDbEntity
  8
0
  6
Continuous
 62
     7
370
     0
100
AcDbMText
 10
247.2514877301
 20
431.2592781531
 30
0.0
 40
3.175
 41
0.0
 71
     1
 72
     1
  1
20
  7
SLDTEXTSTYLE0
 73
     1
 44
1.0
  0
ENDBLK
  5
1D1
330
1CF
100
AcDbEntity
  8
0
100
AcDbBlockEnd
  0
BLOCK
  5
1EC
330
1EB
100
AcDbEntity
  8
0
100
AcDbBlockBegin
  2
_D_10
 70
     0
 10
0.0
 20
0.0
 30
0.0
  3
_D_10
  1

  0
SOLID
  5
1EE
330
1EB
100
AcDbEntity
  8
0
  6
Continuous
 62
     7
370
     0
100
AcDbTrace
 10
506.825
 20
270.2066666667
 30
0.0
 11
506.317
 21
266.9046666667
 31
0.0
 12
507.333
 22
266.9046666667
 32
0.0
 13
507.333
 23
266.9046666667
 33
0.0
  0
SOLID
  5
1EF
330
1EB
100
AcDbEntity
  8
0
  6
Continuous
 62
     7
370
     0
100
AcDbTrace
 10
506.825
 20
237.7066666667
 30
0.0
 11
507.333
 21
241.0086666667
 31
0.0
 12
506.317
 22
241.0086666667
 32
0.0
 13
506.317
 23
241.0086666667
 33
0.0
  0
LINE
  5
1F0
330
1EB
100
AcDbEntity
  8
0
  6
Continuous
 62
     7
370
     0
100
AcDbLine
 10
498.095
 20
270.2066666667
 30
0.0
 11
510.0
 21
270.2066666667
 31
0.0
  0
LINE
  5
1F1
330
1EB
100
AcDbEntity
  8
0
  6
Continuous
 62
     7
370
     0
100
AcDbLine
 10
498.095
 20
237.7066666667
 30
0.0
 11
510.0
 21
237.7066666667
 31
0.0
  0
LINE
  5
1F2
330
1EB
100
AcDbEntity
  8
0
  6
Continuous
 62
     7
370
     0
100
AcDbLine
 10
506.825
 20
270.2066666667
 30
0.0
 11
506.825
 21
255.9301789366
 31
0.0
  0
LINE
  5
1F3
330
1EB
100
AcDbEntity
  8
0
  6
Continuous
 62
     7
370
     0
100
AcDbLine
 10
506.825
 20
237.7066666667
 30
0.0
 11
506.825
 21
251.9831543967
 31
0.0
  0
MTEXT
  5
1F4
330
1EB
100
AcDbEntity
  8
0
  6
Continuous
 62
     7
370
     0
100
AcDbMText
 10
502.8779754601
 20
256.0759444123
 30
0.0
 40
3.175
 41
0.0
 71
     1
 72
     1
  1
%%c
  7
SLDTEXTSTYLE0
 73
     1
 44
1.0
  0
MTEXT
  5
1F5
330
1EB
100
AcDbEntity
  8
0
  6
Continuous
 62
     7
370
     0
100
AcDbMText
 10
506.825
 20
256.0759448198
 30
0.0
 40
3.175
 41
0.0
 71
     1
 72
     1
  1
65
  7
SLDTEXTSTYLE0
 73
     1
 44
1.0
  0
ENDBLK
  5
1ED
330
1EB
100
AcDbEntity
  8
0
100
AcDbBlockEnd
  0
BLOCK
  5
28B
330
28A
100
AcDbEntity
  8
0
100
AcDbBlockBegin
  2
SW_NOTE_6
 70
     0
 10
0.0
 20
0.0
 30
0.0
  3
SW_NOTE_6
  1

  0
MTEXT
  5
28D
330
28A
100
AcDbEntity
  8
0
  6
Continuous
 62
     0
370
     0
100
AcDbMText
 10
0.0
 20
1.9336016097
 30
0.0
 40
1.5
 41
0.0
 71
     1
 72
     1
  1
UNLESS OTHERWISE SPECIFIED:
  7
SLDTEXTSTYLE0
 73
     1
 44
1.0
  0
MTEXT
  5
28E
330
28A
100
AcDbEntity
  8
0
  6
Continuous
 62
     0
370
     0
100
AcDbMText
 10
0.0
 20
-0.5663983345
 30
0.0
 40
1.5
 41
0.0
 71
     1
 72
     1
  1
DIMENSIONS ARE IN MILLIMETERS
  7
SLDTEXTSTYLE0
 73
     1
 44
1.0
  0
MTEXT
  5
28F
330
28A
100
AcDbEntity
  8
0
  6
Continuous
 62
     0
370
     0
100
AcDbMText
 10
0.0
 20
-3.0663982786
 30
0.0
 40
1.5
 41
0.0
 71
     1
 72
     1
  1
SURFACE FINISH:
  7
SLDTEXTSTYLE0
 73
     1
 44
1.0
  0
MTEXT
  5
290
330
28A
100
AcDbEntity
  8
0
  6
Continuous
 62
     0
370
     0
100
AcDbMText
 10
0.0
 20
-5.5663982227
 30
0.0
 40
1.5
 41
0.0
 71
     1
 72
     1
  1
TOLERANCES:
  7
SLDTEXTSTYLE0
 73
     1
 44
1.0
  0
MTEXT
  5
291
330
28A
100
AcDbEntity
  8
0
  6
Continuous
 62
     0
370
     0
100
AcDbMText
 10
1.6875
 20
-8.0663981668
 30
0.0
 40
1.5
 41
0.0
 71
     1
 72
     1
  1
LINEAR:
  7
SLDTEXTSTYLE0
 73
     1
 44
1.0
  0
MTEXT
  5
292
330
28A
100
AcDbEntity
  8
0
  6
Continuous
 62
     0
370
     0
100
AcDbMText
 10
1.6875
 20
-10.5663981109
 30
0.0
 40
1.5
 41
0.0
 71
     1
 72
     1
  1
ANGULAR:
  7
SLDTEXTSTYLE0
 73
     1
 44
1.0
  0
ENDBLK
  5
28C
330
28A
100
AcDbEntity
  8
0
100
AcDbBlockEnd
  0
BLOCK
  5
296
330
295
100
AcDbEntity
  8
0
100
AcDbBlockBegin
  2
SW_NOTE_7
 70
     0
 10
0.0
 20
0.0
 30
0.0
  3
SW_NOTE_7
  1

  0
MTEXT
  5
298
330
295
100
AcDbEntity
  8
0
  6
Continuous
 62
     0
370
     0
100
AcDbMText
 10
0.0
 20
1.9336016097
 30
0.0
 40
1.5
 41
0.0
 71
     1
 72
     1
  1
DEBURR AND
  7
SLDTEXTSTYLE0
 73
     1
 44
1.0
  0
MTEXT
  5
299
330
295
100
AcDbEntity
  8
0
  6
Continuous
 62
     0
370
     0
100
AcDbMText
 10
0.0
 20
-0.5663983345
 30
0.0
 40
1.5
 41
0.0
 71
     1
 72
     1
  1
BREAK SHARP
  7
SLDTEXTSTYLE0
 73
     1
 44
1.0
  0
MTEXT
  5
29A
330
295
100
AcDbEntity
  8
0
  6
Continuous
 62
     0
370
     0
100
AcDbMText
 10
0.0
 20
-3.0663982786
 30
0.0
 40
1.5
 41
0.0
 71
     1
 72
     1
  1
EDGES
  7
SLDTEXTSTYLE0
 73
     1
 44
1.0
  0
ENDBLK
  5
297
330
295
100
AcDbEntity
  8
0
100
AcDbBlockEnd
  0
BLOCK
  5
2BB
330
2BA
100
AcDbEntity
  8
0
100
AcDbBlockBegin
  2
_D_11
 70
     0
 10
0.0
 20
0.0
 30
0.0
  3
_D_11
  1

  0
SOLID
  5
2BD
330
2BA
100
AcDbEntity
  8
0
  6
Continuous
 62
     7
370
     0
100
AcDbTrace
 10
129.225
 20
123.9566666667
 30
0.0
 11
129.733
 21
127.2586666667
 31
0.0
 12
128.717
 22
127.2586666667
 32
0.0
 13
128.717
 23
127.2586666667
 33
0.0
  0
SOLID
  5
2BE
330
2BA
100
AcDbEntity
  8
0
  6
Continuous
 62
     7
370
     0
100
AcDbTrace
 10
129.225
 20
253.9566666667
 30
0.0
 11
128.717
 21
250.6546666667
 31
0.0
 12
129.733
 22
250.6546666667
 32
0.0
 13
129.733
 23
250.6546666667
 33
0.0
  0
LINE
  5
2BF
330
2BA
100
AcDbEntity
  8
0
  6
Continuous
 62
     7
370
     0
100
AcDbLine
 10
137.955
 20
123.9566666667
 30
0.0
 11
126.05
 21
123.9566666667
 31
0.0
  0
LINE
  5
2C0
330
2BA
100
AcDbEntity
  8
0
  6
Continuous
 62
     7
370
     0
100
AcDbLine
 10
137.955
 20
253.9566666667
 30
0.0
 11
126.05
 21
253.9566666667
 31
0.0
  0
LINE
  5
2C1
330
2BA
100
AcDbEntity
  8
0
  6
Continuous
 62
     7
370
     0
100
AcDbLine
 10
129.225
 20
123.9566666667
 30
0.0
 11
129.225
 21
186.4371493354
 31
0.0
  0
LINE
  5
2C2
330
2BA
100
AcDbEntity
  8
0
  6
Continuous
 62
     7
370
     0
100
AcDbLine
 10
129.225
 20
253.9566666667
 30
0.0
 11
129.225
 21
191.476183998
 31
0.0
  0
MTEXT
  5
2C3
330
2BA
100
AcDbEntity
  8
0
  6
Continuous
 62
     7
370
     0
100
AcDbMText
 10
125.7121481595
 20
190.5299397584
 30
0.0
 40
3.175
 41
0.0
 71
     1
 72
     1
  1
260
  7
SLDTEXTSTYLE0
 73
     1
 44
1.0
  0
ENDBLK
  5
2BC
330
2BA
100
AcDbEntity
  8
0
100
AcDbBlockEnd
  0
BLOCK
  5
2C6
330
2C5
100
AcDbEntity
  8
0
100
AcDbBlockBegin
  2
_D_12
 70
     0
 10
0.0
 20
0.0
 30
0.0
  3
_D_12
  1

  0
SOLID
  5
2C8
330
2C5
100
AcDbEntity
  8
0
  6
Continuous
 62
     7
370
     0
100
AcDbTrace
 10
249.225
 20
123.9566666667
 30
0.0
 11
249.733
 21
127.2586666667
 31
0.0
 12
248.717
 22
127.2586666667
 32
0.0
 13
248.717
 23
127.2586666667
 33
0.0
  0
SOLID
  5
2C9
330
2C5
100
AcDbEntity
  8
0
  6
Continuous
 62
     7
370
     0
100
AcDbTrace
 10
249.225
 20
223.9566666667
 30
0.0
 11
248.717
 21
220.6546666667
 31
0.0
 12
249.733
 22
220.6546666667
 32
0.0
 13
249.733
 23
220.6546666667
 33
0.0
  0
LINE
  5
2CA
330
2C5
100
AcDbEntity
  8
0
  6
Continuous
 62
     7
370
     0
100
AcDbLine
 10
240.495
 20
123.9566666667
 30
0.0
 11
252.4
 21
123.9566666667
 31
0.0
  0
LINE
  5
2CB
330
2C5
100
AcDbEntity
  8
0
  6
Continuous
 62
     7
370
     0
100
AcDbLine
 10
240.495
 20
223.9566666667
 30
0.0
 11
252.4
 21
223.9566666667
 31
0.0
  0
LINE
  5
2CC
330
2C5
100
AcDbEntity
  8
0
  6
Continuous
 62
     7
370
     0
100
AcDbLine
 10
249.225
 20
123.9566666667
 30
0.0
 11
249.225
 21
171.4371493354
 31
0.0
  0
LINE
  5
2CD
330
2C5
100
AcDbEntity
  8
0
  6
Continuous
 62
     7
370
     0
100
AcDbLine
 10
249.225
 20
223.9566666667
 30
0.0
 11
249.225
 21
176.476183998
 31
0.0
  0
MTEXT
  5
2CE
330
2C5
100
AcDbEntity
  8
0
  6
Continuous
 62
     7
370
     0
100
AcDbMText
 10
245.7121481595
 20
175.5299397584
 30
0.0
 40
3.175
 41
0.0
 71
     1
 72
     1
  1
200
  7
SLDTEXTSTYLE0
 73
     1
 44
1.0
  0
ENDBLK
  5
2C7
330
2C5
100
AcDbEntity
  8
0
100
AcDbBlockEnd
  0
BLOCK
  5
2D1
330
2D0
100
AcDbEntity
  8
0
100
AcDbBlockBegin
  2
_D_13
 70
     0
 10
0.0
 20
0.0
 30
0.0
  3
_D_13
  1

  0
SOLID
  5
2D3
330
2D0
100
AcDbEntity
  8
0
  6
Continuous
 62
     7
370
     0
100
AcDbTrace
 10
139.225
 20
107.9566666667
 30
0.0
 11
142.527
 21
107.4486666667
 31
0.0
 12
142.527
 22
108.4646666667
 32
0.0
 13
142.527
 23
108.4646666667
 33
0.0
  0
SOLID
  5
2D4
330
2D0
100
AcDbEntity
  8
0
  6
Continuous
 62
     7
370
     0
100
AcDbTrace
 10
239.225
 20
107.9566666667
 30
0.0
 11
235.923
 21
108.4646666667
 31
0.0
 12
235.923
 22
107.4486666667
 32
0.0
 13
235.923
 23
107.4486666667
 33
0.0
  0
LINE
  5
2D5
330
2D0
100
AcDbEntity
  8
0
  6
Continuous
 62
     7
370
     0
100
AcDbLine
 10
139.225
 20
122.6866666667
 30
0.0
 11
139.225
 21
104.7816666667
 31
0.0
  0
LINE
  5
2D6
330
2D0
100
AcDbEntity
  8
0
  6
Continuous
 62
     7
370
     0
100
AcDbLine
 10
239.225
 20
122.6866666667
 30
0.0
 11
239.225
 21
104.7816666667
 31
0.0
  0
LINE
  5
2D7
330
2D0
100
AcDbEntity
  8
0
  6
Continuous
 62
     7
370
     0
100
AcDbLine
 10
139.225
 20
107.9566666667
 30
0.0
 11
184.1246481595
 21
107.9566666667
 31
0.0
  0
LINE
  5
2D8
330
2D0
100
AcDbEntity
  8
0
  6
Continuous
 62
     7
370
     0
100
AcDbLine
 10
239.225
 20
107.9566666667
 30
0.0
 11
194.3253518405
 21
107.9566666667
 31
0.0
  0
MTEXT
  5
2D9
330
2D0
100
AcDbEntity
  8
0
  6
Continuous
 62
     7
370
     0
100
AcDbMText
 10
185.7121481595
 20
109.5299397584
 30
0.0
 40
3.175
 41
0.0
 71
     1
 72
     1
  1
200
  7
SLDTEXTSTYLE0
 73
     1
 44
1.0
  0
ENDBLK
  5
2D2
330
2D0
100
AcDbEntity
  8
0
100
AcDbBlockEnd
  0
BLOCK
  5
2DC
330
2DB
100
AcDbEntity
  8
0
100
AcDbBlockBegin
  2
_D_14
 70
     0
 10
0.0
 20
0.0
 30
0.0
  3
_D_14
  1

  0
SOLID
  5
2DE
330
2DB
100
AcDbEntity
  8
0
  6
Continuous
 62
     7
370
     0
100
AcDbTrace
 10
211.725
 20
113.9566666667
 30
0.0
 11
215.027
 21
113.4486666667
 31
0.0
 12
215.027
 22
114.4646666667
 32
0.0
 13
215.027
 23
114.4646666667
 33
0.0
  0
SOLID
  5
2DF
330
2DB
100
AcDbEntity
  8
0
  6
Continuous
 62
     7
370
     0
100
AcDbTrace
 10
239.225
 20
113.9566666667
 30
0.0
 11
235.923
 21
114.4646666667
 31
0.0
 12
235.923
 22
113.4486666667
 32
0.0
 13
235.923
 23
113.4486666667
 33
0.0
  0
LINE
  5
2E0
330
2DB
100
AcDbEntity
  8
0
  6
Continuous
 62
     7
370
     0
100
AcDbLine
 10
211.725
 20
185.4386993214
 30
0.0
 11
211.725
 21
110.7816666667
 31
0.0
  0
LINE
  5
2E1
330
2DB
100
AcDbEntity
  8
0
  6
Continuous
 62
     7
370
     0
100
AcDbLine
 10
239.225
 20
185.4386993214
 30
0.0
 11
239.225
 21
110.7816666667
 31
0.0
  0
LINE
  5
2E2
330
2DB
100
AcDbEntity
  8
0
  6
Continuous
 62
     7
370
     0
100
AcDbLine
 10
211.725
 20
113.9566666667
 30
0.0
 11
221.545598773
 21
113.9566666667
 31
0.0
  0
LINE
  5
2E3
330
2DB
100
AcDbEntity
  8
0
  6
Continuous
 62
     7
370
     0
100
AcDbLine
 10
239.225
 20
113.9566666667
 30
0.0
 11
229.404401227
 21
113.9566666667
 31
0.0
  0
MTEXT
  5
2E4
330
2DB
100
AcDbEntity
  8
0
  6
Continuous
 62
     7
370
     0
100
AcDbMText
 10
223.133098773
 20
115.5299397584
 30
0.0
 40
3.175
 41
0.0
 71
     1
 72
     1
  1
55
  7
SLDTEXTSTYLE0
 73
     1
 44
1.0
  0
ENDBLK
  5
2DD
330
2DB
100
AcDbEntity
  8
0
100
AcDbBlockEnd
  0
BLOCK
  5
2E7
330
2E6
100
AcDbEntity
  8
0
100
AcDbBlockBegin
  2
_D_15
 70
     0
 10
0.0
 20
0.0
 30
0.0
  3
_D_15
  1

  0
SOLID
  5
2E9
330
2E6
100
AcDbEntity
  8
0
  6
Continuous
 62
     7
370
     0
100
AcDbTrace
 10
210.2586035495
 20
152.9192034577
 30
0.0
 11
212.2327890716
 21
150.2240486338
 31
0.0
 12
212.9516015956
 22
150.9420768751
 32
0.0
 13
212.9516015956
 23
150.9420768751
 33
0.0
  0
LINE
  5
2EA
330
2E6
100
AcDbEntity
  8
0
  6
Continuous
 62
     7
370
     0
100
AcDbLine
 10
210.2586035495
 20
152.9192034577
 30
0.0
 11
249.1786290506
 21
113.9566666667
 31
0.0
  0
LINE
  5
2EB
330
2E6
100
AcDbEntity
  8
0
  6
Continuous
 62
     7
370
     0
100
AcDbLine
 10
249.1786290506
 20
113.9566666667
 30
0.0
 11
255.5286290506
 21
113.9566666667
 31
0.0
  0
MTEXT
  5
2EC
330
2E6
100
AcDbEntity
  8
0
  6
Continuous
 62
     7
370
     0
100
AcDbMText
 10
257.1161290506
 20
115.5299397584
 30
0.0
 40
3.175
 41
0.0
 71
     1
 72
     1
  1
R
  7
SLDTEXTSTYLE0
 73
     1
 44
1.0
  0
MTEXT
  5
2ED
330
2E6
100
AcDbEntity
  8
0
  6
Continuous
 62
     7
370
     0
100
AcDbMText
 10
259.6816950015
 20
115.5299397584
 30
0.0
 40
3.175
 41
0.0
 71
     1
 72
     1
  1
10
  7
SLDTEXTSTYLE0
 73
     1
 44
1.0
  0
ENDBLK
  5
2E8
330
2E6
100
AcDbEntity
  8
0
100
AcDbBlockEnd
  0
BLOCK
  5
2F0
330
2EF
100
AcDbEntity
  8
0
100
AcDbBlockBegin
  2
_D_16
 70
     0
 10
0.0
 20
0.0
 30
0.0
  3
_D_16
  1

  0
SOLID
  5
2F2
330
2EF
100
AcDbEntity
  8
0
  6
Continuous
 62
     7
370
     0
100
AcDbTrace
 10
208.059733261
 20
223.078241483
 30
0.0
 11
210.7528932519
 21
225.0551474654
 31
0.0
 12
210.0341395466
 22
225.7732345849
 32
0.0
 13
210.0341395466
 23
225.7732345849
 33
0.0
  0
LINE
  5
2F3
330
2EF
100
AcDbEntity
  8
0
  6
Continuous
 62
     7
370
     0
100
AcDbLine
 10
208.059733261
 20
223.078241483
 30
0.0
 11
249.1786290506
 21
264.2353071167
 31
0.0
  0
LINE
  5
2F4
330
2EF
100
AcDbEntity
  8
0
  6
Continuous
 62
     7
370
     0
100
AcDbLine
 10
249.1786290506
 20
264.2353071167
 30
0.0
 11
255.5286290506
 21
264.2353071167
 31
0.0
  0
MTEXT
  5
2F5
330
2EF
100
AcDbEntity
  8
0
  6
Continuous
 62
     7
370
     0
100
AcDbMText
 10
257.1161290506
 20
265.8085802084
 30
0.0
 40
3.175
 41
0.0
 71
     1
 72
     1
  1
R
  7
SLDTEXTSTYLE0
 73
     1
 44
1.0
  0
MTEXT
  5
2F6
330
2EF
100
AcDbEntity
  8
0
  6
Continuous
 62
     7
370
     0
100
AcDbMText
 10
259.6816950015
 20
265.8085802084
 30
0.0
 40
3.175
 41
0.0
 71
     1
 72
     1
  1
25
  7
SLDTEXTSTYLE0
 73
     1
 44
1.0
  0
ENDBLK
  5
2F1
330
2EF
100
AcDbEntity
  8
0
100
AcDbBlockEnd
  0
BLOCK
  5
2F9
330
2F8
100
AcDbEntity
  8
0
100
AcDbBlockBegin
  2
_D_17
 70
     0
 10
0.0
 20
0.0
 30
0.0
  3
_D_17
  1

  0
SOLID
  5
2FB
330
2F8
100
AcDbEntity
  8
0
  6
Continuous
 62
     7
370
     0
100
AcDbTrace
 10
179.972236413
 20
235.9276699837
 30
0.0
 11
177.9983665309
 21
238.6230559836
 31
0.0
 12
177.2794699243
 22
237.9051119265
 32
0.0
 13
177.2794699243
 23
237.9051119265
 33
0.0
  0
LINE
  5
2FC
330
2F8
100
AcDbEntity
  8
0
  6
Continuous
 62
     7
370
     0
100
AcDbLine
 10
179.972236413
 20
235.9276699837
 30
0.0
 11
130.3424206119
 21
285.6233333333
 31
0.0
  0
LINE
  5
2FD
330
2F8
100
AcDbEntity
  8
0
  6
Continuous
 62
     7
370
     0
100
AcDbLine
 10
130.3424206119
 20
285.6233333333
 30
0.0
 11
123.9924206119
 21
285.6233333333
 31
0.0
  0
MTEXT
  5
2FE
330
2F8
100
AcDbEntity
  8
0
  6
Continuous
 62
     7
370
     0
100
AcDbMText
 10
117.497453434
 20
287.1966064251
 30
0.0
 40
3.175
 41
0.0
 71
     1
 72
     1
  1
R
  7
SLDTEXTSTYLE0
 73
     1
 44
1.0
  0
MTEXT
  5
2FF
330
2F8
100
AcDbEntity
  8
0
  6
Continuous
 62
     7
370
     0
100
AcDbMText
 10
120.0630193849
 20
287.1966064251
 30
0.0
 40
3.175
 41
0.0
 71
     1
 72
     1
  1
5
  7
SLDTEXTSTYLE0
 73
     1
 44
1.0
  0
ENDBLK
  5
2FA
330
2F8
100
AcDbEntity
  8
0
100
AcDbBlockEnd
  0
BLOCK
  5
301
330
300
100
AcDbEntity
  8
0
100
AcDbBlockBegin
  2
SW_NOTE_8
 70
     0
 10
0.0
 20
0.0
 30
0.0
  3
SW_NOTE_8
  1

  0
MTEXT
  5
303
330
300
100
AcDbEntity
  8
0
  6
Continuous
 62
     0
370
     0
100
AcDbMText
 10
-19.6108867432
 20
1.7388173757
 30
0.0
 40
3.175
 41
0.0
 71
     1
 72
     1
  1
use scrap
  7
SLDTEXTSTYLE0
 73
     1
 44
1.0
  0
ENDBLK
  5
302
330
300
100
AcDbEntity
  8
0
100
AcDbBlockEnd
  0
BLOCK
  5
307
330
306
100
AcDbEntity
  8
0
100
AcDbBlockBegin
  2
SW_NOTE_9
 70
     0
 10
0.0
 20
0.0
 30
0.0
  3
SW_NOTE_9
  1

  0
MTEXT
  5
309
330
306
100
AcDbEntity
  8
0
  6
Continuous
 62
     0
370
     0
100
AcDbMText
 10
0.5384515373
 20
3.2514615016
 30
0.0
 40
6.35
 41
0.0
 71
     1
 72
     1
  1
does not have to
  7
SLDTEXTSTYLE0
 73
     1
 44
1.0
  0
MTEXT
  5
30A
330
306
100
AcDbEntity
  8
0
  6
Continuous
 62
     0
370
     0
100
AcDbMText
 10
0.5384515373
 20
-4.8624275221
 30
0.0
 40
6.35
 41
0.0
 71
     1
 72
     1
  1
be flat - use scrap
  7
SLDTEXTSTYLE3
 73
     1
 44
1.0
  0
ENDBLK
  5
308
330
306
100
AcDbEntity
  8
0
100
AcDbBlockEnd
  0
BLOCK
  5
30E
330
30D
100
AcDbEntity
  8
0
100
AcDbBlockBegin
  2
SW_NOTE_10
 70
     0
 10
0.0
 20
0.0
 30
0.0
  3
SW_NOTE_10
  1

  0
MTEXT
  5
310
330
30D
100
AcDbEntity
  8
0
  6
Continuous
 62
     0
370
     0
100
AcDbMText
 10
0.5425910952
 20
1.7096706067
 30
0.0
 40
3.175
 41
0.0
 71
     1
 72
     1
  1
flame cut outside
  7
SLDTEXTSTYLE0
 73
     1
 44
1.0
  0
ENDBLK
  5
30F
330
30D
100
AcDbEntity
  8
0
100
AcDbBlockEnd
  0
BLOCK
  5
314
330
313
100
AcDbEntity
  8
0
100
AcDbBlockBegin
  2
SW_NOTE_11
 70
     0
 10
0.0
 20
0.0
 30
0.0
  3
SW_NOTE_11
  1

  0
MTEXT
  5
316
330
313
100
AcDbEntity
  8
0
  6
Continuous
 62
     0
370
     0
100
AcDbMText
 10
0.5108269713
 20
1.5655131678
 30
0.0
 40
3.175
 41
0.0
 71
     1
 72
     1
  1
flame cut
  7
SLDTEXTSTYLE0
 73
     1
 44
1.0
  0
MTEXT
  5
317
330
313
100
AcDbEntity
  8
0
  6
Continuous
 62
     0
370
     0
100
AcDbMText
 10
0.5108269713
 20
-2.6094867249
 30
0.0
 40
3.175
 41
0.0
 71
     1
 72
     1
  1
outside
  7
SLDTEXTSTYLE0
 73
     1
 44
1.0
  0
MTEXT
  5
318
330
313
100
AcDbEntity
  8
0
  6
Continuous
 62
     0
370
     0
100
AcDbMText
 10
0.5108269713
 20
-6.7844866176
 30
0.0
 40
3.175
 41
0.0
 71
     1
 72
     1
  1
nominal
  7
SLDTEXTSTYLE0
 73
     1
 44
1.0
  0
MTEXT
  5
319
330
313
100
AcDbEntity
  8
0
  6
Continuous
 62
     0
370
     0
100
AcDbMText
 10
0.5108269713
 20
-10.9594865103
 30
0.0
 40
3.175
 41
0.0
 71
     1
 72
     1
  1
dimensions
  7
SLDTEXTSTYLE0
 73
     1
 44
1.0
  0
ENDBLK
  5
315
330
313
100
AcDbEntity
  8
0
100
AcDbBlockEnd
  0
BLOCK
  5
32B
330
32A
100
AcDbEntity
  8
0
100
AcDbBlockBegin
  2
_D_18
 70
     0
 10
0.0
 20
0.0
 30
0.0
  3
_D_18
  1

  0
SOLID
  5
32D
330
32A
100
AcDbEntity
  8
0
  6
Continuous
 62
     7
370
     0
100
AcDbTrace
 10
129.225
 20
450.64
 30
0.0
 11
129.733
 21
453.942
 31
0.0
 12
128.717
 22
453.942
 32
0.0
 13
128.717
 23
453.942
 33
0.0
  0
SOLID
  5
32E
330
32A
100
AcDbEntity
  8
0
  6
Continuous
 62
     7
370
     0
100
AcDbTrace
 10
129.225
 20
434.14
 30
0.0
 11
128.717
 21
430.838
 31
0.0
 12
129.733
 22
430.838
 32
0.0
 13
129.733
 23
430.838
 33
0.0
  0
LINE
  5
32F
330
32A
100
AcDbEntity
  8
0
  6
Continuous
 62
     7
370
     0
100
AcDbLine
 10
175.8716666667
 20
450.64
 30
0.0
 11
126.05
 21
450.64
 31
0.0
  0
LINE
  5
330
330
32A
100
AcDbEntity
  8
0
  6
Continuous
 62
     7
370
     0
100
AcDbLine
 10
175.8716666667
 20
434.14
 30
0.0
 11
126.05
 21
434.14
 31
0.0
  0
LINE
  5
331
330
32A
100
AcDbEntity
  8
0
  6
Continuous
 62
     7
370
     0
100
AcDbLine
 10
129.225
 20
450.64
 30
0.0
 11
129.225
 21
456.99
 31
0.0
  0
LINE
  5
332
330
32A
100
AcDbEntity
  8
0
  6
Continuous
 62
     7
370
     0
100
AcDbLine
 10
129.225
 20
434.14
 30
0.0
 11
129.225
 21
427.79
 31
0.0
  0
MTEXT
  5
333
330
32A
100
AcDbEntity
  8
0
  6
Continuous
 62
     7
370
     0
100
AcDbMText
 10
126.883098773
 20
443.9632730917
 30
0.0
 40
3.175
 41
0.0
 71
     1
 72
     1
  1
33
  7
SLDTEXTSTYLE0
 73
     1
 44
1.0
  0
ENDBLK
  5
32C
330
32A
100
AcDbEntity
  8
0
100
AcDbBlockEnd
  0
BLOCK
  5
336
330
335
100
AcDbEntity
  8
0
100
AcDbBlockBegin
  2
_D_19
 70
     0
 10
0.0
 20
0.0
 30
0.0
  3
_D_19
  1

  0
SOLID
  5
338
330
335
100
AcDbEntity
  8
0
  6
Continuous
 62
     7
370
     0
100
AcDbTrace
 10
249.225
 20
434.14
 30
0.0
 11
249.733
 21
437.442
 31
0.0
 12
248.717
 22
437.442
 32
0.0
 13
248.717
 23
437.442
 33
0.0
  0
SOLID
  5
339
330
335
100
AcDbEntity
  8
0
  6
Continuous
 62
     7
370
     0
100
AcDbTrace
 10
249.225
 20
424.14
 30
0.0
 11
248.717
 21
420.838
 31
0.0
 12
249.733
 22
420.838
 32
0.0
 13
249.733
 23
420.838
 33
0.0
  0
LINE
  5
33A
330
335
100
AcDbEntity
  8
0
  6
Continuous
 62
     7
370
     0
100
AcDbLine
 10
240.495
 20
434.14
 30
0.0
 11
252.4
 21
434.14
 31
0.0
  0
LINE
  5
33B
330
335
100
AcDbEntity
  8
0
  6
Continuous
 62
     7
370
     0
100
AcDbLine
 10
240.495
 20
424.14
 30
0.0
 11
252.4
 21
424.14
 31
0.0
  0
LINE
  5
33C
330
335
100
AcDbEntity
  8
0
  6
Continuous
 62
     7
370
     0
100
AcDbLine
 10
249.225
 20
434.14
 30
0.0
 11
249.225
 21
440.49
 31
0.0
  0
LINE
  5
33D
330
335
100
AcDbEntity
  8
0
  6
Continuous
 62
     7
370
     0
100
AcDbLine
 10
249.225
 20
424.14
 30
0.0
 11
249.225
 21
417.79
 31
0.0
  0
MTEXT
  5
33E
330
335
100
AcDbEntity
  8
0
  6
Continuous
 62
     7
370
     0
100
AcDbMText
 10
246.883098773
 20
430.7132730917
 30
0.0
 40
3.175
 41
0.0
 71
     1
 72
     1
  1
20
  7
SLDTEXTSTYLE0
 73
     1
 44
1.0
  0
ENDBLK
  5
337
330
335
100
AcDbEntity
  8
0
100
AcDbBlockEnd
  0
BLOCK
  5
352
330
351
100
AcDbEntity
  8
0
100
AcDbBlockBegin
  2
_D_20
 70
     0
 10
0.0
 20
0.0
 30
0.0
  3
_D_20
  1

  0
SOLID
  5
354
330
351
100
AcDbEntity
  8
0
  6
Continuous
 62
     7
370
     0
100
AcDbTrace
 10
506.825
 20
270.2066666667
 30
0.0
 11
506.317
 21
266.9046666667
 31
0.0
 12
507.333
 22
266.9046666667
 32
0.0
 13
507.333
 23
266.9046666667
 33
0.0
  0
SOLID
  5
355
330
351
100
AcDbEntity
  8
0
  6
Continuous
 62
     7
370
     0
100
AcDbTrace
 10
506.825
 20
237.7066666667
 30
0.0
 11
507.333
 21
241.0086666667
 31
0.0
 12
506.317
 22
241.0086666667
 32
0.0
 13
506.317
 23
241.0086666667
 33
0.0
  0
LINE
  5
356
330
351
100
AcDbEntity
  8
0
  6
Continuous
 62
     7
370
     0
100
AcDbLine
 10
498.095
 20
270.2066666667
 30
0.0
 11
510.0
 21
270.2066666667
 31
0.0
  0
LINE
  5
357
330
351
100
AcDbEntity
  8
0
  6
Continuous
 62
     7
370
     0
100
AcDbLine
 10
498.095
 20
237.7066666667
 30
0.0
 11
510.0
 21
237.7066666667
 31
0.0
  0
LINE
  5
358
330
351
100
AcDbEntity
  8
0
  6
Continuous
 62
     7
370
     0
100
AcDbLine
 10
506.825
 20
270.2066666667
 30
0.0
 11
506.825
 21
256.476183998
 31
0.0
  0
LINE
  5
359
330
351
100
AcDbEntity
  8
0
  6
Continuous
 62
     7
370
     0
100
AcDbLine
 10
506.825
 20
237.7066666667
 30
0.0
 11
506.825
 21
251.4371493354
 31
0.0
  0
MTEXT
  5
35A
330
351
100
AcDbEntity
  8
0
  6
Continuous
 62
     7
370
     0
100
AcDbMText
 10
502.0951489264
 20
255.5299393509
 30
0.0
 40
3.175
 41
0.0
 71
     1
 72
     1
  1
%%c
  7
SLDTEXTSTYLE0
 73
     1
 44
1.0
  0
MTEXT
  5
35B
330
351
100
AcDbEntity
  8
0
  6
Continuous
 62
     7
370
     0
100
AcDbMText
 10
506.8710486196
 20
255.5299397584
 30
0.0
 40
3.175
 41
0.0
 71
     1
 72
     1
  1
65
  7
SLDTEXTSTYLE0
 73
     1
 44
1.0
  0
ENDBLK
  5
353
330
351
100
AcDbEntity
  8
0
100
AcDbBlockEnd
  0
ENDSEC
  0
SECTION
  2
ENTITIES
  0
LINE
  5
74
330
1F
100
AcDbEntity
  8
0
  6
Continuous
 62
     7
370
    40
100
AcDbLine
 10
641.0
 20
24.25
 30
0.0
 11
821.0
 21
24.25
 31
0.0
  0
LINE
  5
75
330
1F
100
AcDbEntity
  8
0
  6
Continuous
 62
     7
370
    40
100
AcDbLine
 10
821.0
 20
58.25
 30
0.0
 11
641.0
 21
58.25
 31
0.0
  0
LINE
  5
76
330
1F
100
AcDbEntity
  8
0
  6
Continuous
 62
     7
370
    40
100
AcDbLine
 10
641.0
 20
75.25
 30
0.0
 11
821.0
 21
75.25
 31
0.0
  0
LINE
  5
77
330
1F
100
AcDbEntity
  8
0
  6
Continuous
 62
     7
370
    40
100
AcDbLine
 10
667.9909524338
 20
58.25
 30
0.0
 11
667.9909524338
 21
20.0
 31
0.0
  0
LINE
  5
78
330
1F
100
AcDbEntity
  8
0
  6
Continuous
 62
     7
370
    40
100
AcDbLine
 10
739.8
 20
41.25
 30
0.0
 11
641.0
 21
41.25
 31
0.0
  0
LINE
  5
79
330
1F
100
AcDbEntity
  8
0
  6
Continuous
 62
     7
370
    40
100
AcDbLine
 10
739.8
 20
45.5
 30
0.0
 11
641.0
 21
45.5
 31
0.0
  0
LINE
  5
7A
330
1F
100
AcDbEntity
  8
0
  6
Continuous
 62
     7
370
    40
100
AcDbLine
 10
739.8
 20
49.75
 30
0.0
 11
641.0
 21
49.75
 31
0.0
  0
LINE
  5
7B
330
1F
100
AcDbEntity
  8
0
  6
Continuous
 62
     7
370
    40
100
AcDbLine
 10
739.8
 20
54.0
 30
0.0
 11
641.0
 21
54.0
 31
0.0
  0
LINE
  5
7C
330
1F
100
AcDbEntity
  8
0
  6
Continuous
 62
     7
370
    40
100
AcDbLine
 10
695.6
 20
20.0
 30
0.0
 11
695.6
 21
58.25
 31
0.0
  0
LINE
  5
7D
330
1F
100
AcDbEntity
  8
0
  6
Continuous
 62
     7
370
    40
100
AcDbLine
 10
641.0
 20
75.25
 30
0.0
 11
641.0
 21
20.0
 31
0.0
  0
LINE
  5
7E
330
1F
100
AcDbEntity
  8
0
  6
Continuous
 62
     7
370
    40
100
AcDbLine
 10
648.8
 20
58.25
 30
0.0
 11
648.8
 21
20.0
 31
0.0
  0
LINE
  5
7F
330
1F
100
AcDbEntity
  8
0
  6
Continuous
 62
     7
370
    40
100
AcDbLine
 10
674.8
 20
58.25
 30
0.0
 11
674.8
 21
75.25
 31
0.0
  0
LINE
  5
80
330
1F
100
AcDbEntity
  8
0
  6
Continuous
 62
     7
370
    40
100
AcDbLine
 10
685.3989261635
 20
58.25
 30
0.0
 11
685.3989261635
 21
20.0
 31
0.0
  0
LINE
  5
81
330
1F
100
AcDbEntity
  8
0
  6
Continuous
 62
     7
370
    40
100
AcDbLine
 10
706.0
 20
41.25
 30
0.0
 11
706.0
 21
58.25
 31
0.0
  0
LINE
  5
82
330
1F
100
AcDbEntity
  8
0
  6
Continuous
 62
     7
370
    40
100
AcDbLine
 10
695.6
 20
28.5
 30
0.0
 11
641.0
 21
28.5
 31
0.0
  0
LINE
  5
83
330
1F
100
AcDbEntity
  8
0
  6
Continuous
 62
     7
370
    40
100
AcDbLine
 10
721.6
 20
75.25
 30
0.0
 11
721.6
 21
37.0
 31
0.0
  0
LINE
  5
84
330
1F
100
AcDbEntity
  8
0
  6
Continuous
 62
     7
370
    40
100
AcDbLine
 10
695.6
 20
32.749928
 30
0.0
 11
641.0
 21
32.749928
 31
0.0
  0
LINE
  5
85
330
1F
100
AcDbEntity
  8
0
  6
Continuous
 62
     7
370
    40
100
AcDbLine
 10
695.6
 20
37.0
 30
0.0
 11
641.0
 21
37.0
 31
0.0
  0
LINE
  5
86
330
1F
100
AcDbEntity
  8
0
  6
Continuous
 62
     7
370
    40
100
AcDbLine
 10
695.6
 20
37.0
 30
0.0
 11
821.0
 21
37.0
 31
0.0
  0
LINE
  5
87
330
1F
100
AcDbEntity
  8
0
  6
Continuous
 62
     7
370
    40
100
AcDbLine
 10
739.8
 20
75.25
 30
0.0
 11
739.8
 21
20.0
 31
0.0
  0
LINE
  5
88
330
1F
100
AcDbEntity
  8
0
  6
Continuous
 62
     7
370
    40
100
AcDbLine
 10
784.0
 20
20.0
 30
0.0
 11
784.0
 21
24.25
 31
0.0
  0
LINE
  5
89
330
1F
100
AcDbEntity
  8
0
  6
Continuous
 62
     7
370
    40
100
AcDbLine
 10
791.8
 20
68.875
 30
0.0
 11
791.8
 21
75.25
 31
0.0
  0
LINE
  5
8A
330
1F
100
AcDbEntity
  8
0
  6
Continuous
 62
     7
370
    40
100
AcDbLine
 10
808.0
 20
24.25
 30
0.0
 11
808.0
 21
37.0
 31
0.0
  0
LINE
  5
8B
330
1F
100
AcDbEntity
  8
0
  6
Continuous
 62
     7
370
    40
100
AcDbLine
 10
821.0
 20
68.875
 30
0.0
 11
739.8
 21
68.875
 31
0.0
  0
LINE
  5
8C
330
1F
100
AcDbEntity
  8
0
  6
Continuous
 62
     7
370
    40
100
AcDbLine
 10
821.0
 20
28.5
 30
0.0
 11
808.0
 21
28.5
 31
0.0
  0
LINE
  5
8D
330
1F
100
AcDbEntity
  8
0
  6
Continuous
 62
     7
370
    60
100
AcDbLine
 10
20.0
 20
20.0
 30
0.0
 11
20.0
 21
574.0
 31
0.0
  0
LINE
  5
8E
330
1F
100
AcDbEntity
  8
0
  6
Continuous
 62
     7
370
    60
100
AcDbLine
 10
20.0
 20
574.0
 30
0.0
 11
821.0
 21
574.0
 31
0.0
  0
LINE
  5
8F
330
1F
100
AcDbEntity
  8
0
  6
Continuous
 62
     7
370
    60
100
AcDbLine
 10
821.0
 20
574.0
 30
0.0
 11
821.0
 21
20.0
 31
0.0
  0
LINE
  5
90
330
1F
100
AcDbEntity
  8
0
  6
Continuous
 62
     7
370
    60
100
AcDbLine
 10
821.0
 20
20.0
 30
0.0
 11
20.0
 21
20.0
 31
0.0
  0
LINE
  5
91
330
1F
100
AcDbEntity
  8
0
  6
Continuous
 62
     7
370
    30
100
AcDbLine
 10
2.5
 20
297.0
 30
0.0
 11
20.0
 21
297.0
 31
0.0
  0
LINE
  5
92
330
1F
100
AcDbEntity
  8
0
  6
Continuous
 62
     7
370
    30
100
AcDbLine
 10
420.5
 20
591.5
 30
0.0
 11
420.5
 21
574.0
 31
0.0
  0
LINE
  5
93
330
1F
100
AcDbEntity
  8
0
  6
Continuous
 62
     7
370
    30
100
AcDbLine
 10
838.5
 20
297.0
 30
0.0
 11
821.0
 21
297.0
 31
0.0
  0
LINE
  5
94
330
1F
100
AcDbEntity
  8
0
  6
Continuous
 62
     7
370
    30
100
AcDbLine
 10
420.5
 20
2.5
 30
0.0
 11
420.5
 21
20.0
 31
0.0
  0
LINE
  5
95
330
1F
100
AcDbEntity
  8
0
  6
Continuous
 62
     7
370
    30
100
AcDbLine
 10
20.0
 20
47.0
 30
0.0
 11
2.5
 21
47.0
 31
0.0
  0
LINE
  5
96
330
1F
100
AcDbEntity
  8
0
  6
Continuous
 62
     7
370
    30
100
AcDbLine
 10
821.0
 20
47.0
 30
0.0
 11
838.5
 21
47.0
 31
0.0
  0
LINE
  5
97
330
1F
100
AcDbEntity
  8
0
  6
Continuous
 62
     7
370
    30
100
AcDbLine
 10
20.0
 20
97.0
 30
0.0
 11
2.5
 21
97.0
 31
0.0
  0
LINE
  5
98
330
1F
100
AcDbEntity
  8
0
  6
Continuous
 62
     7
370
    30
100
AcDbLine
 10
821.0
 20
97.0
 30
0.0
 11
838.5
 21
97.0
 31
0.0
  0
LINE
  5
99
330
1F
100
AcDbEntity
  8
0
  6
Continuous
 62
     7
370
    30
100
AcDbLine
 10
20.0
 20
147.0
 30
0.0
 11
2.5
 21
147.0
 31
0.0
  0
LINE
  5
9A
330
1F
100
AcDbEntity
  8
0
  6
Continuous
 62
     7
370
    30
100
AcDbLine
 10
821.0
 20
147.0
 30
0.0
 11
838.5
 21
147.0
 31
0.0
  0
LINE
  5
9B
330
1F
100
AcDbEntity
  8
0
  6
Continuous
 62
     7
370
    30
100
AcDbLine
 10
20.0
 20
197.0
 30
0.0
 11
2.5
 21
197.0
 31
0.0
  0
LINE
  5
9C
330
1F
100
AcDbEntity
  8
0
  6
Continuous
 62
     7
370
    30
100
AcDbLine
 10
821.0
 20
197.0
 30
0.0
 11
838.5
 21
197.0
 31
0.0
  0
LINE
  5
9D
330
1F
100
AcDbEntity
  8
0
  6
Continuous
 62
     7
370
    30
100
AcDbLine
 10
20.0
 20
247.0
 30
0.0
 11
2.5
 21
247.0
 31
0.0
  0
LINE
  5
9E
330
1F
100
AcDbEntity
  8
0
  6
Continuous
 62
     7
370
    30
100
AcDbLine
 10
821.0
 20
247.0
 30
0.0
 11
838.5
 21
247.0
 31
0.0
  0
LINE
  5
9F
330
1F
100
AcDbEntity
  8
0
  6
Continuous
 62
     7
370
    30
100
AcDbLine
 10
20.0
 20
297.0
 30
0.0
 11
2.5
 21
297.0
 31
0.0
  0
LINE
  5
A0
330
1F
100
AcDbEntity
  8
0
  6
Continuous
 62
     7
370
    30
100
AcDbLine
 10
821.0
 20
297.0
 30
0.0
 11
838.5
 21
297.0
 31
0.0
  0
LINE
  5
A1
330
1F
100
AcDbEntity
  8
0
  6
Continuous
 62
     7
370
    30
100
AcDbLine
 10
20.0
 20
347.0
 30
0.0
 11
2.5
 21
347.0
 31
0.0
  0
LINE
  5
A2
330
1F
100
AcDbEntity
  8
0
  6
Continuous
 62
     7
370
    30
100
AcDbLine
 10
821.0
 20
347.0
 30
0.0
 11
838.5
 21
347.0
 31
0.0
  0
LINE
  5
A3
330
1F
100
AcDbEntity
  8
0
  6
Continuous
 62
     7
370
    30
100
AcDbLine
 10
20.0
 20
397.0
 30
0.0
 11
2.5
 21
397.0
 31
0.0
  0
LINE
  5
A4
330
1F
100
AcDbEntity
  8
0
  6
Continuous
 62
     7
370
    30
100
AcDbLine
 10
821.0
 20
397.0
 30
0.0
 11
838.5
 21
397.0
 31
0.0
  0
LINE
  5
A5
330
1F
100
AcDbEntity
  8
0
  6
Continuous
 62
     7
370
    30
100
AcDbLine
 10
20.0
 20
447.0
 30
0.0
 11
2.5
 21
447.0
 31
0.0
  0
LINE
  5
A6
330
1F
100
AcDbEntity
  8
0
  6
Continuous
 62
     7
370
    30
100
AcDbLine
 10
821.0
 20
447.0
 30
0.0
 11
838.5
 21
447.0
 31
0.0
  0
LINE
  5
A7
330
1F
100
AcDbEntity
  8
0
  6
Continuous
 62
     7
370
    30
100
AcDbLine
 10
20.0
 20
497.0
 30
0.0
 11
2.5
 21
497.0
 31
0.0
  0
LINE
  5
A8
330
1F
100
AcDbEntity
  8
0
  6
Continuous
 62
     7
370
    30
100
AcDbLine
 10
821.0
 20
497.0
 30
0.0
 11
838.5
 21
497.0
 31
0.0
  0
LINE
  5
A9
330
1F
100
AcDbEntity
  8
0
  6
Continuous
 62
     7
370
    30
100
AcDbLine
 10
20.0
 20
547.0
 30
0.0
 11
2.5
 21
547.0
 31
0.0
  0
LINE
  5
AA
330
1F
100
AcDbEntity
  8
0
  6
Continuous
 62
     7
370
    30
100
AcDbLine
 10
821.0
 20
547.0
 30
0.0
 11
838.5
 21
547.0
 31
0.0
  0
LINE
  5
AB
330
1F
100
AcDbEntity
  8
0
  6
Continuous
 62
     7
370
    30
100
AcDbLine
 10
70.5
 20
574.0
 30
0.0
 11
70.5
 21
591.5
 31
0.0
  0
LINE
  5
AC
330
1F
100
AcDbEntity
  8
0
  6
Continuous
 62
     7
370
    30
100
AcDbLine
 10
70.5
 20
20.0
 30
0.0
 11
70.5
 21
2.5
 31
0.0
  0
LINE
  5
AD
330
1F
100
AcDbEntity
  8
0
  6
Continuous
 62
     7
370
    30
100
AcDbLine
 10
120.5
 20
574.0
 30
0.0
 11
120.5
 21
591.5
 31
0.0
  0
LINE
  5
AE
330
1F
100
AcDbEntity
  8
0
  6
Continuous
 62
     7
370
    30
100
AcDbLine
 10
120.5
 20
20.0
 30
0.0
 11
120.5
 21
2.5
 31
0.0
  0
LINE
  5
AF
330
1F
100
AcDbEntity
  8
0
  6
Continuous
 62
     7
370
    30
100
AcDbLine
 10
170.5
 20
574.0
 30
0.0
 11
170.5
 21
591.5
 31
0.0
  0
LINE
  5
B0
330
1F
100
AcDbEntity
  8
0
  6
Continuous
 62
     7
370
    30
100
AcDbLine
 10
170.5
 20
20.0
 30
0.0
 11
170.5
 21
2.5
 31
0.0
  0
LINE
  5
B1
330
1F
100
AcDbEntity
  8
0
  6
Continuous
 62
     7
370
    30
100
AcDbLine
 10
220.5
 20
574.0
 30
0.0
 11
220.5
 21
591.5
 31
0.0
  0
LINE
  5
B2
330
1F
100
AcDbEntity
  8
0
  6
Continuous
 62
     7
370
    30
100
AcDbLine
 10
220.5
 20
20.0
 30
0.0
 11
220.5
 21
2.5
 31
0.0
  0
LINE
  5
B3
330
1F
100
AcDbEntity
  8
0
  6
Continuous
 62
     7
370
    30
100
AcDbLine
 10
270.5
 20
574.0
 30
0.0
 11
270.5
 21
591.5
 31
0.0
  0
LINE
  5
B4
330
1F
100
AcDbEntity
  8
0
  6
Continuous
 62
     7
370
    30
100
AcDbLine
 10
270.5
 20
20.0
 30
0.0
 11
270.5
 21
2.5
 31
0.0
  0
LINE
  5
B5
330
1F
100
AcDbEntity
  8
0
  6
Continuous
 62
     7
370
    30
100
AcDbLine
 10
320.5
 20
574.0
 30
0.0
 11
320.5
 21
591.5
 31
0.0
  0
LINE
  5
B6
330
1F
100
AcDbEntity
  8
0
  6
Continuous
 62
     7
370
    30
100
AcDbLine
 10
320.5
 20
20.0
 30
0.0
 11
320.5
 21
2.5
 31
0.0
  0
LINE
  5
B7
330
1F
100
AcDbEntity
  8
0
  6
Continuous
 62
     7
370
    30
100
AcDbLine
 10
370.5
 20
574.0
 30
0.0
 11
370.5
 21
591.5
 31
0.0
  0
LINE
  5
B8
330
1F
100
AcDbEntity
  8
0
  6
Continuous
 62
     7
370
    30
100
AcDbLine
 10
370.5
 20
20.0
 30
0.0
 11
370.5
 21
2.5
 31
0.0
  0
LINE
  5
B9
330
1F
100
AcDbEntity
  8
0
  6
Continuous
 62
     7
370
    30
100
AcDbLine
 10
420.5
 20
574.0
 30
0.0
 11
420.5
 21
591.5
 31
0.0
  0
LINE
  5
BA
330
1F
100
AcDbEntity
  8
0
  6
Continuous
 62
     7
370
    30
100
AcDbLine
 10
420.5
 20
20.0
 30
0.0
 11
420.5
 21
2.5
 31
0.0
  0
LINE
  5
BB
330
1F
100
AcDbEntity
  8
0
  6
Continuous
 62
     7
370
    30
100
AcDbLine
 10
470.5
 20
574.0
 30
0.0
 11
470.5
 21
591.5
 31
0.0
  0
LINE
  5
BC
330
1F
100
AcDbEntity
  8
0
  6
Continuous
 62
     7
370
    30
100
AcDbLine
 10
470.5
 20
20.0
 30
0.0
 11
470.5
 21
2.5
 31
0.0
  0
LINE
  5
BD
330
1F
100
AcDbEntity
  8
0
  6
Continuous
 62
     7
370
    30
100
AcDbLine
 10
520.5
 20
574.0
 30
0.0
 11
520.5
 21
591.5
 31
0.0
  0
LINE
  5
BE
330
1F
100
AcDbEntity
  8
0
  6
Continuous
 62
     7
370
    30
100
AcDbLine
 10
520.5
 20
20.0
 30
0.0
 11
520.5
 21
2.5
 31
0.0
  0
LINE
  5
BF
330
1F
100
AcDbEntity
  8
0
  6
Continuous
 62
     7
370
    30
100
AcDbLine
 10
570.5
 20
574.0
 30
0.0
 11
570.5
 21
591.5
 31
0.0
  0
LINE
  5
C0
330
1F
100
AcDbEntity
  8
0
  6
Continuous
 62
     7
370
    30
100
AcDbLine
 10
570.5
 20
20.0
 30
0.0
 11
570.5
 21
2.5
 31
0.0
  0
LINE
  5
C1
330
1F
100
AcDbEntity
  8
0
  6
Continuous
 62
     7
370
    30
100
AcDbLine
 10
620.5
 20
574.0
 30
0.0
 11
620.5
 21
591.5
 31
0.0
  0
LINE
  5
C2
330
1F
100
AcDbEntity
  8
0
  6
Continuous
 62
     7
370
    30
100
AcDbLine
 10
620.5
 20
20.0
 30
0.0
 11
620.5
 21
2.5
 31
0.0
  0
LINE
  5
C3
330
1F
100
AcDbEntity
  8
0
  6
Continuous
 62
     7
370
    30
100
AcDbLine
 10
670.5
 20
574.0
 30
0.0
 11
670.5
 21
591.5
 31
0.0
  0
LINE
  5
C4
330
1F
100
AcDbEntity
  8
0
  6
Continuous
 62
     7
370
    30
100
AcDbLine
 10
670.5
 20
20.0
 30
0.0
 11
670.5
 21
2.5
 31
0.0
  0
LINE
  5
C5
330
1F
100
AcDbEntity
  8
0
  6
Continuous
 62
     7
370
    30
100
AcDbLine
 10
720.5
 20
574.0
 30
0.0
 11
720.5
 21
591.5
 31
0.0
  0
LINE
  5
C6
330
1F
100
AcDbEntity
  8
0
  6
Continuous
 62
     7
370
    30
100
AcDbLine
 10
720.5
 20
20.0
 30
0.0
 11
720.5
 21
2.5
 31
0.0
  0
LINE
  5
C7
330
1F
100
AcDbEntity
  8
0
  6
Continuous
 62
     7
370
    30
100
AcDbLine
 10
770.5
 20
574.0
 30
0.0
 11
770.5
 21
591.5
 31
0.0
  0
LINE
  5
C8
330
1F
100
AcDbEntity
  8
0
  6
Continuous
 62
     7
370
    30
100
AcDbLine
 10
770.5
 20
20.0
 30
0.0
 11
770.5
 21
2.5
 31
0.0
  0
MTEXT
  5
CA
330
1F
100
AcDbEntity
  8
0
  6
Continuous
 62
     7
370
     0
100
AcDbMText
 10
9.7565833417
 20
23.4756904019
 30
0.0
 40
6.096
 41
0.0
 71
     2
 72
     1
  1
A
  7
SLDTEXTSTYLE0
 73
     1
 44
1.0
  0
MTEXT
  5
CB
330
1F
100
AcDbEntity
  8
0
  6
Continuous
 62
     7
370
     0
100
AcDbMText
 10
830.7565833417
 20
23.4756904019
 30
0.0
 40
6.096
 41
0.0
 71
     2
 72
     1
  1
A
  7
SLDTEXTSTYLE0
 73
     1
 44
1.0
  0
MTEXT
  5
CC
330
1F
100
AcDbEntity
  8
0
  6
Continuous
 62
     7
370
     0
100
AcDbMText
 10
9.9534332283
 20
71.9756904019
 30
0.0
 40
6.096
 41
0.0
 71
     2
 72
     1
  1
B
  7
SLDTEXTSTYLE0
 73
     1
 44
1.0
  0
MTEXT
  5
CD
330
1F
100
AcDbEntity
  8
0
  6
Continuous
 62
     7
370
     0
100
AcDbMText
 10
830.9534332283
 20
71.9756904019
 30
0.0
 40
6.096
 41
0.0
 71
     2
 72
     1
  1
B
  7
SLDTEXTSTYLE0
 73
     1
 44
1.0
  0
MTEXT
  5
CE
330
1F
100
AcDbEntity
  8
0
  6
Continuous
 62
     7
370
     0
100
AcDbMText
 10
9.9365000027
 20
121.9756904019
 30
0.0
 40
6.096
 41
0.0
 71
     2
 72
     1
  1
C
  7
SLDTEXTSTYLE0
 73
     1
 44
1.0
  0
MTEXT
  5
CF
330
1F
100
AcDbEntity
  8
0
  6
Continuous
 62
     7
370
     0
100
AcDbMText
 10
830.9365000027
 20
121.9756904019
 30
0.0
 40
6.096
 41
0.0
 71
     2
 72
     1
  1
C
  7
SLDTEXTSTYLE0
 73
     1
 44
1.0
  0
MTEXT
  5
D0
330
1F
100
AcDbEntity
  8
0
  6
Continuous
 62
     7
370
     0
100
AcDbMText
 10
9.9301500347
 20
171.9756904019
 30
0.0
 40
6.096
 41
0.0
 71
     2
 72
     1
  1
D
  7
SLDTEXTSTYLE0
 73
     1
 44
1.0
  0
MTEXT
  5
D1
330
1F
100
AcDbEntity
  8
0
  6
Continuous
 62
     7
370
     0
100
AcDbMText
 10
830.9301500347
 20
171.9756904019
 30
0.0
 40
6.096
 41
0.0
 71
     2
 72
     1
  1
D
  7
SLDTEXTSTYLE0
 73
     1
 44
1.0
  0
MTEXT
  5
D2
330
1F
100
AcDbEntity
  8
0
  6
Continuous
 62
     7
370
     0
100
AcDbMText
 10
10.0105832246
 20
221.9756904019
 30
0.0
 40
6.096
 41
0.0
 71
     2
 72
     1
  1
E
  7
SLDTEXTSTYLE0
 73
     1
 44
1.0
  0
MTEXT
  5
D3
330
1F
100
AcDbEntity
  8
0
  6
Continuous
 62
     7
370
     0
100
AcDbMText
 10
831.0105832246
 20
221.9756904019
 30
0.0
 40
6.096
 41
0.0
 71
     2
 72
     1
  1
E
  7
SLDTEXTSTYLE0
 73
     1
 44
1.0
  0
MTEXT
  5
D4
330
1F
100
AcDbEntity
  8
0
  6
Continuous
 62
     7
370
     0
100
AcDbMText
 10
9.9365000284
 20
271.9756904019
 30
0.0
 40
6.096
 41
0.0
 71
     2
 72
     1
  1
F
  7
SLDTEXTSTYLE0
 73
     1
 44
1.0
  0
MTEXT
  5
D5
330
1F
100
AcDbEntity
  8
0
  6
Continuous
 62
     7
370
     0
100
AcDbMText
 10
830.9365000284
 20
271.9756904019
 30
0.0
 40
6.096
 41
0.0
 71
     2
 72
     1
  1
F
  7
SLDTEXTSTYLE0
 73
     1
 44
1.0
  0
MTEXT
  5
D6
330
1F
100
AcDbEntity
  8
0
  6
Continuous
 62
     7
370
     0
100
AcDbMText
 10
9.9809499115
 20
321.9756904019
 30
0.0
 40
6.096
 41
0.0
 71
     2
 72
     1
  1
G
  7
SLDTEXTSTYLE0
 73
     1
 44
1.0
  0
MTEXT
  5
D7
330
1F
100
AcDbEntity
  8
0
  6
Continuous
 62
     7
370
     0
100
AcDbMText
 10
830.9809499115
 20
321.9756904019
 30
0.0
 40
6.096
 41
0.0
 71
     2
 72
     1
  1
G
  7
SLDTEXTSTYLE0
 73
     1
 44
1.0
  0
MTEXT
  5
D8
330
1F
100
AcDbEntity
  8
0
  6
Continuous
 62
     7
370
     0
100
AcDbMText
 10
9.9851832197
 20
371.9756904019
 30
0.0
 40
6.096
 41
0.0
 71
     2
 72
     1
  1
H
  7
SLDTEXTSTYLE0
 73
     1
 44
1.0
  0
MTEXT
  5
D9
330
1F
100
AcDbEntity
  8
0
  6
Continuous
 62
     7
370
     0
100
AcDbMText
 10
830.9851832197
 20
371.9756904019
 30
0.0
 40
6.096
 41
0.0
 71
     2
 72
     1
  1
H
  7
SLDTEXTSTYLE0
 73
     1
 44
1.0
  0
MTEXT
  5
DA
330
1F
100
AcDbEntity
  8
0
  6
Continuous
 62
     7
370
     0
100
AcDbMText
 10
9.944966682
 20
421.9756904019
 30
0.0
 40
6.096
 41
0.0
 71
     2
 72
     1
  1
J
  7
SLDTEXTSTYLE0
 73
     1
 44
1.0
  0
MTEXT
  5
DB
330
1F
100
AcDbEntity
  8
0
  6
Continuous
 62
     7
370
     0
100
AcDbMText
 10
830.944966682
 20
421.9756904019
 30
0.0
 40
6.096
 41
0.0
 71
     2
 72
     1
  1
J
  7
SLDTEXTSTYLE0
 73
     1
 44
1.0
  0
MTEXT
  5
DC
330
1F
100
AcDbEntity
  8
0
  6
Continuous
 62
     7
370
     0
100
AcDbMText
 10
9.9809500001
 20
471.9756904019
 30
0.0
 40
6.096
 41
0.0
 71
     2
 72
     1
  1
K
  7
SLDTEXTSTYLE0
 73
     1
 44
1.0
  0
MTEXT
  5
DD
330
1F
100
AcDbEntity
  8
0
  6
Continuous
 62
     7
370
     0
100
AcDbMText
 10
830.9809500001
 20
471.9756904019
 30
0.0
 40
6.096
 41
0.0
 71
     2
 72
     1
  1
K
  7
SLDTEXTSTYLE0
 73
     1
 44
1.0
  0
MTEXT
  5
DE
330
1F
100
AcDbEntity
  8
0
  6
Continuous
 62
     7
370
     0
100
AcDbMText
 10
9.9343833336
 20
521.9756904019
 30
0.0
 40
6.096
 41
0.0
 71
     2
 72
     1
  1
L
  7
SLDTEXTSTYLE0
 73
     1
 44
1.0
  0
MTEXT
  5
DF
330
1F
100
AcDbEntity
  8
0
  6
Continuous
 62
     7
370
     0
100
AcDbMText
 10
830.9343833336
 20
521.9756904019
 30
0.0
 40
6.096
 41
0.0
 71
     2
 72
     1
  1
L
  7
SLDTEXTSTYLE0
 73
     1
 44
1.0
  0
MTEXT
  5
E0
330
1F
100
AcDbEntity
  8
0
  6
Continuous
 62
     7
370
     0
100
AcDbMText
 10
9.7904499743
 20
570.4756904019
 30
0.0
 40
6.096
 41
0.0
 71
     2
 72
     1
  1
M
  7
SLDTEXTSTYLE0
 73
     1
 44
1.0
  0
MTEXT
  5
E1
330
1F
100
AcDbEntity
  8
0
  6
Continuous
 62
     7
370
     0
100
AcDbMText
 10
830.7904499743
 20
570.4756904019
 30
0.0
 40
6.096
 41
0.0
 71
     2
 72
     1
  1
M
  7
SLDTEXTSTYLE0
 73
     1
 44
1.0
  0
MTEXT
  5
E2
330
1F
100
AcDbEntity
  8
0
  6
Continuous
 62
     7
370
     0
100
AcDbMText
 10
35.1272333393
 20
13.1136904019
 30
0.0
 40
6.096
 41
0.0
 71
     2
 72
     1
  1
16
  7
SLDTEXTSTYLE0
 73
     1
 44
1.0
  0
MTEXT
  5
E3
330
1F
100
AcDbEntity
  8
0
  6
Continuous
 62
     7
370
     0
100
AcDbMText
 10
35.1272333393
 20
587.1136904019
 30
0.0
 40
6.096
 41
0.0
 71
     2
 72
     1
  1
16
  7
SLDTEXTSTYLE0
 73
     1
 44
1.0
  0
MTEXT
  5
E4
330
1F
100
AcDbEntity
  8
0
  6
Continuous
 62
     7
370
     0
100
AcDbMText
 10
95.3772333393
 20
13.1136904019
 30
0.0
 40
6.096
 41
0.0
 71
     2
 72
     1
  1
15
  7
SLDTEXTSTYLE0
 73
     1
 44
1.0
  0
MTEXT
  5
E5
330
1F
100
AcDbEntity
  8
0
  6
Continuous
 62
     7
370
     0
100
AcDbMText
 10
95.3772333393
 20
587.1136904019
 30
0.0
 40
6.096
 41
0.0
 71
     2
 72
     1
  1
15
  7
SLDTEXTSTYLE0
 73
     1
 44
1.0
  0
MTEXT
  5
E6
330
1F
100
AcDbEntity
  8
0
  6
Continuous
 62
     7
370
     0
100
AcDbMText
 10
145.3772333393
 20
13.1136904019
 30
0.0
 40
6.096
 41
0.0
 71
     2
 72
     1
  1
14
  7
SLDTEXTSTYLE0
 73
     1
 44
1.0
  0
MTEXT
  5
E7
330
1F
100
AcDbEntity
  8
0
  6
Continuous
 62
     7
370
     0
100
AcDbMText
 10
145.3772333393
 20
587.1136904019
 30
0.0
 40
6.096
 41
0.0
 71
     2
 72
     1
  1
14
  7
SLDTEXTSTYLE0
 73
     1
 44
1.0
  0
MTEXT
  5
E8
330
1F
100
AcDbEntity
  8
0
  6
Continuous
 62
     7
370
     0
100
AcDbMText
 10
195.3772333393
 20
13.1136904019
 30
0.0
 40
6.096
 41
0.0
 71
     2
 72
     1
  1
13
  7
SLDTEXTSTYLE0
 73
     1
 44
1.0
  0
MTEXT
  5
E9
330
1F
100
AcDbEntity
  8
0
  6
Continuous
 62
     7
370
     0
100
AcDbMText
 10
195.3772333393
 20
587.1136904019
 30
0.0
 40
6.096
 41
0.0
 71
     2
 72
     1
  1
13
  7
SLDTEXTSTYLE0
 73
     1
 44
1.0
  0
MTEXT
  5
EA
330
1F
100
AcDbEntity
  8
0
  6
Continuous
 62
     7
370
     0
100
AcDbMText
 10
245.3772333393
 20
13.1136904019
 30
0.0
 40
6.096
 41
0.0
 71
     2
 72
     1
  1
12
  7
SLDTEXTSTYLE0
 73
     1
 44
1.0
  0
MTEXT
  5
EB
330
1F
100
AcDbEntity
  8
0
  6
Continuous
 62
     7
370
     0
100
AcDbMText
 10
245.3772333393
 20
587.1136904019
 30
0.0
 40
6.096
 41
0.0
 71
     2
 72
     1
  1
12
  7
SLDTEXTSTYLE0
 73
     1
 44
1.0
  0
MTEXT
  5
EC
330
1F
100
AcDbEntity
  8
0
  6
Continuous
 62
     7
370
     0
100
AcDbMText
 10
295.3772333393
 20
13.1136904019
 30
0.0
 40
6.096
 41
0.0
 71
     2
 72
     1
  1
11
  7
SLDTEXTSTYLE0
 73
     1
 44
1.0
  0
MTEXT
  5
ED
330
1F
100
AcDbEntity
  8
0
  6
Continuous
 62
     7
370
     0
100
AcDbMText
 10
295.3772333393
 20
587.1136904019
 30
0.0
 40
6.096
 41
0.0
 71
     2
 72
     1
  1
11
  7
SLDTEXTSTYLE0
 73
     1
 44
1.0
  0
MTEXT
  5
EE
330
1F
100
AcDbEntity
  8
0
  6
Continuous
 62
     7
370
     0
100
AcDbMText
 10
345.3772333393
 20
13.1136904019
 30
0.0
 40
6.096
 41
0.0
 71
     2
 72
     1
  1
10
  7
SLDTEXTSTYLE0
 73
     1
 44
1.0
  0
MTEXT
  5
EF
330
1F
100
AcDbEntity
  8
0
  6
Continuous
 62
     7
370
     0
100
AcDbMText
 10
345.3772333393
 20
587.1136904019
 30
0.0
 40
6.096
 41
0.0
 71
     2
 72
     1
  1
10
  7
SLDTEXTSTYLE0
 73
     1
 44
1.0
  0
MTEXT
  5
F0
330
1F
100
AcDbEntity
  8
0
  6
Continuous
 62
     7
370
     0
100
AcDbMText
 10
395.4386166697
 20
13.1136904019
 30
0.0
 40
6.096
 41
0.0
 71
     2
 72
     1
  1
9
  7
SLDTEXTSTYLE0
 73
     1
 44
1.0
  0
MTEXT
  5
F1
330
1F
100
AcDbEntity
  8
0
  6
Continuous
 62
     7
370
     0
100
AcDbMText
 10
395.4386166697
 20
587.1136904019
 30
0.0
 40
6.096
 41
0.0
 71
     2
 72
     1
  1
9
  7
SLDTEXTSTYLE0
 73
     1
 44
1.0
  0
MTEXT
  5
F2
330
1F
100
AcDbEntity
  8
0
  6
Continuous
 62
     7
370
     0
100
AcDbMText
 10
445.4386166697
 20
13.1136904019
 30
0.0
 40
6.096
 41
0.0
 71
     2
 72
     1
  1
8
  7
SLDTEXTSTYLE0
 73
     1
 44
1.0
  0
MTEXT
  5
F3
330
1F
100
AcDbEntity
  8
0
  6
Continuous
 62
     7
370
     0
100
AcDbMText
 10
445.4386166697
 20
587.1136904019
 30
0.0
 40
6.096
 41
0.0
 71
     2
 72
     1
  1
8
  7
SLDTEXTSTYLE0
 73
     1
 44
1.0
  0
MTEXT
  5
F4
330
1F
100
AcDbEntity
  8
0
  6
Continuous
 62
     7
370
     0
100
AcDbMText
 10
495.4386166697
 20
13.1136904019
 30
0.0
 40
6.096
 41
0.0
 71
     2
 72
     1
  1
7
  7
SLDTEXTSTYLE0
 73
     1
 44
1.0
  0
MTEXT
  5
F5
330
1F
100
AcDbEntity
  8
0
  6
Continuous
 62
     7
370
     0
100
AcDbMText
 10
495.4386166697
 20
587.1136904019
 30
0.0
 40
6.096
 41
0.0
 71
     2
 72
     1
  1
7
  7
SLDTEXTSTYLE0
 73
     1
 44
1.0
  0
MTEXT
  5
F6
330
1F
100
AcDbEntity
  8
0
  6
Continuous
 62
     7
370
     0
100
AcDbMText
 10
545.4386166697
 20
13.1136904019
 30
0.0
 40
6.096
 41
0.0
 71
     2
 72
     1
  1
6
  7
SLDTEXTSTYLE0
 73
     1
 44
1.0
  0
MTEXT
  5
F7
330
1F
100
AcDbEntity
  8
0
  6
Continuous
 62
     7
370
     0
100
AcDbMText
 10
545.4386166697
 20
587.1136904019
 30
0.0
 40
6.096
 41
0.0
 71
     2
 72
     1
  1
6
  7
SLDTEXTSTYLE0
 73
     1
 44
1.0
  0
MTEXT
  5
F8
330
1F
100
AcDbEntity
  8
0
  6
Continuous
 62
     7
370
     0
100
AcDbMText
 10
595.4386166697
 20
13.1136904019
 30
0.0
 40
6.096
 41
0.0
 71
     2
 72
     1
  1
5
  7
SLDTEXTSTYLE0
 73
     1
 44
1.0
  0
MTEXT
  5
F9
330
1F
100
AcDbEntity
  8
0
  6
Continuous
 62
     7
370
     0
100
AcDbMText
 10
595.4386166697
 20
587.1136904019
 30
0.0
 40
6.096
 41
0.0
 71
     2
 72
     1
  1
5
  7
SLDTEXTSTYLE0
 73
     1
 44
1.0
  0
MTEXT
  5
FA
330
1F
100
AcDbEntity
  8
0
  6
Continuous
 62
     7
370
     0
100
AcDbMText
 10
645.4386166697
 20
13.1136904019
 30
0.0
 40
6.096
 41
0.0
 71
     2
 72
     1
  1
4
  7
SLDTEXTSTYLE0
 73
     1
 44
1.0
  0
MTEXT
  5
FB
330
1F
100
AcDbEntity
  8
0
  6
Continuous
 62
     7
370
     0
100
AcDbMText
 10
645.4386166697
 20
587.1136904019
 30
0.0
 40
6.096
 41
0.0
 71
     2
 72
     1
  1
4
  7
SLDTEXTSTYLE0
 73
     1
 44
1.0
  0
MTEXT
  5
FC
330
1F
100
AcDbEntity
  8
0
  6
Continuous
 62
     7
370
     0
100
AcDbMText
 10
695.4386166697
 20
13.1136904019
 30
0.0
 40
6.096
 41
0.0
 71
     2
 72
     1
  1
3
  7
SLDTEXTSTYLE0
 73
     1
 44
1.0
  0
MTEXT
  5
FD
330
1F
100
AcDbEntity
  8
0
  6
Continuous
 62
     7
370
     0
100
AcDbMText
 10
695.4386166697
 20
587.1136904019
 30
0.0
 40
6.096
 41
0.0
 71
     2
 72
     1
  1
3
  7
SLDTEXTSTYLE0
 73
     1
 44
1.0
  0
MTEXT
  5
FE
330
1F
100
AcDbEntity
  8
0
  6
Continuous
 62
     7
370
     0
100
AcDbMText
 10
745.4386166697
 20
13.1136904019
 30
0.0
 40
6.096
 41
0.0
 71
     2
 72
     1
  1
2
  7
SLDTEXTSTYLE0
 73
     1
 44
1.0
  0
MTEXT
  5
FF
330
1F
100
AcDbEntity
  8
0
  6
Continuous
 62
     7
370
     0
100
AcDbMText
 10
745.4386166697
 20
587.1136904019
 30
0.0
 40
6.096
 41
0.0
 71
     2
 72
     1
  1
2
  7
SLDTEXTSTYLE0
 73
     1
 44
1.0
  0
MTEXT
  5
100
330
1F
100
AcDbEntity
  8
0
  6
Continuous
 62
     7
370
     0
100
AcDbMText
 10
805.6886166697
 20
13.1136904019
 30
0.0
 40
6.096
 41
0.0
 71
     2
 72
     1
  1
1
  7
SLDTEXTSTYLE0
 73
     1
 44
1.0
  0
MTEXT
  5
101
330
1F
100
AcDbEntity
  8
0
  6
Continuous
 62
     7
370
     0
100
AcDbMText
 10
805.6886166697
 20
587.1136904019
 30
0.0
 40
6.096
 41
0.0
 71
     2
 72
     1
  1
1
  7
SLDTEXTSTYLE0
 73
     1
 44
1.0
  0
MTEXT
  5
103
330
1F
100
AcDbEntity
  8
0
  6
Continuous
 62
     7
370
     0
100
AcDbMText
 10
641.6433628979
 20
52.3847813173
 30
0.0
 40
1.5
 41
0.0
 71
     1
 72
     1
  1
DRAWN
  7
SLDTEXTSTYLE1
 73
     1
 44
1.0
  0
MTEXT
  5
104
330
1F
100
AcDbEntity
  8
0
  6
Continuous
 62
     7
370
     0
100
AcDbMText
 10
641.9392221937
 20
48.1618530186
 30
0.0
 40
1.5
 41
0.0
 71
     1
 72
     1
  1
CHK'D
  7
SLDTEXTSTYLE0
 73
     1
 44
1.0
  0
MTEXT
  5
105
330
1F
100
AcDbEntity
  8
0
  6
Continuous
 62
     7
370
     0
100
AcDbMText
 10
641.4017224083
 20
44.0658666243
 30
0.0
 40
1.5
 41
0.0
 71
     1
 72
     1
  1
APPV'D
  7
SLDTEXTSTYLE0
 73
     1
 44
1.0
  0
MTEXT
  5
106
330
1F
100
AcDbEntity
  8
0
  6
Continuous
 62
     7
370
     0
100
AcDbMText
 10
642.1240107386
 20
39.7157844608
 30
0.0
 40
1.5
 41
0.0
 71
     1
 72
     1
  1
MFG
  7
SLDTEXTSTYLE0
 73
     1
 44
1.0
  0
MTEXT
  5
107
330
1F
100
AcDbEntity
  8
0
  6
Continuous
 62
     7
370
     0
100
AcDbMText
 10
642.509036604
 20
35.504662132
 30
0.0
 40
1.5
 41
0.0
 71
     1
 72
     1
  1
Q.A
  7
SLDTEXTSTYLE0
 73
     1
 44
1.0
  0
INSERT
  5
111
330
1F
100
AcDbEntity
  8
0
  6
Continuous
 62
     7
370
     0
100
AcDbBlockReference
  2
SW_NOTE_0
 10
641.5936687456
 20
71.9873698743
 30
0.0
  0
MTEXT
  5
112
330
1F
100
AcDbEntity
  8
0
  6
Continuous
 62
     7
370
     0
100
AcDbMText
 10
675.3712921668
 20
73.9192719951
 30
0.0
 40
1.5
 41
0.0
 71
     1
 72
     1
  1
FINISH:
  7
SLDTEXTSTYLE0
 73
     1
 44
1.0
  0
INSERT
  5
119
330
1F
100
AcDbEntity
  8
0
  6
Continuous
 62
     7
370
     0
100
AcDbBlockReference
  2
SW_NOTE_1
 10
722.3092156863
 20
72.069489643
 30
0.0
  0
MTEXT
  5
11A
330
1F
100
AcDbEntity
  8
0
  6
Continuous
 62
     7
370
     0
100
AcDbMText
 10
655.3222392177
 20
56.5014826335
 30
0.0
 40
1.5
 41
0.0
 71
     1
 72
     1
  1
NAME
  7
SLDTEXTSTYLE0
 73
     1
 44
1.0
  0
MTEXT
  5
11B
330
1F
100
AcDbEntity
  8
0
  6
Continuous
 62
     7
370
     0
100
AcDbMText
 10
671.0335875632
 20
56.5617563795
 30
0.0
 40
1.5
 41
0.0
 71
     1
 72
     1
  1
SIGNATURE
  7
SLDTEXTSTYLE0
 73
     1
 44
1.0
  0
MTEXT
  5
11C
330
1F
100
AcDbEntity
  8
0
  6
Continuous
 62
     7
370
     0
100
AcDbMText
 10
688.2147019657
 20
56.5761792212
 30
0.0
 40
1.5
 41
0.0
 71
     1
 72
     1
  1
DATE
  7
SLDTEXTSTYLE0
 73
     1
 44
1.0
  0
MTEXT
  5
11D
330
1F
100
AcDbEntity
  8
0
  6
Continuous
 62
     7
370
     0
100
AcDbMText
 10
696.6458623088
 20
35.9860562892
 30
0.0
 40
1.5
 41
0.0
 71
     1
 72
     1
  1
MATERIAL:
  7
SLDTEXTSTYLE0
 73
     1
 44
1.0
  0
MTEXT
  5
11E
330
1F
100
AcDbEntity
  8
0
  6
Continuous
 62
     7
370
     0
100
AcDbMText
 10
753.6146405229
 20
72.5329935751
 30
0.0
 40
1.5
 41
0.0
 71
     1
 72
     1
  1
DO NOT SCALE DRAWING
  7
SLDTEXTSTYLE0
 73
     1
 44
1.0
  0
MTEXT
  5
11F
330
1F
100
AcDbEntity
  8
0
  6
Continuous
 62
     7
370
     0
100
AcDbMText
 10
794.3275816993
 20
72.3349086805
 30
0.0
 40
1.5
 41
0.0
 71
     1
 72
     1
  1
REVISION
  7
SLDTEXTSTYLE0
 73
     1
 44
1.0
  0
MTEXT
  5
120
330
1F
100
AcDbEntity
  8
0
  6
Continuous
 62
     7
370
     0
100
AcDbMText
 10
741.090160639
 20
56.5761792212
 30
0.0
 40
1.5
 41
0.0
 71
     1
 72
     1
  1
TITLE:
  7
SLDTEXTSTYLE0
 73
     1
 44
1.0
  0
MTEXT
  5
121
330
1F
100
AcDbEntity
  8
0
  6
Continuous
 62
     7
370
     0
100
AcDbMText
 10
740.9530022162
 20
35.9860562892
 30
0.0
 40
1.5
 41
0.0
 71
     1
 72
     1
  1
DWG NO.
  7
SLDTEXTSTYLE0
 73
     1
 44
1.0
  0
MTEXT
  5
122
330
1F
100
AcDbEntity
  8
0
  6
Continuous
 62
     7
370
     0
100
AcDbMText
 10
741.0739661175
 20
22.9000872745
 30
0.0
 40
1.5
 41
0.0
 71
     1
 72
     1
  1
SCALE:1:2
  7
SLDTEXTSTYLE0
 73
     1
 44
1.0
  0
MTEXT
  5
124
330
1F
100
AcDbEntity
  8
0
  6
Continuous
 62
     7
370
     0
100
AcDbMText
 10
785.4782944278
 20
22.9000872745
 30
0.0
 40
1.5
 41
0.0
 71
     1
 72
     1
  1
SHEET 1 OF 2
  7
SLDTEXTSTYLE2
 73
     1
 44
1.0
  0
MTEXT
  5
125
330
1F
100
AcDbEntity
  8
0
  6
Continuous
 62
     7
370
     0
100
AcDbMText
 10
811.8711564346
 20
34.406388569
 30
0.0
 40
2.9104166667
 41
0.0
 71
     1
 72
     1
  1
A1
  7
SLDTEXTSTYLE0
 73
     1
 44
1.0
  0
MTEXT
  5
126
330
1F
100
AcDbEntity
  8
0
  6
Continuous
 62
     7
370
     0
100
AcDbMText
 10
696.6178111281
 20
22.9493119036
 30
0.0
 40
1.4986
 41
0.0
 71
     1
 72
     1
  1
WEIGHT:
  7
SLDTEXTSTYLE0
 73
     1
 44
1.0
  0
MTEXT
  5
127
330
1F
100
AcDbEntity
  8
0
  6
Continuous
 62
     7
370
     0
100
AcDbMText
 10
775.881331174
 20
33.6069109673
 30
0.0
 40
6.35
 41
0.0
 71
     2
 72
     1
  1
DrawingAutomation
  7
SLDTEXTSTYLE0
 73
     1
 44
1.0
  0
LINE
  5
128
330
1F
100
AcDbEntity
  8
0
  6
Continuous
 62
     7
370
    15
100
AcDbLine
 10
211.725
 20
214.2353071167
 30
0.0
 11
211.725
 21
156.4566666667
 31
0.0
  0
ARC
  5
129
330
1F
100
AcDbEntity
  8
0
  6
Continuous
 62
     7
370
    15
100
AcDbCircle
 10
199.225
 20
214.2353071167
 30
0.0
 40
12.49999999999999
100
AcDbArc
 50
0.0
 51
63.4349488229
  0
LINE
  5
12A
330
1F
100
AcDbEntity
  8
0
  6
Continuous
 62
     7
370
    15
100
AcDbLine
 10
182.8568650304
 20
236.3947994608
 30
0.0
 11
204.8151699437
 21
225.4156470042
 31
0.0
  0
ARC
  5
12B
330
1F
100
AcDbEntity
  8
0
  6
Continuous
 62
     7
370
    15
100
AcDbCircle
 10
181.7388310416
 20
234.1587314833
 30
0.0
 40
2.500000000000006
100
AcDbArc
 50
63.4349488229
 51
136.4787282325
  0
ARC
  5
12C
330
1F
100
AcDbEntity
  8
0
  6
Continuous
 62
     7
370
    15
100
AcDbCircle
 10
160.8916666667
 20
253.9566666667
 30
0.0
 40
26.25000000000004
100
AcDbArc
 50
286.8492796228
 51
316.4787282325
  0
ARC
  5
12D
330
1F
100
AcDbEntity
  8
0
  6
Continuous
 62
     7
370
    15
100
AcDbCircle
 10
169.225
 20
226.4408883648
 30
0.0
 40
2.5
100
AcDbArc
 50
106.8492796228
 51
180.0
  0
LINE
  5
12E
330
1F
100
AcDbEntity
  8
0
  6
Continuous
 62
     7
370
    15
100
AcDbLine
 10
166.725
 20
156.4566666667
 30
0.0
 11
166.725
 21
226.4408883648
 31
0.0
  0
ARC
  5
12F
330
1F
100
AcDbEntity
  8
0
  6
Continuous
 62
     7
370
    15
100
AcDbCircle
 10
171.725
 20
156.4566666667
 30
0.0
 40
5.0
100
AcDbArc
 50
180.0
 51
270.0
  0
LINE
  5
130
330
1F
100
AcDbEntity
  8
0
  6
Continuous
 62
     7
370
    15
100
AcDbLine
 10
206.725
 20
151.4566666667
 30
0.0
 11
171.725
 21
151.4566666667
 31
0.0
  0
ARC
  5
131
330
1F
100
AcDbEntity
  8
0
  6
Continuous
 62
     7
370
    15
100
AcDbCircle
 10
206.725
 20
156.4566666667
 30
0.0
 40
5.0
100
AcDbArc
 50
270.0
 51
0.0
  0
ARC
  5
132
330
1F
100
AcDbEntity
  8
0
  6
Continuous
 62
     7
370
    15
100
AcDbCircle
 10
160.8916666667
 20
253.9566666667
 30
0.0
 40
21.66666666666666
100
AcDbArc
 50
67.380135052
 51
180.0
  0
LINE
  5
133
330
1F
100
AcDbEntity
  8
0
  6
Continuous
 62
     7
370
    15
100
AcDbLine
 10
169.225
 20
273.9566666667
 30
0.0
 11
229.225
 21
243.9566666667
 31
0.0
  0
ARC
  5
134
330
1F
100
AcDbEntity
  8
0
  6
Continuous
 62
     7
370
    15
100
AcDbCircle
 10
214.225
 20
223.9566666667
 30
0.0
 40
25.00000000000003
100
AcDbArc
 50
0.0
 51
53.1301023542
  0
LINE
  5
135
330
1F
100
AcDbEntity
  8
0
  6
Continuous
 62
     7
370
    15
100
AcDbLine
 10
239.225
 20
123.9566666667
 30
0.0
 11
239.225
 21
223.9566666667
 31
0.0
  0
LINE
  5
136
330
1F
100
AcDbEntity
  8
0
  6
Continuous
 62
     7
370
    15
100
AcDbLine
 10
139.225
 20
123.9566666667
 30
0.0
 11
239.225
 21
123.9566666667
 31
0.0
  0
LINE
  5
137
330
1F
100
AcDbEntity
  8
0
  6
Continuous
 62
     7
370
    15
100
AcDbLine
 10
139.225
 20
123.9566666667
 30
0.0
 11
139.225
 21
253.9566666667
 31
0.0
  0
CIRCLE
  5
138
330
1F
100
AcDbEntity
  8
0
  6
Continuous
 62
     7
370
    15
100
AcDbCircle
 10
160.8916666667
 20
253.9566666667
 30
0.0
 40
6.999999999999972
  0
DIMENSION
  5
139
330
1F
100
AcDbEntity
  8
0
  6
Continuous
 62
     7
370
     0
100
AcDbDimension
  2
_D
 10
117.225
 20
253.9566666667
 30
0.0
 11
117.225
 21
188.9566666667
 31
0.0
 70
   160
  1
<>
 71
     1
 42
-1.0
  3
SLDDIMSTYLE0
100
AcDbAlignedDimension
 13
139.225
 23
123.9566666667
 33
0.0
 14
139.225
 24
253.9566666667
 34
0.0
 50
90.0
100
AcDbRotatedDimension
  0
DIMENSION
  5
145
330
1F
100
AcDbEntity
  8
0
  6
Continuous
 62
     7
370
     0
100
AcDbDimension
  2
_D_1
 10
249.225
 20
223.9566666667
 30
0.0
 11
249.225
 21
173.9566666667
 31
0.0
 70
   160
  1
<>
 71
     1
 42
-1.0
  3
SLDDIMSTYLE0
100
AcDbAlignedDimension
 13
239.225
 23
123.9566666667
 33
0.0
 14
239.225
 24
223.9566666667
 34
0.0
 50
90.0
100
AcDbRotatedDimension
  0
DIMENSION
  5
150
330
1F
100
AcDbEntity
  8
0
  6
Continuous
 62
     7
370
     0
100
AcDbDimension
  2
_D_2
 10
239.225
 20
107.9566666667
 30
0.0
 11
189.225
 21
107.9566666667
 31
0.0
 70
   160
  1
<>
 71
     1
 42
-1.0
  3
SLDDIMSTYLE0
100
AcDbAlignedDimension
 13
139.225
 23
123.9566666667
 33
0.0
 14
239.225
 24
123.9566666667
 34
0.0
 50
0.0
100
AcDbRotatedDimension
  0
DIMENSION
  5
15B
330
1F
100
AcDbEntity
  8
0
  6
Continuous
 62
     7
370
     0
100
AcDbDimension
  2
_D_3
 10
239.225
 20
113.9566666667
 30
0.0
 11
225.475
 21
113.9566666667
 31
0.0
 70
   160
  1
<>
 71
     1
 42
-1.0
  3
SLDDIMSTYLE0
100
AcDbAlignedDimension
 13
211.725
 23
186.7086993214
 33
0.0
 14
239.225
 24
186.7086993214
 34
0.0
100
AcDbRotatedDimension
  0
DIMENSION
  5
166
330
1F
100
AcDbEntity
  8
0
  6
Continuous
 62
     7
370
     0
100
AcDbDimension
  2
_D_4
 10
206.725
 20
156.4566666667
 30
0.0
 11
260.740813253
 21
113.9566666667
 31
0.0
 70
   164
  1
<>
 71
     1
 42
-1.0
  3
SLDDIMSTYLE1
100
AcDbRadialDimension
 15
210.2992714699
 25
152.9602994864
 35
0.0
 40
0.0
  0
DIMENSION
  5
170
330
1F
100
AcDbEntity
  8
0
  6
Continuous
 62
     7
370
     0
100
AcDbDimension
  2
_D_5
 10
199.225
 20
214.2353071167
 30
0.0
 11
260.740813253
 21
264.2353071167
 31
0.0
 70
   164
  1
<>
 71
     1
 42
-1.0
  3
SLDDIMSTYLE1
100
AcDbRadialDimension
 15
208.1463576022
 25
222.9908412828
 35
0.0
 40
0.0
  0
DIMENSION
  5
179
330
1F
100
AcDbEntity
  8
0
  6
Continuous
 62
     7
370
     0
100
AcDbDimension
  2
_D_6
 10
181.7388310416
 20
234.1587314833
 30
0.0
 11
119.951187023
 21
285.6233333333
 31
0.0
 70
   164
  1
<>
 71
     1
 42
-1.0
  3
SLDDIMSTYLE1
100
AcDbRadialDimension
 15
179.9529730736
 25
235.9082203567
 35
0.0
 40
0.0
  0
DIMENSION
  5
182
330
1F
100
AcDbEntity
  8
0
  6
Continuous
 62
     7
370
     0
100
AcDbDimension
  2
_D_7
 10
129.225
 20
260.9566666667
 30
0.0
 11
129.225
 21
253.9566666667
 31
0.0
 70
   160
  1
%%c<>
 71
     1
 42
-1.0
  3
SLDDIMSTYLE2
100
AcDbAlignedDimension
 13
160.8916666667
 23
246.9566666667
 33
0.0
 14
160.8916666667
 24
260.9566666667
 34
0.0
 50
90.0
100
AcDbRotatedDimension
  0
INSERT
  5
193
330
1F
100
AcDbEntity
  8
0
  6
Continuous
 62
     7
370
     0
100
AcDbBlockReference
  2
SW_NOTE_2
 10
140.5531478555
 20
275.6627091601
 30
0.0
  0
LEADER
  5
195
330
1F
100
AcDbEntity
  8
0
  6
Continuous
 62
     7
370
     0
100
AcDbLeader
  3
SLDDIMSTYLE3
 76
     2
 10
146.4531372431
 20
261.4126285821
 30
0.0
 10
140.5531478555
 20
275.6627091601
 30
0.0
  0
INSERT
  5
19C
330
1F
100
AcDbEntity
  8
0
  6
Continuous
 62
     7
370
     0
100
AcDbBlockReference
  2
SW_NOTE_3
 10
230.8258710142
 20
261.2828313637
 30
0.0
  0
LEADER
  5
1A6
330
1F
100
AcDbEntity
  8
0
  6
Continuous
 62
     7
370
     0
100
AcDbLeader
  3
SLDDIMSTYLE4
 76
     2
 10
224.0421111624
 20
232.7443285496
 30
0.0
 10
230.8258710142
 20
261.2828313637
 30
0.0
  0
INSERT
  5
1AB
330
1F
100
AcDbEntity
  8
0
  6
Continuous
 62
     7
370
     0
100
AcDbBlockReference
  2
SW_NOTE_4
 10
196.0863453815
 20
277.8715445015
 30
0.0
  0
LEADER
  5
1AC
330
1F
100
AcDbEntity
  8
0
  6
Continuous
 62
     7
370
     0
100
AcDbLeader
  3
SLDDIMSTYLE3
 76
     2
 10
197.0446101399
 20
260.0468615967
 30
0.0
 10
196.0863453815
 20
277.8715445015
 30
0.0
  0
INSERT
  5
1B4
330
1F
100
AcDbEntity
  8
0
  6
Continuous
 62
     7
370
     0
100
AcDbBlockReference
  2
SW_NOTE_5
 10
180.2234381329
 20
198.5542754252
 30
0.0
  0
LEADER
  5
1B5
330
1F
100
AcDbEntity
  8
0
  6
Continuous
 62
     7
370
     0
100
AcDbLeader
  3
SLDDIMSTYLE3
 76
     2
 10
166.725
 20
184.3830789767
 30
0.0
 10
180.2234381329
 20
198.5542754252
 30
0.0
  0
LINE
  5
1B6
330
1F
100
AcDbEntity
  8
0
  6
Continuous
 62
     7
370
    15
100
AcDbLine
 10
144.6416666667
 20
450.64
 30
0.0
 11
144.6416666667
 21
434.14
 31
0.0
  0
LINE
  5
1B7
330
1F
100
AcDbEntity
  8
0
  6
Continuous
 62
     7
370
    15
100
AcDbLine
 10
177.1416666667
 20
434.14
 30
0.0
 11
177.1416666667
 21
450.64
 31
0.0
  0
LINE
  5
1B8
330
1F
100
AcDbEntity
  8
0
  6
Continuous
 62
     7
370
    15
100
AcDbLine
 10
169.225
 20
424.14
 30
0.0
 11
169.225
 21
434.14
 31
0.0
  0
LINE
  5
1B9
330
1F
100
AcDbEntity
  8
0
  6
Continuous
 62
     7
370
    15
100
AcDbLine
 10
139.225
 20
424.14
 30
0.0
 11
169.225
 21
424.14
 31
0.0
  0
LINE
  5
1BA
330
1F
100
AcDbEntity
  8
0
  6
Continuous
 62
     7
370
    15
100
AcDbLine
 10
139.225
 20
424.14
 30
0.0
 11
139.225
 21
434.14
 31
0.0
  0
LINE
  5
1BB
330
1F
100
AcDbEntity
  8
0
  6
Continuous
 62
     7
370
    15
100
AcDbLine
 10
139.225
 20
434.14
 30
0.0
 11
169.225
 21
434.14
 31
0.0
  0
LINE
  5
1BC
330
1F
100
AcDbEntity
  8
0
  6
Continuous
 62
     7
370
    15
100
AcDbLine
 10
229.225
 20
424.14
 30
0.0
 11
229.225
 21
434.14
 31
0.0
  0
LINE
  5
1BD
330
1F
100
AcDbEntity
  8
0
  6
Continuous
 62
     7
370
    15
100
AcDbLine
 10
169.225
 20
424.14
 30
0.0
 11
229.225
 21
424.14
 31
0.0
  0
LINE
  5
1BE
330
1F
100
AcDbEntity
  8
0
  6
Continuous
 62
     7
370
    15
100
AcDbLine
 10
169.225
 20
434.14
 30
0.0
 11
229.225
 21
434.14
 31
0.0
  0
LINE
  5
1BF
330
1F
100
AcDbEntity
  8
0
  6
Continuous
 62
     7
370
    15
100
AcDbLine
 10
239.225
 20
424.14
 30
0.0
 11
239.225
 21
434.14
 31
0.0
  0
LINE
  5
1C0
330
1F
100
AcDbEntity
  8
0
  6
Continuous
 62
     7
370
    15
100
AcDbLine
 10
239.225
 20
424.14
 30
0.0
 11
229.225
 21
424.14
 31
0.0
  0
LINE
  5
1C1
330
1F
100
AcDbEntity
  8
0
  6
Continuous
 62
     7
370
    15
100
AcDbLine
 10
239.225
 20
434.14
 30
0.0
 11
229.225
 21
434.14
 31
0.0
  0
LINE
  5
1C2
330
1F
100
AcDbEntity
  8
0
  6
Continuous
 62
     7
370
    15
100
AcDbLine
 10
177.1416666667
 20
450.64
 30
0.0
 11
144.6416666667
 21
450.64
 31
0.0
  0
DIMENSION
  5
1C3
330
1F
100
AcDbEntity
  8
0
  6
Continuous
 62
     7
370
     0
100
AcDbDimension
  2
_D_8
 10
129.225
 20
434.14
 30
0.0
 11
129.225
 21
442.39
 31
0.0
 70
   160
  1
<>
 71
     1
 42
-1.0
  3
SLDDIMSTYLE2
100
AcDbAlignedDimension
 13
177.1416666667
 23
450.64
 33
0.0
 14
177.1416666667
 24
434.14
 34
0.0
 50
90.0
100
AcDbRotatedDimension
  0
DIMENSION
  5
1CE
330
1F
100
AcDbEntity
  8
0
  6
Continuous
 62
     7
370
     0
100
AcDbDimension
  2
_D_9
 10
249.225
 20
424.14
 30
0.0
 11
249.225
 21
429.14
 31
0.0
 70
   160
  1
<>
 71
     1
 42
-1.0
  3
SLDDIMSTYLE2
100
AcDbAlignedDimension
 13
239.225
 23
434.14
 33
0.0
 14
239.225
 24
424.14
 34
0.0
 50
90.0
100
AcDbRotatedDimension
  0
LINE
  5
1D9
330
1F
100
AcDbEntity
  8
0
  6
Continuous
 62
     7
370
    15
100
AcDbLine
 10
480.325
 20
275.6233333333
 30
0.0
 11
470.325
 21
275.6233333333
 31
0.0
  0
LINE
  5
1DA
330
1F
100
AcDbEntity
  8
0
  6
Continuous
 62
     7
370
    15
100
AcDbLine
 10
496.825
 20
270.2066666667
 30
0.0
 11
480.325
 21
270.2066666667
 31
0.0
  0
LINE
  5
1DB
330
1F
100
AcDbEntity
  8
0
  6
Continuous
 62
     7
370
    15
100
AcDbLine
 10
480.325
 20
237.7066666667
 30
0.0
 11
496.825
 21
237.7066666667
 31
0.0
  0
LINE
  5
1DC
330
1F
100
AcDbEntity
  8
0
  6
Continuous
 62
     7
370
    15
100
AcDbLine
 10
470.325
 20
223.9566666667
 30
0.0
 11
480.325
 21
223.9566666667
 31
0.0
  0
LINE
  5
1DD
330
1F
100
AcDbEntity
  8
0
  6
Continuous
 62
     7
370
    15
100
AcDbLine
 10
470.325
 20
223.9566666667
 30
0.0
 11
470.325
 21
243.9566666667
 31
0.0
  0
LINE
  5
1DE
330
1F
100
AcDbEntity
  8
0
  6
Continuous
 62
     7
370
    15
100
AcDbLine
 10
470.325
 20
243.9566666667
 30
0.0
 11
480.325
 21
243.9566666667
 31
0.0
  0
LINE
  5
1DF
330
1F
100
AcDbEntity
  8
0
  6
Continuous
 62
     7
370
    15
100
AcDbLine
 10
480.325
 20
223.9566666667
 30
0.0
 11
480.325
 21
243.9566666667
 31
0.0
  0
LINE
  5
1E0
330
1F
100
AcDbEntity
  8
0
  6
Continuous
 62
     7
370
    15
100
AcDbLine
 10
470.325
 20
123.9566666667
 30
0.0
 11
480.325
 21
123.9566666667
 31
0.0
  0
LINE
  5
1E1
330
1F
100
AcDbEntity
  8
0
  6
Continuous
 62
     7
370
    15
100
AcDbLine
 10
470.325
 20
123.9566666667
 30
0.0
 11
470.325
 21
223.9566666667
 31
0.0
  0
LINE
  5
1E2
330
1F
100
AcDbEntity
  8
0
  6
Continuous
 62
     7
370
    15
100
AcDbLine
 10
480.325
 20
123.9566666667
 30
0.0
 11
480.325
 21
223.9566666667
 31
0.0
  0
LINE
  5
1E3
330
1F
100
AcDbEntity
  8
0
  6
Continuous
 62
     7
370
    15
100
AcDbLine
 10
470.325
 20
273.9566666667
 30
0.0
 11
480.325
 21
273.9566666667
 31
0.0
  0
LINE
  5
1E4
330
1F
100
AcDbEntity
  8
0
  6
Continuous
 62
     7
370
    15
100
AcDbLine
 10
470.325
 20
273.9566666667
 30
0.0
 11
470.325
 21
243.9566666667
 31
0.0
  0
LINE
  5
1E5
330
1F
100
AcDbEntity
  8
0
  6
Continuous
 62
     7
370
    15
100
AcDbLine
 10
480.325
 20
273.9566666667
 30
0.0
 11
480.325
 21
243.9566666667
 31
0.0
  0
LINE
  5
1E6
330
1F
100
AcDbEntity
  8
0
  6
Continuous
 62
     7
370
    15
100
AcDbLine
 10
470.325
 20
275.6233333333
 30
0.0
 11
470.325
 21
273.9566666667
 31
0.0
  0
LINE
  5
1E7
330
1F
100
AcDbEntity
  8
0
  6
Continuous
 62
     7
370
    15
100
AcDbLine
 10
480.325
 20
275.6233333333
 30
0.0
 11
480.325
 21
273.9566666667
 31
0.0
  0
LINE
  5
1E8
330
1F
100
AcDbEntity
  8
0
  6
Continuous
 62
     7
370
    15
100
AcDbLine
 10
496.825
 20
253.9566666667
 30
0.0
 11
496.825
 21
270.2066666667
 31
0.0
  0
LINE
  5
1E9
330
1F
100
AcDbEntity
  8
0
  6
Continuous
 62
     7
370
    15
100
AcDbLine
 10
496.825
 20
237.7066666667
 30
0.0
 11
496.825
 21
253.9566666667
 31
0.0
  0
DIMENSION
  5
1EA
330
1F
100
AcDbEntity
  8
0
  6
Continuous
 62
     7
370
     0
100
AcDbDimension
  2
_D_10
 10
506.825
 20
237.7066666667
 30
0.0
 11
506.825
 21
253.9566666667
 31
0.0
 70
   160
  1
%%c<>
 71
     1
 42
-1.0
  3
SLDDIMSTYLE0
100
AcDbAlignedDimension
 13
496.825
 23
270.2066666667
 33
0.0
 14
496.825
 24
237.7066666667
 34
0.0
 50
90.0
100
AcDbRotatedDimension
  0
VIEWPORT
  5
1F6
330
1B
100
AcDbEntity
 67
     1
  8
0
100
AcDbViewport
 10
420.5
 20
297.0
 30
0.0
 40
889.778
 41
628.452
 68
     1
 69
     1
 12
420.5
 22
297.0
 13
0.0
 23
0.0
 14
10.0
 24
10.0
 15
10.0
 25
10.0
 16
0.0
 26
0.0
 36
1.0
 17
0.0
 27
0.0
 37
0.0
 42
50.0
 43
0.0
 44
0.0
 45
628.452
 50
0.0
 51
0.0
 72
   100
 90
   557152
  1

281
     0
 71
     1
 74
     0
110
0.0
120
0.0
130
0.0
111
1.0
121
0.0
131
0.0
112
0.0
122
1.0
132
0.0
 79
     0
146
0.0
  0
LINE
  5
1F8
330
1B
100
AcDbEntity
 67
     1
  8
0
  6
Continuous
 62
     7
370
    40
100
AcDbLine
 10
641.0
 20
24.25
 30
0.0
 11
821.0
 21
24.25
 31
0.0
  0
LINE
  5
1F9
330
1B
100
AcDbEntity
 67
     1
  8
0
  6
Continuous
 62
     7
370
    40
100
AcDbLine
 10
821.0
 20
58.25
 30
0.0
 11
641.0
 21
58.25
 31
0.0
  0
LINE
  5
1FA
330
1B
100
AcDbEntity
 67
     1
  8
0
  6
Continuous
 62
     7
370
    40
100
AcDbLine
 10
641.0
 20
75.25
 30
0.0
 11
821.0
 21
75.25
 31
0.0
  0
LINE
  5
1FB
330
1B
100
AcDbEntity
 67
     1
  8
0
  6
Continuous
 62
     7
370
    40
100
AcDbLine
 10
667.9909524338
 20
58.25
 30
0.0
 11
667.9909524338
 21
20.0
 31
0.0
  0
LINE
  5
1FC
330
1B
100
AcDbEntity
 67
     1
  8
0
  6
Continuous
 62
     7
370
    40
100
AcDbLine
 10
739.8
 20
41.25
 30
0.0
 11
641.0
 21
41.25
 31
0.0
  0
LINE
  5
1FD
330
1B
100
AcDbEntity
 67
     1
  8
0
  6
Continuous
 62
     7
370
    40
100
AcDbLine
 10
739.8
 20
45.5
 30
0.0
 11
641.0
 21
45.5
 31
0.0
  0
LINE
  5
1FE
330
1B
100
AcDbEntity
 67
     1
  8
0
  6
Continuous
 62
     7
370
    40
100
AcDbLine
 10
739.8
 20
49.75
 30
0.0
 11
641.0
 21
49.75
 31
0.0
  0
LINE
  5
1FF
330
1B
100
AcDbEntity
 67
     1
  8
0
  6
Continuous
 62
     7
370
    40
100
AcDbLine
 10
739.8
 20
54.0
 30
0.0
 11
641.0
 21
54.0
 31
0.0
  0
LINE
  5
200
330
1B
100
AcDbEntity
 67
     1
  8
0
  6
Continuous
 62
     7
370
    40
100
AcDbLine
 10
695.6
 20
20.0
 30
0.0
 11
695.6
 21
58.25
 31
0.0
  0
LINE
  5
201
330
1B
100
AcDbEntity
 67
     1
  8
0
  6
Continuous
 62
     7
370
    40
100
AcDbLine
 10
641.0
 20
75.25
 30
0.0
 11
641.0
 21
20.0
 31
0.0
  0
LINE
  5
202
330
1B
100
AcDbEntity
 67
     1
  8
0
  6
Continuous
 62
     7
370
    40
100
AcDbLine
 10
648.8
 20
58.25
 30
0.0
 11
648.8
 21
20.0
 31
0.0
  0
LINE
  5
203
330
1B
100
AcDbEntity
 67
     1
  8
0
  6
Continuous
 62
     7
370
    40
100
AcDbLine
 10
674.8
 20
58.25
 30
0.0
 11
674.8
 21
75.25
 31
0.0
  0
LINE
  5
204
330
1B
100
AcDbEntity
 67
     1
  8
0
  6
Continuous
 62
     7
370
    40
100
AcDbLine
 10
685.3989261635
 20
58.25
 30
0.0
 11
685.3989261635
 21
20.0
 31
0.0
  0
LINE
  5
205
330
1B
100
AcDbEntity
 67
     1
  8
0
  6
Continuous
 62
     7
370
    40
100
AcDbLine
 10
706.0
 20
41.25
 30
0.0
 11
706.0
 21
58.25
 31
0.0
  0
LINE
  5
206
330
1B
100
AcDbEntity
 67
     1
  8
0
  6
Continuous
 62
     7
370
    40
100
AcDbLine
 10
695.6
 20
28.5
 30
0.0
 11
641.0
 21
28.5
 31
0.0
  0
LINE
  5
207
330
1B
100
AcDbEntity
 67
     1
  8
0
  6
Continuous
 62
     7
370
    40
100
AcDbLine
 10
721.6
 20
75.25
 30
0.0
 11
721.6
 21
37.0
 31
0.0
  0
LINE
  5
208
330
1B
100
AcDbEntity
 67
     1
  8
0
  6
Continuous
 62
     7
370
    40
100
AcDbLine
 10
695.6
 20
32.749928
 30
0.0
 11
641.0
 21
32.749928
 31
0.0
  0
LINE
  5
209
330
1B
100
AcDbEntity
 67
     1
  8
0
  6
Continuous
 62
     7
370
    40
100
AcDbLine
 10
695.6
 20
37.0
 30
0.0
 11
641.0
 21
37.0
 31
0.0
  0
LINE
  5
20A
330
1B
100
AcDbEntity
 67
     1
  8
0
  6
Continuous
 62
     7
370
    40
100
AcDbLine
 10
695.6
 20
37.0
 30
0.0
 11
821.0
 21
37.0
 31
0.0
  0
LINE
  5
20B
330
1B
100
AcDbEntity
 67
     1
  8
0
  6
Continuous
 62
     7
370
    40
100
AcDbLine
 10
739.8
 20
75.25
 30
0.0
 11
739.8
 21
20.0
 31
0.0
  0
LINE
  5
20C
330
1B
100
AcDbEntity
 67
     1
  8
0
  6
Continuous
 62
     7
370
    40
100
AcDbLine
 10
784.0
 20
20.0
 30
0.0
 11
784.0
 21
24.25
 31
0.0
  0
LINE
  5
20D
330
1B
100
AcDbEntity
 67
     1
  8
0
  6
Continuous
 62
     7
370
    40
100
AcDbLine
 10
791.8
 20
68.875
 30
0.0
 11
791.8
 21
75.25
 31
0.0
  0
LINE
  5
20E
330
1B
100
AcDbEntity
 67
     1
  8
0
  6
Continuous
 62
     7
370
    40
100
AcDbLine
 10
808.0
 20
24.25
 30
0.0
 11
808.0
 21
37.0
 31
0.0
  0
LINE
  5
20F
330
1B
100
AcDbEntity
 67
     1
  8
0
  6
Continuous
 62
     7
370
    40
100
AcDbLine
 10
821.0
 20
68.875
 30
0.0
 11
739.8
 21
68.875
 31
0.0
  0
LINE
  5
210
330
1B
100
AcDbEntity
 67
     1
  8
0
  6
Continuous
 62
     7
370
    40
100
AcDbLine
 10
821.0
 20
28.5
 30
0.0
 11
808.0
 21
28.5
 31
0.0
  0
LINE
  5
211
330
1B
100
AcDbEntity
 67
     1
  8
0
  6
Continuous
 62
     7
370
    60
100
AcDbLine
 10
20.0
 20
20.0
 30
0.0
 11
20.0
 21
574.0
 31
0.0
  0
LINE
  5
212
330
1B
100
AcDbEntity
 67
     1
  8
0
  6
Continuous
 62
     7
370
    60
100
AcDbLine
 10
20.0
 20
574.0
 30
0.0
 11
821.0
 21
574.0
 31
0.0
  0
LINE
  5
213
330
1B
100
AcDbEntity
 67
     1
  8
0
  6
Continuous
 62
     7
370
    60
100
AcDbLine
 10
821.0
 20
574.0
 30
0.0
 11
821.0
 21
20.0
 31
0.0
  0
LINE
  5
214
330
1B
100
AcDbEntity
 67
     1
  8
0
  6
Continuous
 62
     7
370
    60
100
AcDbLine
 10
821.0
 20
20.0
 30
0.0
 11
20.0
 21
20.0
 31
0.0
  0
LINE
  5
215
330
1B
100
AcDbEntity
 67
     1
  8
0
  6
Continuous
 62
     7
370
    30
100
AcDbLine
 10
2.5
 20
297.0
 30
0.0
 11
20.0
 21
297.0
 31
0.0
  0
LINE
  5
216
330
1B
100
AcDbEntity
 67
     1
  8
0
  6
Continuous
 62
     7
370
    30
100
AcDbLine
 10
420.5
 20
591.5
 30
0.0
 11
420.5
 21
574.0
 31
0.0
  0
LINE
  5
217
330
1B
100
AcDbEntity
 67
     1
  8
0
  6
Continuous
 62
     7
370
    30
100
AcDbLine
 10
838.5
 20
297.0
 30
0.0
 11
821.0
 21
297.0
 31
0.0
  0
LINE
  5
218
330
1B
100
AcDbEntity
 67
     1
  8
0
  6
Continuous
 62
     7
370
    30
100
AcDbLine
 10
420.5
 20
2.5
 30
0.0
 11
420.5
 21
20.0
 31
0.0
  0
LINE
  5
219
330
1B
100
AcDbEntity
 67
     1
  8
0
  6
Continuous
 62
     7
370
    30
100
AcDbLine
 10
20.0
 20
47.0
 30
0.0
 11
2.5
 21
47.0
 31
0.0
  0
LINE
  5
21A
330
1B
100
AcDbEntity
 67
     1
  8
0
  6
Continuous
 62
     7
370
    30
100
AcDbLine
 10
821.0
 20
47.0
 30
0.0
 11
838.5
 21
47.0
 31
0.0
  0
LINE
  5
21B
330
1B
100
AcDbEntity
 67
     1
  8
0
  6
Continuous
 62
     7
370
    30
100
AcDbLine
 10
20.0
 20
97.0
 30
0.0
 11
2.5
 21
97.0
 31
0.0
  0
LINE
  5
21C
330
1B
100
AcDbEntity
 67
     1
  8
0
  6
Continuous
 62
     7
370
    30
100
AcDbLine
 10
821.0
 20
97.0
 30
0.0
 11
838.5
 21
97.0
 31
0.0
  0
LINE
  5
21D
330
1B
100
AcDbEntity
 67
     1
  8
0
  6
Continuous
 62
     7
370
    30
100
AcDbLine
 10
20.0
 20
147.0
 30
0.0
 11
2.5
 21
147.0
 31
0.0
  0
LINE
  5
21E
330
1B
100
AcDbEntity
 67
     1
  8
0
  6
Continuous
 62
     7
370
    30
100
AcDbLine
 10
821.0
 20
147.0
 30
0.0
 11
838.5
 21
147.0
 31
0.0
  0
LINE
  5
21F
330
1B
100
AcDbEntity
 67
     1
  8
0
  6
Continuous
 62
     7
370
    30
100
AcDbLine
 10
20.0
 20
197.0
 30
0.0
 11
2.5
 21
197.0
 31
0.0
  0
LINE
  5
220
330
1B
100
AcDbEntity
 67
     1
  8
0
  6
Continuous
 62
     7
370
    30
100
AcDbLine
 10
821.0
 20
197.0
 30
0.0
 11
838.5
 21
197.0
 31
0.0
  0
LINE
  5
221
330
1B
100
AcDbEntity
 67
     1
  8
0
  6
Continuous
 62
     7
370
    30
100
AcDbLine
 10
20.0
 20
247.0
 30
0.0
 11
2.5
 21
247.0
 31
0.0
  0
LINE
  5
222
330
1B
100
AcDbEntity
 67
     1
  8
0
  6
Continuous
 62
     7
370
    30
100
AcDbLine
 10
821.0
 20
247.0
 30
0.0
 11
838.5
 21
247.0
 31
0.0
  0
LINE
  5
223
330
1B
100
AcDbEntity
 67
     1
  8
0
  6
Continuous
 62
     7
370
    30
100
AcDbLine
 10
20.0
 20
297.0
 30
0.0
 11
2.5
 21
297.0
 31
0.0
  0
LINE
  5
224
330
1B
100
AcDbEntity
 67
     1
  8
0
  6
Continuous
 62
     7
370
    30
100
AcDbLine
 10
821.0
 20
297.0
 30
0.0
 11
838.5
 21
297.0
 31
0.0
  0
LINE
  5
225
330
1B
100
AcDbEntity
 67
     1
  8
0
  6
Continuous
 62
     7
370
    30
100
AcDbLine
 10
20.0
 20
347.0
 30
0.0
 11
2.5
 21
347.0
 31
0.0
  0
LINE
  5
226
330
1B
100
AcDbEntity
 67
     1
  8
0
  6
Continuous
 62
     7
370
    30
100
AcDbLine
 10
821.0
 20
347.0
 30
0.0
 11
838.5
 21
347.0
 31
0.0
  0
LINE
  5
227
330
1B
100
AcDbEntity
 67
     1
  8
0
  6
Continuous
 62
     7
370
    30
100
AcDbLine
 10
20.0
 20
397.0
 30
0.0
 11
2.5
 21
397.0
 31
0.0
  0
LINE
  5
228
330
1B
100
AcDbEntity
 67
     1
  8
0
  6
Continuous
 62
     7
370
    30
100
AcDbLine
 10
821.0
 20
397.0
 30
0.0
 11
838.5
 21
397.0
 31
0.0
  0
LINE
  5
229
330
1B
100
AcDbEntity
 67
     1
  8
0
  6
Continuous
 62
     7
370
    30
100
AcDbLine
 10
20.0
 20
447.0
 30
0.0
 11
2.5
 21
447.0
 31
0.0
  0
LINE
  5
22A
330
1B
100
AcDbEntity
 67
     1
  8
0
  6
Continuous
 62
     7
370
    30
100
AcDbLine
 10
821.0
 20
447.0
 30
0.0
 11
838.5
 21
447.0
 31
0.0
  0
LINE
  5
22B
330
1B
100
AcDbEntity
 67
     1
  8
0
  6
Continuous
 62
     7
370
    30
100
AcDbLine
 10
20.0
 20
497.0
 30
0.0
 11
2.5
 21
497.0
 31
0.0
  0
LINE
  5
22C
330
1B
100
AcDbEntity
 67
     1
  8
0
  6
Continuous
 62
     7
370
    30
100
AcDbLine
 10
821.0
 20
497.0
 30
0.0
 11
838.5
 21
497.0
 31
0.0
  0
LINE
  5
22D
330
1B
100
AcDbEntity
 67
     1
  8
0
  6
Continuous
 62
     7
370
    30
100
AcDbLine
 10
20.0
 20
547.0
 30
0.0
 11
2.5
 21
547.0
 31
0.0
  0
LINE
  5
22E
330
1B
100
AcDbEntity
 67
     1
  8
0
  6
Continuous
 62
     7
370
    30
100
AcDbLine
 10
821.0
 20
547.0
 30
0.0
 11
838.5
 21
547.0
 31
0.0
  0
LINE
  5
22F
330
1B
100
AcDbEntity
 67
     1
  8
0
  6
Continuous
 62
     7
370
    30
100
AcDbLine
 10
70.5
 20
574.0
 30
0.0
 11
70.5
 21
591.5
 31
0.0
  0
LINE
  5
230
330
1B
100
AcDbEntity
 67
     1
  8
0
  6
Continuous
 62
     7
370
    30
100
AcDbLine
 10
70.5
 20
20.0
 30
0.0
 11
70.5
 21
2.5
 31
0.0
  0
LINE
  5
231
330
1B
100
AcDbEntity
 67
     1
  8
0
  6
Continuous
 62
     7
370
    30
100
AcDbLine
 10
120.5
 20
574.0
 30
0.0
 11
120.5
 21
591.5
 31
0.0
  0
LINE
  5
232
330
1B
100
AcDbEntity
 67
     1
  8
0
  6
Continuous
 62
     7
370
    30
100
AcDbLine
 10
120.5
 20
20.0
 30
0.0
 11
120.5
 21
2.5
 31
0.0
  0
LINE
  5
233
330
1B
100
AcDbEntity
 67
     1
  8
0
  6
Continuous
 62
     7
370
    30
100
AcDbLine
 10
170.5
 20
574.0
 30
0.0
 11
170.5
 21
591.5
 31
0.0
  0
LINE
  5
234
330
1B
100
AcDbEntity
 67
     1
  8
0
  6
Continuous
 62
     7
370
    30
100
AcDbLine
 10
170.5
 20
20.0
 30
0.0
 11
170.5
 21
2.5
 31
0.0
  0
LINE
  5
235
330
1B
100
AcDbEntity
 67
     1
  8
0
  6
Continuous
 62
     7
370
    30
100
AcDbLine
 10
220.5
 20
574.0
 30
0.0
 11
220.5
 21
591.5
 31
0.0
  0
LINE
  5
236
330
1B
100
AcDbEntity
 67
     1
  8
0
  6
Continuous
 62
     7
370
    30
100
AcDbLine
 10
220.5
 20
20.0
 30
0.0
 11
220.5
 21
2.5
 31
0.0
  0
LINE
  5
237
330
1B
100
AcDbEntity
 67
     1
  8
0
  6
Continuous
 62
     7
370
    30
100
AcDbLine
 10
270.5
 20
574.0
 30
0.0
 11
270.5
 21
591.5
 31
0.0
  0
LINE
  5
238
330
1B
100
AcDbEntity
 67
     1
  8
0
  6
Continuous
 62
     7
370
    30
100
AcDbLine
 10
270.5
 20
20.0
 30
0.0
 11
270.5
 21
2.5
 31
0.0
  0
LINE
  5
239
330
1B
100
AcDbEntity
 67
     1
  8
0
  6
Continuous
 62
     7
370
    30
100
AcDbLine
 10
320.5
 20
574.0
 30
0.0
 11
320.5
 21
591.5
 31
0.0
  0
LINE
  5
23A
330
1B
100
AcDbEntity
 67
     1
  8
0
  6
Continuous
 62
     7
370
    30
100
AcDbLine
 10
320.5
 20
20.0
 30
0.0
 11
320.5
 21
2.5
 31
0.0
  0
LINE
  5
23B
330
1B
100
AcDbEntity
 67
     1
  8
0
  6
Continuous
 62
     7
370
    30
100
AcDbLine
 10
370.5
 20
574.0
 30
0.0
 11
370.5
 21
591.5
 31
0.0
  0
LINE
  5
23C
330
1B
100
AcDbEntity
 67
     1
  8
0
  6
Continuous
 62
     7
370
    30
100
AcDbLine
 10
370.5
 20
20.0
 30
0.0
 11
370.5
 21
2.5
 31
0.0
  0
LINE
  5
23D
330
1B
100
AcDbEntity
 67
     1
  8
0
  6
Continuous
 62
     7
370
    30
100
AcDbLine
 10
420.5
 20
574.0
 30
0.0
 11
420.5
 21
591.5
 31
0.0
  0
LINE
  5
23E
330
1B
100
AcDbEntity
 67
     1
  8
0
  6
Continuous
 62
     7
370
    30
100
AcDbLine
 10
420.5
 20
20.0
 30
0.0
 11
420.5
 21
2.5
 31
0.0
  0
LINE
  5
23F
330
1B
100
AcDbEntity
 67
     1
  8
0
  6
Continuous
 62
     7
370
    30
100
AcDbLine
 10
470.5
 20
574.0
 30
0.0
 11
470.5
 21
591.5
 31
0.0
  0
LINE
  5
240
330
1B
100
AcDbEntity
 67
     1
  8
0
  6
Continuous
 62
     7
370
    30
100
AcDbLine
 10
470.5
 20
20.0
 30
0.0
 11
470.5
 21
2.5
 31
0.0
  0
LINE
  5
241
330
1B
100
AcDbEntity
 67
     1
  8
0
  6
Continuous
 62
     7
370
    30
100
AcDbLine
 10
520.5
 20
574.0
 30
0.0
 11
520.5
 21
591.5
 31
0.0
  0
LINE
  5
242
330
1B
100
AcDbEntity
 67
     1
  8
0
  6
Continuous
 62
     7
370
    30
100
AcDbLine
 10
520.5
 20
20.0
 30
0.0
 11
520.5
 21
2.5
 31
0.0
  0
LINE
  5
243
330
1B
100
AcDbEntity
 67
     1
  8
0
  6
Continuous
 62
     7
370
    30
100
AcDbLine
 10
570.5
 20
574.0
 30
0.0
 11
570.5
 21
591.5
 31
0.0
  0
LINE
  5
244
330
1B
100
AcDbEntity
 67
     1
  8
0
  6
Continuous
 62
     7
370
    30
100
AcDbLine
 10
570.5
 20
20.0
 30
0.0
 11
570.5
 21
2.5
 31
0.0
  0
LINE
  5
245
330
1B
100
AcDbEntity
 67
     1
  8
0
  6
Continuous
 62
     7
370
    30
100
AcDbLine
 10
620.5
 20
574.0
 30
0.0
 11
620.5
 21
591.5
 31
0.0
  0
LINE
  5
246
330
1B
100
AcDbEntity
 67
     1
  8
0
  6
Continuous
 62
     7
370
    30
100
AcDbLine
 10
620.5
 20
20.0
 30
0.0
 11
620.5
 21
2.5
 31
0.0
  0
LINE
  5
247
330
1B
100
AcDbEntity
 67
     1
  8
0
  6
Continuous
 62
     7
370
    30
100
AcDbLine
 10
670.5
 20
574.0
 30
0.0
 11
670.5
 21
591.5
 31
0.0
  0
LINE
  5
248
330
1B
100
AcDbEntity
 67
     1
  8
0
  6
Continuous
 62
     7
370
    30
100
AcDbLine
 10
670.5
 20
20.0
 30
0.0
 11
670.5
 21
2.5
 31
0.0
  0
LINE
  5
249
330
1B
100
AcDbEntity
 67
     1
  8
0
  6
Continuous
 62
     7
370
    30
100
AcDbLine
 10
720.5
 20
574.0
 30
0.0
 11
720.5
 21
591.5
 31
0.0
  0
LINE
  5
24A
330
1B
100
AcDbEntity
 67
     1
  8
0
  6
Continuous
 62
     7
370
    30
100
AcDbLine
 10
720.5
 20
20.0
 30
0.0
 11
720.5
 21
2.5
 31
0.0
  0
LINE
  5
24B
330
1B
100
AcDbEntity
 67
     1
  8
0
  6
Continuous
 62
     7
370
    30
100
AcDbLine
 10
770.5
 20
574.0
 30
0.0
 11
770.5
 21
591.5
 31
0.0
  0
LINE
  5
24C
330
1B
100
AcDbEntity
 67
     1
  8
0
  6
Continuous
 62
     7
370
    30
100
AcDbLine
 10
770.5
 20
20.0
 30
0.0
 11
770.5
 21
2.5
 31
0.0
  0
MTEXT
  5
24D
330
1B
100
AcDbEntity
 67
     1
  8
0
  6
Continuous
 62
     7
370
     0
100
AcDbMText
 10
9.7565833417
 20
23.4756904019
 30
0.0
 40
6.096
 41
0.0
 71
     2
 72
     1
  1
A
  7
SLDTEXTSTYLE0
 73
     1
 44
1.0
  0
MTEXT
  5
24E
330
1B
100
AcDbEntity
 67
     1
  8
0
  6
Continuous
 62
     7
370
     0
100
AcDbMText
 10
830.7565833417
 20
23.4756904019
 30
0.0
 40
6.096
 41
0.0
 71
     2
 72
     1
  1
A
  7
SLDTEXTSTYLE0
 73
     1
 44
1.0
  0
MTEXT
  5
24F
330
1B
100
AcDbEntity
 67
     1
  8
0
  6
Continuous
 62
     7
370
     0
100
AcDbMText
 10
9.9534332283
 20
71.9756904019
 30
0.0
 40
6.096
 41
0.0
 71
     2
 72
     1
  1
B
  7
SLDTEXTSTYLE0
 73
     1
 44
1.0
  0
MTEXT
  5
250
330
1B
100
AcDbEntity
 67
     1
  8
0
  6
Continuous
 62
     7
370
     0
100
AcDbMText
 10
830.9534332283
 20
71.9756904019
 30
0.0
 40
6.096
 41
0.0
 71
     2
 72
     1
  1
B
  7
SLDTEXTSTYLE0
 73
     1
 44
1.0
  0
MTEXT
  5
251
330
1B
100
AcDbEntity
 67
     1
  8
0
  6
Continuous
 62
     7
370
     0
100
AcDbMText
 10
9.9365000027
 20
121.9756904019
 30
0.0
 40
6.096
 41
0.0
 71
     2
 72
     1
  1
C
  7
SLDTEXTSTYLE0
 73
     1
 44
1.0
  0
MTEXT
  5
252
330
1B
100
AcDbEntity
 67
     1
  8
0
  6
Continuous
 62
     7
370
     0
100
AcDbMText
 10
830.9365000027
 20
121.9756904019
 30
0.0
 40
6.096
 41
0.0
 71
     2
 72
     1
  1
C
  7
SLDTEXTSTYLE0
 73
     1
 44
1.0
  0
MTEXT
  5
253
330
1B
100
AcDbEntity
 67
     1
  8
0
  6
Continuous
 62
     7
370
     0
100
AcDbMText
 10
9.9301500347
 20
171.9756904019
 30
0.0
 40
6.096
 41
0.0
 71
     2
 72
     1
  1
D
  7
SLDTEXTSTYLE0
 73
     1
 44
1.0
  0
MTEXT
  5
254
330
1B
100
AcDbEntity
 67
     1
  8
0
  6
Continuous
 62
     7
370
     0
100
AcDbMText
 10
830.9301500347
 20
171.9756904019
 30
0.0
 40
6.096
 41
0.0
 71
     2
 72
     1
  1
D
  7
SLDTEXTSTYLE0
 73
     1
 44
1.0
  0
MTEXT
  5
255
330
1B
100
AcDbEntity
 67
     1
  8
0
  6
Continuous
 62
     7
370
     0
100
AcDbMText
 10
10.0105832246
 20
221.9756904019
 30
0.0
 40
6.096
 41
0.0
 71
     2
 72
     1
  1
E
  7
SLDTEXTSTYLE0
 73
     1
 44
1.0
  0
MTEXT
  5
256
330
1B
100
AcDbEntity
 67
     1
  8
0
  6
Continuous
 62
     7
370
     0
100
AcDbMText
 10
831.0105832246
 20
221.9756904019
 30
0.0
 40
6.096
 41
0.0
 71
     2
 72
     1
  1
E
  7
SLDTEXTSTYLE0
 73
     1
 44
1.0
  0
MTEXT
  5
257
330
1B
100
AcDbEntity
 67
     1
  8
0
  6
Continuous
 62
     7
370
     0
100
AcDbMText
 10
9.9365000284
 20
271.9756904019
 30
0.0
 40
6.096
 41
0.0
 71
     2
 72
     1
  1
F
  7
SLDTEXTSTYLE0
 73
     1
 44
1.0
  0
MTEXT
  5
258
330
1B
100
AcDbEntity
 67
     1
  8
0
  6
Continuous
 62
     7
370
     0
100
AcDbMText
 10
830.9365000284
 20
271.9756904019
 30
0.0
 40
6.096
 41
0.0
 71
     2
 72
     1
  1
F
  7
SLDTEXTSTYLE0
 73
     1
 44
1.0
  0
MTEXT
  5
259
330
1B
100
AcDbEntity
 67
     1
  8
0
  6
Continuous
 62
     7
370
     0
100
AcDbMText
 10
9.9809499115
 20
321.9756904019
 30
0.0
 40
6.096
 41
0.0
 71
     2
 72
     1
  1
G
  7
SLDTEXTSTYLE0
 73
     1
 44
1.0
  0
MTEXT
  5
25A
330
1B
100
AcDbEntity
 67
     1
  8
0
  6
Continuous
 62
     7
370
     0
100
AcDbMText
 10
830.9809499115
 20
321.9756904019
 30
0.0
 40
6.096
 41
0.0
 71
     2
 72
     1
  1
G
  7
SLDTEXTSTYLE0
 73
     1
 44
1.0
  0
MTEXT
  5
25B
330
1B
100
AcDbEntity
 67
     1
  8
0
  6
Continuous
 62
     7
370
     0
100
AcDbMText
 10
9.9851832197
 20
371.9756904019
 30
0.0
 40
6.096
 41
0.0
 71
     2
 72
     1
  1
H
  7
SLDTEXTSTYLE0
 73
     1
 44
1.0
  0
MTEXT
  5
25C
330
1B
100
AcDbEntity
 67
     1
  8
0
  6
Continuous
 62
     7
370
     0
100
AcDbMText
 10
830.9851832197
 20
371.9756904019
 30
0.0
 40
6.096
 41
0.0
 71
     2
 72
     1
  1
H
  7
SLDTEXTSTYLE0
 73
     1
 44
1.0
  0
MTEXT
  5
25D
330
1B
100
AcDbEntity
 67
     1
  8
0
  6
Continuous
 62
     7
370
     0
100
AcDbMText
 10
9.944966682
 20
421.9756904019
 30
0.0
 40
6.096
 41
0.0
 71
     2
 72
     1
  1
J
  7
SLDTEXTSTYLE0
 73
     1
 44
1.0
  0
MTEXT
  5
25E
330
1B
100
AcDbEntity
 67
     1
  8
0
  6
Continuous
 62
     7
370
     0
100
AcDbMText
 10
830.944966682
 20
421.9756904019
 30
0.0
 40
6.096
 41
0.0
 71
     2
 72
     1
  1
J
  7
SLDTEXTSTYLE0
 73
     1
 44
1.0
  0
MTEXT
  5
25F
330
1B
100
AcDbEntity
 67
     1
  8
0
  6
Continuous
 62
     7
370
     0
100
AcDbMText
 10
9.9809500001
 20
471.9756904019
 30
0.0
 40
6.096
 41
0.0
 71
     2
 72
     1
  1
K
  7
SLDTEXTSTYLE0
 73
     1
 44
1.0
  0
MTEXT
  5
260
330
1B
100
AcDbEntity
 67
     1
  8
0
  6
Continuous
 62
     7
370
     0
100
AcDbMText
 10
830.9809500001
 20
471.9756904019
 30
0.0
 40
6.096
 41
0.0
 71
     2
 72
     1
  1
K
  7
SLDTEXTSTYLE0
 73
     1
 44
1.0
  0
MTEXT
  5
261
330
1B
100
AcDbEntity
 67
     1
  8
0
  6
Continuous
 62
     7
370
     0
100
AcDbMText
 10
9.9343833336
 20
521.9756904019
 30
0.0
 40
6.096
 41
0.0
 71
     2
 72
     1
  1
L
  7
SLDTEXTSTYLE0
 73
     1
 44
1.0
  0
MTEXT
  5
262
330
1B
100
AcDbEntity
 67
     1
  8
0
  6
Continuous
 62
     7
370
     0
100
AcDbMText
 10
830.9343833336
 20
521.9756904019
 30
0.0
 40
6.096
 41
0.0
 71
     2
 72
     1
  1
L
  7
SLDTEXTSTYLE0
 73
     1
 44
1.0
  0
MTEXT
  5
263
330
1B
100
AcDbEntity
 67
     1
  8
0
  6
Continuous
 62
     7
370
     0
100
AcDbMText
 10
9.7904499743
 20
570.4756904019
 30
0.0
 40
6.096
 41
0.0
 71
     2
 72
     1
  1
M
  7
SLDTEXTSTYLE0
 73
     1
 44
1.0
  0
MTEXT
  5
264
330
1B
100
AcDbEntity
 67
     1
  8
0
  6
Continuous
 62
     7
370
     0
100
AcDbMText
 10
830.7904499743
 20
570.4756904019
 30
0.0
 40
6.096
 41
0.0
 71
     2
 72
     1
  1
M
  7
SLDTEXTSTYLE0
 73
     1
 44
1.0
  0
MTEXT
  5
265
330
1B
100
AcDbEntity
 67
     1
  8
0
  6
Continuous
 62
     7
370
     0
100
AcDbMText
 10
35.1272333393
 20
13.1136904019
 30
0.0
 40
6.096
 41
0.0
 71
     2
 72
     1
  1
16
  7
SLDTEXTSTYLE0
 73
     1
 44
1.0
  0
MTEXT
  5
266
330
1B
100
AcDbEntity
 67
     1
  8
0
  6
Continuous
 62
     7
370
     0
100
AcDbMText
 10
35.1272333393
 20
587.1136904019
 30
0.0
 40
6.096
 41
0.0
 71
     2
 72
     1
  1
16
  7
SLDTEXTSTYLE0
 73
     1
 44
1.0
  0
MTEXT
  5
267
330
1B
100
AcDbEntity
 67
     1
  8
0
  6
Continuous
 62
     7
370
     0
100
AcDbMText
 10
95.3772333393
 20
13.1136904019
 30
0.0
 40
6.096
 41
0.0
 71
     2
 72
     1
  1
15
  7
SLDTEXTSTYLE0
 73
     1
 44
1.0
  0
MTEXT
  5
268
330
1B
100
AcDbEntity
 67
     1
  8
0
  6
Continuous
 62
     7
370
     0
100
AcDbMText
 10
95.3772333393
 20
587.1136904019
 30
0.0
 40
6.096
 41
0.0
 71
     2
 72
     1
  1
15
  7
SLDTEXTSTYLE0
 73
     1
 44
1.0
  0
MTEXT
  5
269
330
1B
100
AcDbEntity
 67
     1
  8
0
  6
Continuous
 62
     7
370
     0
100
AcDbMText
 10
145.3772333393
 20
13.1136904019
 30
0.0
 40
6.096
 41
0.0
 71
     2
 72
     1
  1
14
  7
SLDTEXTSTYLE0
 73
     1
 44
1.0
  0
MTEXT
  5
26A
330
1B
100
AcDbEntity
 67
     1
  8
0
  6
Continuous
 62
     7
370
     0
100
AcDbMText
 10
145.3772333393
 20
587.1136904019
 30
0.0
 40
6.096
 41
0.0
 71
     2
 72
     1
  1
14
  7
SLDTEXTSTYLE0
 73
     1
 44
1.0
  0
MTEXT
  5
26B
330
1B
100
AcDbEntity
 67
     1
  8
0
  6
Continuous
 62
     7
370
     0
100
AcDbMText
 10
195.3772333393
 20
13.1136904019
 30
0.0
 40
6.096
 41
0.0
 71
     2
 72
     1
  1
13
  7
SLDTEXTSTYLE0
 73
     1
 44
1.0
  0
MTEXT
  5
26C
330
1B
100
AcDbEntity
 67
     1
  8
0
  6
Continuous
 62
     7
370
     0
100
AcDbMText
 10
195.3772333393
 20
587.1136904019
 30
0.0
 40
6.096
 41
0.0
 71
     2
 72
     1
  1
13
  7
SLDTEXTSTYLE0
 73
     1
 44
1.0
  0
MTEXT
  5
26D
330
1B
100
AcDbEntity
 67
     1
  8
0
  6
Continuous
 62
     7
370
     0
100
AcDbMText
 10
245.3772333393
 20
13.1136904019
 30
0.0
 40
6.096
 41
0.0
 71
     2
 72
     1
  1
12
  7
SLDTEXTSTYLE0
 73
     1
 44
1.0
  0
MTEXT
  5
26E
330
1B
100
AcDbEntity
 67
     1
  8
0
  6
Continuous
 62
     7
370
     0
100
AcDbMText
 10
245.3772333393
 20
587.1136904019
 30
0.0
 40
6.096
 41
0.0
 71
     2
 72
     1
  1
12
  7
SLDTEXTSTYLE0
 73
     1
 44
1.0
  0
MTEXT
  5
26F
330
1B
100
AcDbEntity
 67
     1
  8
0
  6
Continuous
 62
     7
370
     0
100
AcDbMText
 10
295.3772333393
 20
13.1136904019
 30
0.0
 40
6.096
 41
0.0
 71
     2
 72
     1
  1
11
  7
SLDTEXTSTYLE0
 73
     1
 44
1.0
  0
MTEXT
  5
270
330
1B
100
AcDbEntity
 67
     1
  8
0
  6
Continuous
 62
     7
370
     0
100
AcDbMText
 10
295.3772333393
 20
587.1136904019
 30
0.0
 40
6.096
 41
0.0
 71
     2
 72
     1
  1
11
  7
SLDTEXTSTYLE0
 73
     1
 44
1.0
  0
MTEXT
  5
271
330
1B
100
AcDbEntity
 67
     1
  8
0
  6
Continuous
 62
     7
370
     0
100
AcDbMText
 10
345.3772333393
 20
13.1136904019
 30
0.0
 40
6.096
 41
0.0
 71
     2
 72
     1
  1
10
  7
SLDTEXTSTYLE0
 73
     1
 44
1.0
  0
MTEXT
  5
272
330
1B
100
AcDbEntity
 67
     1
  8
0
  6
Continuous
 62
     7
370
     0
100
AcDbMText
 10
345.3772333393
 20
587.1136904019
 30
0.0
 40
6.096
 41
0.0
 71
     2
 72
     1
  1
10
  7
SLDTEXTSTYLE0
 73
     1
 44
1.0
  0
MTEXT
  5
273
330
1B
100
AcDbEntity
 67
     1
  8
0
  6
Continuous
 62
     7
370
     0
100
AcDbMText
 10
395.4386166697
 20
13.1136904019
 30
0.0
 40
6.096
 41
0.0
 71
     2
 72
     1
  1
9
  7
SLDTEXTSTYLE0
 73
     1
 44
1.0
  0
MTEXT
  5
274
330
1B
100
AcDbEntity
 67
     1
  8
0
  6
Continuous
 62
     7
370
     0
100
AcDbMText
 10
395.4386166697
 20
587.1136904019
 30
0.0
 40
6.096
 41
0.0
 71
     2
 72
     1
  1
9
  7
SLDTEXTSTYLE0
 73
     1
 44
1.0
  0
MTEXT
  5
275
330
1B
100
AcDbEntity
 67
     1
  8
0
  6
Continuous
 62
     7
370
     0
100
AcDbMText
 10
445.4386166697
 20
13.1136904019
 30
0.0
 40
6.096
 41
0.0
 71
     2
 72
     1
  1
8
  7
SLDTEXTSTYLE0
 73
     1
 44
1.0
  0
MTEXT
  5
276
330
1B
100
AcDbEntity
 67
     1
  8
0
  6
Continuous
 62
     7
370
     0
100
AcDbMText
 10
445.4386166697
 20
587.1136904019
 30
0.0
 40
6.096
 41
0.0
 71
     2
 72
     1
  1
8
  7
SLDTEXTSTYLE0
 73
     1
 44
1.0
  0
MTEXT
  5
277
330
1B
100
AcDbEntity
 67
     1
  8
0
  6
Continuous
 62
     7
370
     0
100
AcDbMText
 10
495.4386166697
 20
13.1136904019
 30
0.0
 40
6.096
 41
0.0
 71
     2
 72
     1
  1
7
  7
SLDTEXTSTYLE0
 73
     1
 44
1.0
  0
MTEXT
  5
278
330
1B
100
AcDbEntity
 67
     1
  8
0
  6
Continuous
 62
     7
370
     0
100
AcDbMText
 10
495.4386166697
 20
587.1136904019
 30
0.0
 40
6.096
 41
0.0
 71
     2
 72
     1
  1
7
  7
SLDTEXTSTYLE0
 73
     1
 44
1.0
  0
MTEXT
  5
279
330
1B
100
AcDbEntity
 67
     1
  8
0
  6
Continuous
 62
     7
370
     0
100
AcDbMText
 10
545.4386166697
 20
13.1136904019
 30
0.0
 40
6.096
 41
0.0
 71
     2
 72
     1
  1
6
  7
SLDTEXTSTYLE0
 73
     1
 44
1.0
  0
MTEXT
  5
27A
330
1B
100
AcDbEntity
 67
     1
  8
0
  6
Continuous
 62
     7
370
     0
100
AcDbMText
 10
545.4386166697
 20
587.1136904019
 30
0.0
 40
6.096
 41
0.0
 71
     2
 72
     1
  1
6
  7
SLDTEXTSTYLE0
 73
     1
 44
1.0
  0
MTEXT
  5
27B
330
1B
100
AcDbEntity
 67
     1
  8
0
  6
Continuous
 62
     7
370
     0
100
AcDbMText
 10
595.4386166697
 20
13.1136904019
 30
0.0
 40
6.096
 41
0.0
 71
     2
 72
     1
  1
5
  7
SLDTEXTSTYLE0
 73
     1
 44
1.0
  0
MTEXT
  5
27C
330
1B
100
AcDbEntity
 67
     1
  8
0
  6
Continuous
 62
     7
370
     0
100
AcDbMText
 10
595.4386166697
 20
587.1136904019
 30
0.0
 40
6.096
 41
0.0
 71
     2
 72
     1
  1
5
  7
SLDTEXTSTYLE0
 73
     1
 44
1.0
  0
MTEXT
  5
27D
330
1B
100
AcDbEntity
 67
     1
  8
0
  6
Continuous
 62
     7
370
     0
100
AcDbMText
 10
645.4386166697
 20
13.1136904019
 30
0.0
 40
6.096
 41
0.0
 71
     2
 72
     1
  1
4
  7
SLDTEXTSTYLE0
 73
     1
 44
1.0
  0
MTEXT
  5
27E
330
1B
100
AcDbEntity
 67
     1
  8
0
  6
Continuous
 62
     7
370
     0
100
AcDbMText
 10
645.4386166697
 20
587.1136904019
 30
0.0
 40
6.096
 41
0.0
 71
     2
 72
     1
  1
4
  7
SLDTEXTSTYLE0
 73
     1
 44
1.0
  0
MTEXT
  5
27F
330
1B
100
AcDbEntity
 67
     1
  8
0
  6
Continuous
 62
     7
370
     0
100
AcDbMText
 10
695.4386166697
 20
13.1136904019
 30
0.0
 40
6.096
 41
0.0
 71
     2
 72
     1
  1
3
  7
SLDTEXTSTYLE0
 73
     1
 44
1.0
  0
MTEXT
  5
280
330
1B
100
AcDbEntity
 67
     1
  8
0
  6
Continuous
 62
     7
370
     0
100
AcDbMText
 10
695.4386166697
 20
587.1136904019
 30
0.0
 40
6.096
 41
0.0
 71
     2
 72
     1
  1
3
  7
SLDTEXTSTYLE0
 73
     1
 44
1.0
  0
MTEXT
  5
281
330
1B
100
AcDbEntity
 67
     1
  8
0
  6
Continuous
 62
     7
370
     0
100
AcDbMText
 10
745.4386166697
 20
13.1136904019
 30
0.0
 40
6.096
 41
0.0
 71
     2
 72
     1
  1
2
  7
SLDTEXTSTYLE0
 73
     1
 44
1.0
  0
MTEXT
  5
282
330
1B
100
AcDbEntity
 67
     1
  8
0
  6
Continuous
 62
     7
370
     0
100
AcDbMText
 10
745.4386166697
 20
587.1136904019
 30
0.0
 40
6.096
 41
0.0
 71
     2
 72
     1
  1
2
  7
SLDTEXTSTYLE0
 73
     1
 44
1.0
  0
MTEXT
  5
283
330
1B
100
AcDbEntity
 67
     1
  8
0
  6
Continuous
 62
     7
370
     0
100
AcDbMText
 10
805.6886166697
 20
13.1136904019
 30
0.0
 40
6.096
 41
0.0
 71
     2
 72
     1
  1
1
  7
SLDTEXTSTYLE0
 73
     1
 44
1.0
  0
MTEXT
  5
284
330
1B
100
AcDbEntity
 67
     1
  8
0
  6
Continuous
 62
     7
370
     0
100
AcDbMText
 10
805.6886166697
 20
587.1136904019
 30
0.0
 40
6.096
 41
0.0
 71
     2
 72
     1
  1
1
  7
SLDTEXTSTYLE0
 73
     1
 44
1.0
  0
MTEXT
  5
285
330
1B
100
AcDbEntity
 67
     1
  8
0
  6
Continuous
 62
     7
370
     0
100
AcDbMText
 10
641.6433628979
 20
52.3847813173
 30
0.0
 40
1.5
 41
0.0
 71
     1
 72
     1
  1
DRAWN
  7
SLDTEXTSTYLE1
 73
     1
 44
1.0
  0
MTEXT
  5
286
330
1B
100
AcDbEntity
 67
     1
  8
0
  6
Continuous
 62
     7
370
     0
100
AcDbMText
 10
641.9392221937
 20
48.1618530186
 30
0.0
 40
1.5
 41
0.0
 71
     1
 72
     1
  1
CHK'D
  7
SLDTEXTSTYLE0
 73
     1
 44
1.0
  0
MTEXT
  5
287
330
1B
100
AcDbEntity
 67
     1
  8
0
  6
Continuous
 62
     7
370
     0
100
AcDbMText
 10
641.4017224083
 20
44.0658666243
 30
0.0
 40
1.5
 41
0.0
 71
     1
 72
     1
  1
APPV'D
  7
SLDTEXTSTYLE0
 73
     1
 44
1.0
  0
MTEXT
  5
288
330
1B
100
AcDbEntity
 67
     1
  8
0
  6
Continuous
 62
     7
370
     0
100
AcDbMText
 10
642.1240107386
 20
39.7157844608
 30
0.0
 40
1.5
 41
0.0
 71
     1
 72
     1
  1
MFG
  7
SLDTEXTSTYLE0
 73
     1
 44
1.0
  0
MTEXT
  5
289
330
1B
100
AcDbEntity
 67
     1
  8
0
  6
Continuous
 62
     7
370
     0
100
AcDbMText
 10
642.509036604
 20
35.504662132
 30
0.0
 40
1.5
 41
0.0
 71
     1
 72
     1
  1
Q.A
  7
SLDTEXTSTYLE0
 73
     1
 44
1.0
  0
INSERT
  5
293
330
1B
100
AcDbEntity
 67
     1
  8
0
  6
Continuous
 62
     7
370
     0
100
AcDbBlockReference
  2
SW_NOTE_6
 10
641.5936687456
 20
71.9873698743
 30
0.0
  0
MTEXT
  5
294
330
1B
100
AcDbEntity
 67
     1
  8
0
  6
Continuous
 62
     7
370
     0
100
AcDbMText
 10
675.3712921668
 20
73.9192719951
 30
0.0
 40
1.5
 41
0.0
 71
     1
 72
     1
  1
FINISH:
  7
SLDTEXTSTYLE0
 73
     1
 44
1.0
  0
INSERT
  5
29B
330
1B
100
AcDbEntity
 67
     1
  8
0
  6
Continuous
 62
     7
370
     0
100
AcDbBlockReference
  2
SW_NOTE_7
 10
722.3092156863
 20
72.069489643
 30
0.0
  0
MTEXT
  5
29C
330
1B
100
AcDbEntity
 67
     1
  8
0
  6
Continuous
 62
     7
370
     0
100
AcDbMText
 10
655.3222392177
 20
56.5014826335
 30
0.0
 40
1.5
 41
0.0
 71
     1
 72
     1
  1
NAME
  7
SLDTEXTSTYLE0
 73
     1
 44
1.0
  0
MTEXT
  5
29D
330
1B
100
AcDbEntity
 67
     1
  8
0
  6
Continuous
 62
     7
370
     0
100
AcDbMText
 10
671.0335875632
 20
56.5617563795
 30
0.0
 40
1.5
 41
0.0
 71
     1
 72
     1
  1
SIGNATURE
  7
SLDTEXTSTYLE0
 73
     1
 44
1.0
  0
MTEXT
  5
29E
330
1B
100
AcDbEntity
 67
     1
  8
0
  6
Continuous
 62
     7
370
     0
100
AcDbMText
 10
688.2147019657
 20
56.5761792212
 30
0.0
 40
1.5
 41
0.0
 71
     1
 72
     1
  1
DATE
  7
SLDTEXTSTYLE0
 73
     1
 44
1.0
  0
MTEXT
  5
29F
330
1B
100
AcDbEntity
 67
     1
  8
0
  6
Continuous
 62
     7
370
     0
100
AcDbMText
 10
696.6458623088
 20
35.9860562892
 30
0.0
 40
1.5
 41
0.0
 71
     1
 72
     1
  1
MATERIAL:
  7
SLDTEXTSTYLE0
 73
     1
 44
1.0
  0
MTEXT
  5
2A0
330
1B
100
AcDbEntity
 67
     1
  8
0
  6
Continuous
 62
     7
370
     0
100
AcDbMText
 10
753.6146405229
 20
72.5329935751
 30
0.0
 40
1.5
 41
0.0
 71
     1
 72
     1
  1
DO NOT SCALE DRAWING
  7
SLDTEXTSTYLE0
 73
     1
 44
1.0
  0
MTEXT
  5
2A1
330
1B
100
AcDbEntity
 67
     1
  8
0
  6
Continuous
 62
     7
370
     0
100
AcDbMText
 10
794.3275816993
 20
72.3349086805
 30
0.0
 40
1.5
 41
0.0
 71
     1
 72
     1
  1
REVISION
  7
SLDTEXTSTYLE0
 73
     1
 44
1.0
  0
MTEXT
  5
2A2
330
1B
100
AcDbEntity
 67
     1
  8
0
  6
Continuous
 62
     7
370
     0
100
AcDbMText
 10
741.090160639
 20
56.5761792212
 30
0.0
 40
1.5
 41
0.0
 71
     1
 72
     1
  1
TITLE:
  7
SLDTEXTSTYLE0
 73
     1
 44
1.0
  0
MTEXT
  5
2A3
330
1B
100
AcDbEntity
 67
     1
  8
0
  6
Continuous
 62
     7
370
     0
100
AcDbMText
 10
740.9530022162
 20
35.9860562892
 30
0.0
 40
1.5
 41
0.0
 71
     1
 72
     1
  1
DWG NO.
  7
SLDTEXTSTYLE0
 73
     1
 44
1.0
  0
MTEXT
  5
2A4
330
1B
100
AcDbEntity
 67
     1
  8
0
  6
Continuous
 62
     7
370
     0
100
AcDbMText
 10
741.0739661175
 20
22.9000872745
 30
0.0
 40
1.5
 41
0.0
 71
     1
 72
     1
  1
SCALE:1:2
  7
SLDTEXTSTYLE0
 73
     1
 44
1.0
  0
MTEXT
  5
2A5
330
1B
100
AcDbEntity
 67
     1
  8
0
  6
Continuous
 62
     7
370
     0
100
AcDbMText
 10
785.4782944278
 20
22.9000872745
 30
0.0
 40
1.5
 41
0.0
 71
     1
 72
     1
  1
SHEET 2 OF 2
  7
SLDTEXTSTYLE2
 73
     1
 44
1.0
  0
MTEXT
  5
2A6
330
1B
100
AcDbEntity
 67
     1
  8
0
  6
Continuous
 62
     7
370
     0
100
AcDbMText
 10
811.8711564346
 20
34.406388569
 30
0.0
 40
2.9104166667
 41
0.0
 71
     1
 72
     1
  1
A1
  7
SLDTEXTSTYLE0
 73
     1
 44
1.0
  0
MTEXT
  5
2A7
330
1B
100
AcDbEntity
 67
     1
  8
0
  6
Continuous
 62
     7
370
     0
100
AcDbMText
 10
696.6178111281
 20
22.9493119036
 30
0.0
 40
1.4986
 41
0.0
 71
     1
 72
     1
  1
WEIGHT:
  7
SLDTEXTSTYLE0
 73
     1
 44
1.0
  0
MTEXT
  5
2A8
330
1B
100
AcDbEntity
 67
     1
  8
0
  6
Continuous
 62
     7
370
     0
100
AcDbMText
 10
775.881331174
 20
33.6069109673
 30
0.0
 40
6.35
 41
0.0
 71
     2
 72
     1
  1
DrawingAutomation
  7
SLDTEXTSTYLE0
 73
     1
 44
1.0
  0
LINE
  5
2A9
330
1B
100
AcDbEntity
 67
     1
  8
0
  6
Continuous
 62
     7
370
    15
100
AcDbLine
 10
211.725
 20
214.2353071167
 30
0.0
 11
211.725
 21
156.4566666667
 31
0.0
  0
ARC
  5
2AA
330
1B
100
AcDbEntity
 67
     1
  8
0
  6
Continuous
 62
     7
370
    15
100
AcDbCircle
 10
199.225
 20
214.2353071167
 30
0.0
 40
12.49999999999999
100
AcDbArc
 50
0.0
 51
63.4349488229
  0
LINE
  5
2AB
330
1B
100
AcDbEntity
 67
     1
  8
0
  6
Continuous
 62
     7
370
    15
100
AcDbLine
 10
182.8568650304
 20
236.3947994608
 30
0.0
 11
204.8151699437
 21
225.4156470042
 31
0.0
  0
ARC
  5
2AC
330
1B
100
AcDbEntity
 67
     1
  8
0
  6
Continuous
 62
     7
370
    15
100
AcDbCircle
 10
181.7388310416
 20
234.1587314833
 30
0.0
 40
2.500000000000006
100
AcDbArc
 50
63.4349488229
 51
136.4787282325
  0
ARC
  5
2AD
330
1B
100
AcDbEntity
 67
     1
  8
0
  6
Continuous
 62
     7
370
    15
100
AcDbCircle
 10
160.8916666667
 20
253.9566666667
 30
0.0
 40
26.25000000000004
100
AcDbArc
 50
286.8492796228
 51
316.4787282325
  0
ARC
  5
2AE
330
1B
100
AcDbEntity
 67
     1
  8
0
  6
Continuous
 62
     7
370
    15
100
AcDbCircle
 10
169.225
 20
226.4408883648
 30
0.0
 40
2.5
100
AcDbArc
 50
106.8492796228
 51
180.0
  0
LINE
  5
2AF
330
1B
100
AcDbEntity
 67
     1
  8
0
  6
Continuous
 62
     7
370
    15
100
AcDbLine
 10
166.725
 20
156.4566666667
 30
0.0
 11
166.725
 21
226.4408883648
 31
0.0
  0
ARC
  5
2B0
330
1B
100
AcDbEntity
 67
     1
  8
0
  6
Continuous
 62
     7
370
    15
100
AcDbCircle
 10
171.725
 20
156.4566666667
 30
0.0
 40
5.0
100
AcDbArc
 50
180.0
 51
270.0
  0
LINE
  5
2B1
330
1B
100
AcDbEntity
 67
     1
  8
0
  6
Continuous
 62
     7
370
    15
100
AcDbLine
 10
206.725
 20
151.4566666667
 30
0.0
 11
171.725
 21
151.4566666667
 31
0.0
  0
ARC
  5
2B2
330
1B
100
AcDbEntity
 67
     1
  8
0
  6
Continuous
 62
     7
370
    15
100
AcDbCircle
 10
206.725
 20
156.4566666667
 30
0.0
 40
5.0
100
AcDbArc
 50
270.0
 51
0.0
  0
ARC
  5
2B3
330
1B
100
AcDbEntity
 67
     1
  8
0
  6
Continuous
 62
     7
370
    15
100
AcDbCircle
 10
160.8916666667
 20
253.9566666667
 30
0.0
 40
21.66666666666666
100
AcDbArc
 50
67.380135052
 51
180.0
  0
LINE
  5
2B4
330
1B
100
AcDbEntity
 67
     1
  8
0
  6
Continuous
 62
     7
370
    15
100
AcDbLine
 10
169.225
 20
273.9566666667
 30
0.0
 11
229.225
 21
243.9566666667
 31
0.0
  0
ARC
  5
2B5
330
1B
100
AcDbEntity
 67
     1
  8
0
  6
Continuous
 62
     7
370
    15
100
AcDbCircle
 10
214.225
 20
223.9566666667
 30
0.0
 40
25.00000000000003
100
AcDbArc
 50
0.0
 51
53.1301023542
  0
LINE
  5
2B6
330
1B
100
AcDbEntity
 67
     1
  8
0
  6
Continuous
 62
     7
370
    15
100
AcDbLine
 10
239.225
 20
123.9566666667
 30
0.0
 11
239.225
 21
223.9566666667
 31
0.0
  0
LINE
  5
2B7
330
1B
100
AcDbEntity
 67
     1
  8
0
  6
Continuous
 62
     7
370
    15
100
AcDbLine
 10
139.225
 20
123.9566666667
 30
0.0
 11
239.225
 21
123.9566666667
 31
0.0
  0
LINE
  5
2B8
330
1B
100
AcDbEntity
 67
     1
  8
0
  6
Continuous
 62
     7
370
    15
100
AcDbLine
 10
139.225
 20
123.9566666667
 30
0.0
 11
139.225
 21
253.9566666667
 31
0.0
  0
DIMENSION
  5
2B9
330
1B
100
AcDbEntity
 67
     1
  8
0
  6
Continuous
 62
     7
370
     0
100
AcDbDimension
  2
_D_11
 10
129.225
 20
253.9566666667
 30
0.0
 11
129.225
 21
188.9566666667
 31
0.0
 70
   160
  1
<>
 71
     1
 42
-1.0
  3
SLDDIMSTYLE0
100
AcDbAlignedDimension
 13
139.225
 23
123.9566666667
 33
0.0
 14
139.225
 24
253.9566666667
 34
0.0
 50
90.0
100
AcDbRotatedDimension
  0
DIMENSION
  5
2C4
330
1B
100
AcDbEntity
 67
     1
  8
0
  6
Continuous
 62
     7
370
     0
100
AcDbDimension
  2
_D_12
 10
249.225
 20
223.9566666667
 30
0.0
 11
249.225
 21
173.9566666667
 31
0.0
 70
   160
  1
<>
 71
     1
 42
-1.0
  3
SLDDIMSTYLE0
100
AcDbAlignedDimension
 13
239.225
 23
123.9566666667
 33
0.0
 14
239.225
 24
223.9566666667
 34
0.0
 50
90.0
100
AcDbRotatedDimension
  0
DIMENSION
  5
2CF
330
1B
100
AcDbEntity
 67
     1
  8
0
  6
Continuous
 62
     7
370
     0
100
AcDbDimension
  2
_D_13
 10
239.225
 20
107.9566666667
 30
0.0
 11
189.225
 21
107.9566666667
 31
0.0
 70
   160
  1
<>
 71
     1
 42
-1.0
  3
SLDDIMSTYLE0
100
AcDbAlignedDimension
 13
139.225
 23
123.9566666667
 33
0.0
 14
239.225
 24
123.9566666667
 34
0.0
 50
0.0
100
AcDbRotatedDimension
  0
DIMENSION
  5
2DA
330
1B
100
AcDbEntity
 67
     1
  8
0
  6
Continuous
 62
     7
370
     0
100
AcDbDimension
  2
_D_14
 10
239.225
 20
113.9566666667
 30
0.0
 11
225.475
 21
113.9566666667
 31
0.0
 70
   160
  1
<>
 71
     1
 42
-1.0
  3
SLDDIMSTYLE0
100
AcDbAlignedDimension
 13
211.725
 23
186.7086993214
 33
0.0
 14
239.225
 24
186.7086993214
 34
0.0
100
AcDbRotatedDimension
  0
DIMENSION
  5
2E5
330
1B
100
AcDbEntity
 67
     1
  8
0
  6
Continuous
 62
     7
370
     0
100
AcDbDimension
  2
_D_15
 10
206.725
 20
156.4566666667
 30
0.0
 11
260.740813253
 21
113.9566666667
 31
0.0
 70
   164
  1
<>
 71
     1
 42
-1.0
  3
SLDDIMSTYLE1
100
AcDbRadialDimension
 15
210.2586035495
 25
152.9192034577
 35
0.0
 40
0.0
  0
DIMENSION
  5
2EE
330
1B
100
AcDbEntity
 67
     1
  8
0
  6
Continuous
 62
     7
370
     0
100
AcDbDimension
  2
_D_16
 10
199.225
 20
214.2353071167
 30
0.0
 11
260.740813253
 21
264.2353071167
 31
0.0
 70
   164
  1
<>
 71
     1
 42
-1.0
  3
SLDDIMSTYLE1
100
AcDbRadialDimension
 15
208.059733261
 25
223.078241483
 35
0.0
 40
0.0
  0
DIMENSION
  5
2F7
330
1B
100
AcDbEntity
 67
     1
  8
0
  6
Continuous
 62
     7
370
     0
100
AcDbDimension
  2
_D_17
 10
181.7388310416
 20
234.1587314833
 30
0.0
 11
119.951187023
 21
285.6233333333
 31
0.0
 70
   164
  1
<>
 71
     1
 42
-1.0
  3
SLDDIMSTYLE1
100
AcDbRadialDimension
 15
179.972236413
 25
235.9276699837
 35
0.0
 40
0.0
  0
INSERT
  5
304
330
1B
100
AcDbEntity
 67
     1
  8
0
  6
Continuous
 62
     7
370
     0
100
AcDbBlockReference
  2
SW_NOTE_8
 10
140.5531478555
 20
275.6627091601
 30
0.0
  0
LEADER
  5
305
330
1B
100
AcDbEntity
 67
     1
  8
0
  6
Continuous
 62
     7
370
     0
100
AcDbLeader
  3
SLDDIMSTYLE3
 76
     2
 10
146.4531372431
 20
261.4126285821
 30
0.0
 10
140.5531478555
 20
275.6627091601
 30
0.0
  0
INSERT
  5
30B
330
1B
100
AcDbEntity
 67
     1
  8
0
  6
Continuous
 62
     7
370
     0
100
AcDbBlockReference
  2
SW_NOTE_9
 10
230.8258710142
 20
261.2828313637
 30
0.0
  0
LEADER
  5
30C
330
1B
100
AcDbEntity
 67
     1
  8
0
  6
Continuous
 62
     7
370
     0
100
AcDbLeader
  3
SLDDIMSTYLE4
 76
     2
 10
224.0421111624
 20
232.7443285496
 30
0.0
 10
230.8258710142
 20
261.2828313637
 30
0.0
  0
INSERT
  5
311
330
1B
100
AcDbEntity
 67
     1
  8
0
  6
Continuous
 62
     7
370
     0
100
AcDbBlockReference
  2
SW_NOTE_10
 10
196.0863453815
 20
277.8715445015
 30
0.0
  0
LEADER
  5
312
330
1B
100
AcDbEntity
 67
     1
  8
0
  6
Continuous
 62
     7
370
     0
100
AcDbLeader
  3
SLDDIMSTYLE3
 76
     2
 10
197.0446101399
 20
260.0468615967
 30
0.0
 10
196.0863453815
 20
277.8715445015
 30
0.0
  0
INSERT
  5
31A
330
1B
100
AcDbEntity
 67
     1
  8
0
  6
Continuous
 62
     7
370
     0
100
AcDbBlockReference
  2
SW_NOTE_11
 10
180.2234381329
 20
198.5542754252
 30
0.0
  0
LEADER
  5
31B
330
1B
100
AcDbEntity
 67
     1
  8
0
  6
Continuous
 62
     7
370
     0
100
AcDbLeader
  3
SLDDIMSTYLE3
 76
     2
 10
166.725
 20
184.3830789767
 30
0.0
 10
180.2234381329
 20
198.5542754252
 30
0.0
  0
LINE
  5
31C
330
1B
100
AcDbEntity
 67
     1
  8
0
  6
Continuous
 62
     7
370
    15
100
AcDbLine
 10
144.6416666667
 20
450.64
 30
0.0
 11
144.6416666667
 21
434.14
 31
0.0
  0
LINE
  5
31D
330
1B
100
AcDbEntity
 67
     1
  8
0
  6
Continuous
 62
     7
370
    15
100
AcDbLine
 10
177.1416666667
 20
434.14
 30
0.0
 11
177.1416666667
 21
450.64
 31
0.0
  0
LINE
  5
31E
330
1B
100
AcDbEntity
 67
     1
  8
0
  6
Continuous
 62
     7
370
    15
100
AcDbLine
 10
169.225
 20
424.14
 30
0.0
 11
169.225
 21
434.14
 31
0.0
  0
LINE
  5
31F
330
1B
100
AcDbEntity
 67
     1
  8
0
  6
Continuous
 62
     7
370
    15
100
AcDbLine
 10
139.225
 20
424.14
 30
0.0
 11
169.225
 21
424.14
 31
0.0
  0
LINE
  5
320
330
1B
100
AcDbEntity
 67
     1
  8
0
  6
Continuous
 62
     7
370
    15
100
AcDbLine
 10
139.225
 20
424.14
 30
0.0
 11
139.225
 21
434.14
 31
0.0
  0
LINE
  5
321
330
1B
100
AcDbEntity
 67
     1
  8
0
  6
Continuous
 62
     7
370
    15
100
AcDbLine
 10
139.225
 20
434.14
 30
0.0
 11
169.225
 21
434.14
 31
0.0
  0
LINE
  5
322
330
1B
100
AcDbEntity
 67
     1
  8
0
  6
Continuous
 62
     7
370
    15
100
AcDbLine
 10
229.225
 20
424.14
 30
0.0
 11
229.225
 21
434.14
 31
0.0
  0
LINE
  5
323
330
1B
100
AcDbEntity
 67
     1
  8
0
  6
Continuous
 62
     7
370
    15
100
AcDbLine
 10
169.225
 20
424.14
 30
0.0
 11
229.225
 21
424.14
 31
0.0
  0
LINE
  5
324
330
1B
100
AcDbEntity
 67
     1
  8
0
  6
Continuous
 62
     7
370
    15
100
AcDbLine
 10
169.225
 20
434.14
 30
0.0
 11
229.225
 21
434.14
 31
0.0
  0
LINE
  5
325
330
1B
100
AcDbEntity
 67
     1
  8
0
  6
Continuous
 62
     7
370
    15
100
AcDbLine
 10
239.225
 20
424.14
 30
0.0
 11
239.225
 21
434.14
 31
0.0
  0
LINE
  5
326
330
1B
100
AcDbEntity
 67
     1
  8
0
  6
Continuous
 62
     7
370
    15
100
AcDbLine
 10
239.225
 20
424.14
 30
0.0
 11
229.225
 21
424.14
 31
0.0
  0
LINE
  5
327
330
1B
100
AcDbEntity
 67
     1
  8
0
  6
Continuous
 62
     7
370
    15
100
AcDbLine
 10
239.225
 20
434.14
 30
0.0
 11
229.225
 21
434.14
 31
0.0
  0
LINE
  5
328
330
1B
100
AcDbEntity
 67
     1
  8
0
  6
Continuous
 62
     7
370
    15
100
AcDbLine
 10
177.1416666667
 20
450.64
 30
0.0
 11
144.6416666667
 21
450.64
 31
0.0
  0
DIMENSION
  5
329
330
1B
100
AcDbEntity
 67
     1
  8
0
  6
Continuous
 62
     7
370
     0
100
AcDbDimension
  2
_D_18
 10
129.225
 20
434.14
 30
0.0
 11
129.225
 21
442.39
 31
0.0
 70
   160
  1
<>
 71
     1
 42
-1.0
  3
SLDDIMSTYLE2
100
AcDbAlignedDimension
 13
177.1416666667
 23
450.64
 33
0.0
 14
177.1416666667
 24
434.14
 34
0.0
 50
90.0
100
AcDbRotatedDimension
  0
DIMENSION
  5
334
330
1B
100
AcDbEntity
 67
     1
  8
0
  6
Continuous
 62
     7
370
     0
100
AcDbDimension
  2
_D_19
 10
249.225
 20
424.14
 30
0.0
 11
249.225
 21
429.14
 31
0.0
 70
   160
  1
<>
 71
     1
 42
-1.0
  3
SLDDIMSTYLE2
100
AcDbAlignedDimension
 13
239.225
 23
434.14
 33
0.0
 14
239.225
 24
424.14
 34
0.0
 50
90.0
100
AcDbRotatedDimension
  0
LINE
  5
33F
330
1B
100
AcDbEntity
 67
     1
  8
0
  6
Continuous
 62
     7
370
    15
100
AcDbLine
 10
480.325
 20
275.6233333333
 30
0.0
 11
470.325
 21
275.6233333333
 31
0.0
  0
LINE
  5
340
330
1B
100
AcDbEntity
 67
     1
  8
0
  6
Continuous
 62
     7
370
    15
100
AcDbLine
 10
496.825
 20
270.2066666667
 30
0.0
 11
480.325
 21
270.2066666667
 31
0.0
  0
LINE
  5
341
330
1B
100
AcDbEntity
 67
     1
  8
0
  6
Continuous
 62
     7
370
    15
100
AcDbLine
 10
480.325
 20
237.7066666667
 30
0.0
 11
496.825
 21
237.7066666667
 31
0.0
  0
LINE
  5
342
330
1B
100
AcDbEntity
 67
     1
  8
0
  6
Continuous
 62
     7
370
    15
100
AcDbLine
 10
470.325
 20
223.9566666667
 30
0.0
 11
480.325
 21
223.9566666667
 31
0.0
  0
LINE
  5
343
330
1B
100
AcDbEntity
 67
     1
  8
0
  6
Continuous
 62
     7
370
    15
100
AcDbLine
 10
470.325
 20
223.9566666667
 30
0.0
 11
470.325
 21
243.9566666667
 31
0.0
  0
LINE
  5
344
330
1B
100
AcDbEntity
 67
     1
  8
0
  6
Continuous
 62
     7
370
    15
100
AcDbLine
 10
470.325
 20
243.9566666667
 30
0.0
 11
480.325
 21
243.9566666667
 31
0.0
  0
LINE
  5
345
330
1B
100
AcDbEntity
 67
     1
  8
0
  6
Continuous
 62
     7
370
    15
100
AcDbLine
 10
480.325
 20
223.9566666667
 30
0.0
 11
480.325
 21
243.9566666667
 31
0.0
  0
LINE
  5
346
330
1B
100
AcDbEntity
 67
     1
  8
0
  6
Continuous
 62
     7
370
    15
100
AcDbLine
 10
470.325
 20
123.9566666667
 30
0.0
 11
480.325
 21
123.9566666667
 31
0.0
  0
LINE
  5
347
330
1B
100
AcDbEntity
 67
     1
  8
0
  6
Continuous
 62
     7
370
    15
100
AcDbLine
 10
470.325
 20
123.9566666667
 30
0.0
 11
470.325
 21
223.9566666667
 31
0.0
  0
LINE
  5
348
330
1B
100
AcDbEntity
 67
     1
  8
0
  6
Continuous
 62
     7
370
    15
100
AcDbLine
 10
480.325
 20
123.9566666667
 30
0.0
 11
480.325
 21
223.9566666667
 31
0.0
  0
LINE
  5
349
330
1B
100
AcDbEntity
 67
     1
  8
0
  6
Continuous
 62
     7
370
    15
100
AcDbLine
 10
470.325
 20
273.9566666667
 30
0.0
 11
480.325
 21
273.9566666667
 31
0.0
  0
LINE
  5
34A
330
1B
100
AcDbEntity
 67
     1
  8
0
  6
Continuous
 62
     7
370
    15
100
AcDbLine
 10
470.325
 20
273.9566666667
 30
0.0
 11
470.325
 21
243.9566666667
 31
0.0
  0
LINE
  5
34B
330
1B
100
AcDbEntity
 67
     1
  8
0
  6
Continuous
 62
     7
370
    15
100
AcDbLine
 10
480.325
 20
273.9566666667
 30
0.0
 11
480.325
 21
243.9566666667
 31
0.0
  0
LINE
  5
34C
330
1B
100
AcDbEntity
 67
     1
  8
0
  6
Continuous
 62
     7
370
    15
100
AcDbLine
 10
470.325
 20
275.6233333333
 30
0.0
 11
470.325
 21
273.9566666667
 31
0.0
  0
LINE
  5
34D
330
1B
100
AcDbEntity
 67
     1
  8
0
  6
Continuous
 62
     7
370
    15
100
AcDbLine
 10
480.325
 20
275.6233333333
 30
0.0
 11
480.325
 21
273.9566666667
 31
0.0
  0
LINE
  5
34E
330
1B
100
AcDbEntity
 67
     1
  8
0
  6
Continuous
 62
     7
370
    15
100
AcDbLine
 10
496.825
 20
253.9566666667
 30
0.0
 11
496.825
 21
270.2066666667
 31
0.0
  0
LINE
  5
34F
330
1B
100
AcDbEntity
 67
     1
  8
0
  6
Continuous
 62
     7
370
    15
100
AcDbLine
 10
496.825
 20
237.7066666667
 30
0.0
 11
496.825
 21
253.9566666667
 31
0.0
  0
DIMENSION
  5
350
330
1B
100
AcDbEntity
 67
     1
  8
0
  6
Continuous
 62
     7
370
     0
100
AcDbDimension
  2
_D_20
 10
506.825
 20
237.7066666667
 30
0.0
 11
506.825
 21
253.9566666667
 31
0.0
 70
   160
  1
%%c<>
 71
     1
 42
-1.0
  3
SLDDIMSTYLE0
100
AcDbAlignedDimension
 13
496.825
 23
270.2066666667
 33
0.0
 14
496.825
 24
237.7066666667
 34
0.0
 50
90.0
100
AcDbRotatedDimension
  0
ENDSEC
  0
SECTION
  2
OBJECTS
  0
DICTIONARY
  5
C
330
0
100
AcDbDictionary
281
     1
  3
ACAD_GROUP
350
D
  3
ACAD_LAYOUT
350
1A
  3
ACAD_MLINESTYLE
350
17
  3
ACAD_PLOTSETTINGS
350
19
  3
ACAD_PLOTSTYLENAME
350
E
  3
ACAD_SCALELIST
350
47
  0
DICTIONARY
  5
D
102
{ACAD_REACTORS
330
C
102
}
330
C
100
AcDbDictionary
281
     1
  0
DICTIONARY
  5
1A
102
{ACAD_REACTORS
330
C
102
}
330
C
100
AcDbDictionary
281
     1
  3
Model
350
22
  3
no cut
350
1E
  0
DICTIONARY
  5
17
102
{ACAD_REACTORS
330
C
102
}
330
C
100
AcDbDictionary
281
     1
  3
Standard
350
18
  0
DICTIONARY
  5
19
102
{ACAD_REACTORS
330
C
102
}
330
C
100
AcDbDictionary
281
     1
  0
ACDBDICTIONARYWDFLT
  5
E
102
{ACAD_REACTORS
330
C
102
}
330
C
100
AcDbDictionary
281
     1
  3
Normal
350
F
100
AcDbDictionaryWithDefault
340
F
  0
DICTIONARY
  5
47
102
{ACAD_REACTORS
330
C
102
}
330
C
100
AcDbDictionary
281
     1
  3
A0
350
48
  3
A1
350
49
  3
A2
350
4A
  3
A3
350
4B
  3
A4
350
4C
  3
A5
350
4D
  3
A6
350
4E
  3
A7
350
4F
  3
A8
350
50
  3
A9
350
51
  3
B0
350
52
  3
B1
350
53
  3
B2
350
54
  3
B3
350
55
  3
B4
350
56
  3
B5
350
57
  3
B6
350
58
  3
B7
350
59
  3
B8
350
5A
  3
B9
350
5B
  3
C0
350
5C
  3
C1
350
5D
  3
C2
350
5E
  3
C3
350
5F
  3
C4
350
60
  3
C5
350
61
  3
C6
350
62
  3
C7
350
63
  3
C8
350
64
  3
C9
350
65
  3
D0
350
66
  3
D1
350
67
  3
D2
350
68
  0
LAYOUT
  5
22
102
{ACAD_REACTORS
330
1A
102
}
330
1A
100
AcDbPlotSettings
  1

  2
none_device
  4
Letter_(8.50_x_11.00_Inches)
  6

 40
6.35
 41
6.35
 42
6.35000508
 43
6.35000508
 44
215.9
 45
279.4
 46
0.0
 47
0.0
 48
0.0
 49
0.0
140
0.0
141
0.0
142
1.0
143
1.0
 70
  1712
 72
     1
 73
     0
 74
     0
  7

 75
     0
147
1.0
148
0.0
149
0.0
100
AcDbLayout
  1
Model
 70
     1
 71
     0
 10
0.0
 20
0.0
 11
841.0
 21
594.0
 12
0.0
 22
0.0
 32
0.0
 14
0.0
 24
0.0
 34
0.0
 15
841.0
 25
594.0
 35
0.0
146
0.0
 13
0.0
 23
0.0
 33
0.0
 16
1.0
 26
0.0
 36
0.0
 17
0.0
 27
1.0
 37
0.0
 76
     0
330
1F
331
29
  0
LAYOUT
  5
1E
102
{ACAD_REACTORS
330
1A
102
}
330
1A
100
AcDbPlotSettings
  1

  2
none_device
  4
ISO_A1_(841.00_x_594.00_MM)
  6

 40
7.5
 41
20.0
 42
7.5
 43
20.0
 44
841.0
 45
594.0
 46
0.0
 47
0.0
 48
0.0
 49
0.0
140
0.0
141
0.0
142
1.0
143
1.0
 70
  4832
 72
     0
 73
     0
 74
     1
  7

 75
     0
147
1.0
148
0.0
149
0.0
100
AcDbLayout
  1
no cut
 70
     1
 71
     1
 10
0.0
 20
0.0
 11
841.0
 21
594.0
 12
0.0
 22
0.0
 32
0.0
 14
0.0
 24
0.0
 34
0.0
 15
841.0
 25
594.0
 35
0.0
146
0.0
 13
0.0
 23
0.0
 33
0.0
 16
1.0
 26
0.0
 36
0.0
 17
0.0
 27
1.0
 37
0.0
 76
     0
330
1B
331
1F6
  0
MLINESTYLE
  5
18
102
{ACAD_REACTORS
330
17
102
}
330
17
100
AcDbMlineStyle
  2
Standard
 70
     0
  3

 62
   256
 51
90.0
 52
90.0
 71
     2
 49
0.5
 62
   256
  6
BYLAYER
 49
-0.5
 62
   256
  6
BYLAYER
  0
ACDBPLACEHOLDER
  5
F
102
{ACAD_REACTORS
330
E
102
}
330
E
  0
SCALE
  5
48
102
{ACAD_REACTORS
330
47
102
}
330
47
100
AcDbScale
 70
     0
300
1:1
140
1.0
141
1.0
290
     1
  0
SCALE
  5
49
102
{ACAD_REACTORS
330
47
102
}
330
47
100
AcDbScale
 70
     0
300
1:2
140
1.0
141
2.0
290
     0
  0
SCALE
  5
4A
102
{ACAD_REACTORS
330
47
102
}
330
47
100
AcDbScale
 70
     0
300
1:4
140
1.0
141
4.0
290
     0
  0
SCALE
  5
4B
102
{ACAD_REACTORS
330
47
102
}
330
47
100
AcDbScale
 70
     0
300
1:5
140
1.0
141
5.0
290
     0
  0
SCALE
  5
4C
102
{ACAD_REACTORS
330
47
102
}
330
47
100
AcDbScale
 70
     0
300
1:8
140
1.0
141
8.0
290
     0
  0
SCALE
  5
4D
102
{ACAD_REACTORS
330
47
102
}
330
47
100
AcDbScale
 70
     0
300
1:10
140
1.0
141
10.0
290
     0
  0
SCALE
  5
4E
102
{ACAD_REACTORS
330
47
102
}
330
47
100
AcDbScale
 70
     0
300
1:16
140
1.0
141
16.0
290
     0
  0
SCALE
  5
4F
102
{ACAD_REACTORS
330
47
102
}
330
47
100
AcDbScale
 70
     0
300
1:20
140
1.0
141
20.0
290
     0
  0
SCALE
  5
50
102
{ACAD_REACTORS
330
47
102
}
330
47
100
AcDbScale
 70
     0
300
1:30
140
1.0
141
30.0
290
     0
  0
SCALE
  5
51
102
{ACAD_REACTORS
330
47
102
}
330
47
100
AcDbScale
 70
     0
300
1:40
140
1.0
141
40.0
290
     0
  0
SCALE
  5
52
102
{ACAD_REACTORS
330
47
102
}
330
47
100
AcDbScale
 70
     0
300
1:50
140
1.0
141
50.0
290
     0
  0
SCALE
  5
53
102
{ACAD_REACTORS
330
47
102
}
330
47
100
AcDbScale
 70
     0
300
1:100
140
1.0
141
100.0
290
     0
  0
SCALE
  5
54
102
{ACAD_REACTORS
330
47
102
}
330
47
100
AcDbScale
 70
     0
300
2:1
140
2.0
141
1.0
290
     0
  0
SCALE
  5
55
102
{ACAD_REACTORS
330
47
102
}
330
47
100
AcDbScale
 70
     0
300
4:1
140
4.0
141
1.0
290
     0
  0
SCALE
  5
56
102
{ACAD_REACTORS
330
47
102
}
330
47
100
AcDbScale
 70
     0
300
8:1
140
8.0
141
1.0
290
     0
  0
SCALE
  5
57
102
{ACAD_REACTORS
330
47
102
}
330
47
100
AcDbScale
 70
     0
300
10:1
140
10.0
141
1.0
290
     0
  0
SCALE
  5
58
102
{ACAD_REACTORS
330
47
102
}
330
47
100
AcDbScale
 70
     0
300
100:1
140
100.0
141
1.0
290
     0
  0
SCALE
  5
59
102
{ACAD_REACTORS
330
47
102
}
330
47
100
AcDbScale
 70
     0
300
1/128" = 1'-0"
140
0.0078125
141
12.0
290
     0
  0
SCALE
  5
5A
102
{ACAD_REACTORS
330
47
102
}
330
47
100
AcDbScale
 70
     0
300
1/64" = 1'-0"
140
0.015625
141
12.0
290
     0
  0
SCALE
  5
5B
102
{ACAD_REACTORS
330
47
102
}
330
47
100
AcDbScale
 70
     0
300
1/32" = 1'-0"
140
0.03125
141
12.0
290
     0
  0
SCALE
  5
5C
102
{ACAD_REACTORS
330
47
102
}
330
47
100
AcDbScale
 70
     0
300
1/16" = 1'-0"
140
0.0625
141
12.0
290
     0
  0
SCALE
  5
5D
102
{ACAD_REACTORS
330
47
102
}
330
47
100
AcDbScale
 70
     0
300
3/32" = 1'-0"
140
0.09375
141
12.0
290
     0
  0
SCALE
  5
5E
102
{ACAD_REACTORS
330
47
102
}
330
47
100
AcDbScale
 70
     0
300
1/8" = 1'-0"
140
0.125
141
12.0
290
     0
  0
SCALE
  5
5F
102
{ACAD_REACTORS
330
47
102
}
330
47
100
AcDbScale
 70
     0
300
3/16" = 1'-0"
140
0.1875
141
12.0
290
     0
  0
SCALE
  5
60
102
{ACAD_REACTORS
330
47
102
}
330
47
100
AcDbScale
 70
     0
300
1/4" = 1'-0"
140
0.25
141
12.0
290
     0
  0
SCALE
  5
61
102
{ACAD_REACTORS
330
47
102
}
330
47
100
AcDbScale
 70
     0
300
3/8" = 1'-0"
140
0.375
141
12.0
290
     0
  0
SCALE
  5
62
102
{ACAD_REACTORS
330
47
102
}
330
47
100
AcDbScale
 70
     0
300
1/2" = 1'-0"
140
0.5
141
12.0
290
     0
  0
SCALE
  5
63
102
{ACAD_REACTORS
330
47
102
}
330
47
100
AcDbScale
 70
     0
300
3/4" = 1'-0"
140
0.75
141
12.0
290
     0
  0
SCALE
  5
64
102
{ACAD_REACTORS
330
47
102
}
330
47
100
AcDbScale
 70
     0
300
1" = 1'-0"
140
1.0
141
12.0
290
     0
  0
SCALE
  5
65
102
{ACAD_REACTORS
330
47
102
}
330
47
100
AcDbScale
 70
     0
300
1-1/2" = 1'-0"
140
1.5
141
12.0
290
     0
  0
SCALE
  5
66
102
{ACAD_REACTORS
330
47
102
}
330
47
100
AcDbScale
 70
     0
300
3" = 1'-0"
140
3.0
141
12.0
290
     0
  0
SCALE
  5
67
102
{ACAD_REACTORS
330
47
102
}
330
47
100
AcDbScale
 70
     0
300
6" = 1'-0"
140
6.0
141
12.0
290
     0
  0
SCALE
  5
68
102
{ACAD_REACTORS
330
47
102
}
330
47
100
AcDbScale
 70
     0
300
1'-0" = 1'-0"
140
12.0
141
12.0
290
     0
  0
ENDSEC
  0
EOF
